<svg xmlns="http://www.w3.org/2000/svg" xmlns:xlink="http://www.w3.org/1999/xlink" viewBox="0 0 2000 12479" width="2000" height="12479"><defs><style>.cls-1{fill:url(#linear-gradient);}.cls-2{fill:url(#linear-gradient-2);}.cls-3{fill:url(#linear-gradient-3);}.cls-4{fill:url(#linear-gradient-4);}.cls-5{fill:url(#linear-gradient-5);}.cls-6{fill:url(#linear-gradient-6);}.cls-7{fill:url(#linear-gradient-7);}.cls-8{fill:url(#linear-gradient-8);}.cls-9{fill:url(#linear-gradient-9);}.cls-10{fill:url(#linear-gradient-10);}</style><linearGradient id="linear-gradient" x1="1649.62" y1="13038.19" x2="1649.62" y2="15402.52" gradientTransform="translate(-13933.11 4445.91) rotate(-90)" gradientUnits="userSpaceOnUse"><stop offset="0" stop-color="#f1f2f2" stop-opacity="0"/><stop offset="0.01" stop-color="#f1f2f2" stop-opacity="0.03"/><stop offset="0.05" stop-color="#f1f2f2" stop-opacity="0.21"/><stop offset="0.1" stop-color="#f1f2f2" stop-opacity="0.37"/><stop offset="0.14" stop-color="#f1f2f2" stop-opacity="0.5"/><stop offset="0.2" stop-color="#f1f2f2" stop-opacity="0.61"/><stop offset="0.25" stop-color="#f1f2f2" stop-opacity="0.7"/><stop offset="0.32" stop-color="#f1f2f2" stop-opacity="0.76"/><stop offset="0.4" stop-color="#f1f2f2" stop-opacity="0.79"/><stop offset="0.53" stop-color="#f1f2f2" stop-opacity="0.8"/><stop offset="0.65" stop-color="#f1f2f2" stop-opacity="0.79"/><stop offset="0.72" stop-color="#f1f2f2" stop-opacity="0.76"/><stop offset="0.78" stop-color="#f1f2f2" stop-opacity="0.7"/><stop offset="0.83" stop-color="#f1f2f2" stop-opacity="0.62"/><stop offset="0.87" stop-color="#f1f2f2" stop-opacity="0.51"/><stop offset="0.92" stop-color="#f1f2f2" stop-opacity="0.38"/><stop offset="0.96" stop-color="#f1f2f2" stop-opacity="0.22"/><stop offset="0.99" stop-color="#f1f2f2" stop-opacity="0.04"/><stop offset="1" stop-color="#f1f2f2" stop-opacity="0"/></linearGradient><linearGradient id="linear-gradient-2" x1="993.01" y1="3969.5" x2="993.01" y2="6863.57" gradientUnits="userSpaceOnUse"><stop offset="0" stop-color="#f1f2f2" stop-opacity="0"/><stop offset="0.53" stop-color="#f1f2f2" stop-opacity="0.9"/><stop offset="1" stop-color="#f1f2f2" stop-opacity="0"/></linearGradient><linearGradient id="linear-gradient-3" x1="612.33" y1="6812" x2="646.37" y2="4530.79" gradientUnits="userSpaceOnUse"><stop offset="0" stop-color="#f1f2f2" stop-opacity="0"/><stop offset="1" stop-color="#f1f2f2" stop-opacity="0.9"/></linearGradient><linearGradient id="linear-gradient-4" x1="1382.38" y1="3969.5" x2="1382.38" y2="6863.57" xlink:href="#linear-gradient-2"/><linearGradient id="linear-gradient-5" x1="999.96" y1="33" x2="999.96" y2="1531.14" gradientUnits="userSpaceOnUse"><stop offset="0" stop-color="#d9d9d9" stop-opacity="0"/><stop offset="0.05" stop-color="#dadada" stop-opacity="0.02"/><stop offset="0.11" stop-color="#dcdcdc" stop-opacity="0.09"/><stop offset="0.17" stop-color="#e0e0e0" stop-opacity="0.19"/><stop offset="0.24" stop-color="#e5e5e5" stop-opacity="0.34"/><stop offset="0.32" stop-color="#ebecec" stop-opacity="0.53"/><stop offset="0.37" stop-color="#f1f2f2" stop-opacity="0.7"/><stop offset="1" stop-color="#d7d7d7" stop-opacity="0"/></linearGradient><linearGradient id="linear-gradient-6" x1="1649.62" y1="13038.19" x2="1649.62" y2="15402.52" gradientTransform="translate(-13933.11 4445.91) rotate(-90)" gradientUnits="userSpaceOnUse"><stop offset="0" stop-color="#f1f2f2" stop-opacity="0"/><stop offset="0.03" stop-color="#f1f2f2" stop-opacity="0.07"/><stop offset="0.08" stop-color="#f1f2f2" stop-opacity="0.2"/><stop offset="0.14" stop-color="#f1f2f2" stop-opacity="0.31"/><stop offset="0.21" stop-color="#f1f2f2" stop-opacity="0.4"/><stop offset="0.28" stop-color="#f1f2f2" stop-opacity="0.46"/><stop offset="0.38" stop-color="#f1f2f2" stop-opacity="0.49"/><stop offset="0.53" stop-color="#f1f2f2" stop-opacity="0.5"/><stop offset="0.67" stop-color="#f1f2f2" stop-opacity="0.49"/><stop offset="0.75" stop-color="#f1f2f2" stop-opacity="0.46"/><stop offset="0.82" stop-color="#f1f2f2" stop-opacity="0.4"/><stop offset="0.87" stop-color="#f1f2f2" stop-opacity="0.32"/><stop offset="0.93" stop-color="#f1f2f2" stop-opacity="0.21"/><stop offset="0.98" stop-color="#f1f2f2" stop-opacity="0.08"/><stop offset="1" stop-color="#f1f2f2" stop-opacity="0"/></linearGradient><linearGradient id="linear-gradient-7" x1="1000.47" y1="9564.29" x2="1000.47" y2="12446.08" xlink:href="#linear-gradient-2"/><linearGradient id="linear-gradient-8" x1="621.4" y1="12394.73" x2="655.3" y2="10123.2" xlink:href="#linear-gradient-3"/><linearGradient id="linear-gradient-9" x1="1388.18" y1="9564.29" x2="1388.18" y2="12446.08" xlink:href="#linear-gradient-2"/><linearGradient id="linear-gradient-10" x1="-4264.35" y1="7421.67" x2="-2316.16" y2="7421.67" gradientTransform="translate(8427.77 11266.14) rotate(90)" gradientUnits="userSpaceOnUse"><stop offset="0" stop-color="#f1f2f2" stop-opacity="0"/><stop offset="0.08" stop-color="#f1f2f2" stop-opacity="0.14"/><stop offset="0.23" stop-color="#f1f2f2" stop-opacity="0.38"/><stop offset="0.36" stop-color="#f1f2f2" stop-opacity="0.55"/><stop offset="0.47" stop-color="#f1f2f2" stop-opacity="0.66"/><stop offset="0.53" stop-color="#f1f2f2" stop-opacity="0.7"/><stop offset="0.6" stop-color="#f1f2f2" stop-opacity="0.68"/><stop offset="0.67" stop-color="#f1f2f2" stop-opacity="0.63"/><stop offset="0.75" stop-color="#f1f2f2" stop-opacity="0.55"/><stop offset="0.82" stop-color="#f1f2f2" stop-opacity="0.43"/><stop offset="0.89" stop-color="#f1f2f2" stop-opacity="0.28"/><stop offset="0.96" stop-color="#f1f2f2" stop-opacity="0.1"/><stop offset="1" stop-color="#f1f2f2" stop-opacity="0"/></linearGradient></defs><title>Artboard 1</title><g id="Layer_23" data-name="Layer 23"><path class="cls-1" d="M726.06,2949.09c-49.49,76.21-6.11,141.44,46,169.4C802.61,3134.89,1824.34,3669,1824.34,3669c86.72,40.08,142,45.69,175.66,33.73V1884.33H1606.65C1256,2310.24,726.06,2949.09,726.06,2949.09"/><path class="cls-2" d="M1997.74,3874H-11.72v155.31c85.56,36.41,1186.85,483.14,2009.46,816.58Z"/><path class="cls-3" d="M1274.44,5382.56c50-108.4,6.16-201.18-46.41-241-30.88-23.32-1062.37-782.94-1062.37-782.94-87.56-57-143.4-65-177.34-48V6897h397.1c354.06-605.78,889-1514.44,889-1514.44"/><path class="cls-4" d="M1997.74,6376.84C1675.6,6246.28,1453,6156.13,1453,6156.13c-95.87-36.27-183.76,15.3-216.46,51.71-19.83,22-272.71,396.49-469.55,689.15H1997.74Z"/><path class="cls-5" d="M-.08.28H1815L1421.44,277.21a309.17,309.17,0,0,0-129.83,282.31c5.21,54.34,14.7,100.64,54.92,148.47L2000,1371.19l-1.2,217.2L-.08,760.93V.28"/><path class="cls-6" d="M726.06,2949.09c-49.49,76.21-6.11,141.44,46,169.4C802.61,3134.89,1824.34,3669,1824.34,3669c86.72,40.08,142,45.69,175.66,33.73V1884.33H1606.65C1256,2310.24,726.06,2949.09,726.06,2949.09"/><path class="cls-7" d="M2000.94,9469.15H0v154.66c85.2,36.25,1181.81,481.08,2000.94,813.11Z"/><path class="cls-8" d="M1280.7,10971.35c49.75-107.94,6.14-200.32-46.21-239.93-30.75-23.22-1057.87-779.61-1057.87-779.61C89.44,9895,33.84,9887.1,0,9904v2575.34H395.46c352.55-603.21,885.24-1508,885.24-1508"/><path class="cls-9" d="M2000.94,11961.42c-320.78-130-542.42-219.78-542.42-219.78-95.46-36.12-183,15.24-215.53,51.49-19.75,21.94-271.56,394.81-467.56,686.23H2000.94Z"/><path class="cls-10" d="M2001.21,6962.52v2274.6l-347-493.17a387.46,387.46,0,0,0-353.78-162.7c-68.11,6.53-126.12,18.42-186.07,68.83L283.2,9469,11,9467.5l1037-2505h953.24"/></g></svg>