<svg height="161.35" viewBox="0 0 300.74 161.35" width="300.74" xmlns="http://www.w3.org/2000/svg"><g fill="#576a75"><path d="m39.04 131.54 23.89-.36 23.89-.2 47.78-.17 47.78.17 23.89.2 23.89.36-23.89.35-23.89.2-47.78.17-47.78-.17-23.89-.2z"/><path d="m3.34 127.09c5.08-.15 10.15-.21 15.23-.32l15.23-.16c10.15-.1 20.31-.06 30.46-.09s20.31.1 30.47.24l15.27.24c5.07.13 10.15.21 15.22.39-5.08.15-10.15.21-15.23.32l-15.23.16c-10.16.09-20.31.06-30.46.09s-20.3-.1-30.46-.24l-15.23-.24c-5.11-.13-10.19-.22-15.27-.39z"/><path d="m78.92 120.71 26.78-.42 26.78-.27 53.55-.32 53.56.03 26.78.13 26.78.28-26.78.43-26.77.27-53.56.31-53.56-.02-26.78-.13z"/><path d="m118 61.43c-.28.7-.49 1.3-.76 1.87a2.91 2.91 0 0 1 -1.62 1.44c-1.22.5-2.41 1.07-3.63 1.58s-2.52 1-3.85 1.54c.39 1.46.75 2.88 1.15 4.3.79 2.77 1.57 5.55 2.41 8.32.69 2.28 1.54 4.53 2.16 6.83a8.29 8.29 0 0 1 .5 3.71c-.17 1 .29 1.38 1.29 1.12 1.62-.41 3.09.23 4.63.45 2.11.3 4.23.5 6.35.76.49.06 1 .21 1.45.28 2 .28 3.94.63 5.93.78a6.38 6.38 0 0 0 2.36-.6c1-.35 1.9-.78 2.84-1.19 1.42-.63 2.83-1.29 4.26-1.91.6-.26 1.23-.45 1.84-.71 2.58-1.08 5.14-2.21 7.73-3.27 2.93-1.21 5.89-2.36 8.83-3.54.3-.12.58-.29 1-.48-.56-3.33-1.57-6.53-2.34-9.86a24.59 24.59 0 0 1 -6.65-.52c-2-.27-4-.72-6-1-1.14-.17-2.3-.18-3.45-.25-.7 0-1.42 0-2-.63l.57-2.16-.19-.18c-.88.7-1.83.39-2.77.38a13.16 13.16 0 0 0 -1.83.3 24.34 24.34 0 0 1 -2.82.32c-1 0-1.07-.27-1.26-1.17-.37-1.82 2.18-3.82 3.78-3.39a8.25 8.25 0 0 0 4 0 10.71 10.71 0 0 1 2-.09c.53 0 .84.24.64.75a1.06 1.06 0 0 0 .17 1 1.78 1.78 0 0 1 .14.9v2.11c.66.09 1.23.17 1.79.27 2 .35 4.06.75 6.09 1.06s4.08.56 6.13.8a6.2 6.2 0 0 0 1.25-.11c-.06-.63-.12-1.18-.17-1.73-.07-.82-.15-1.64-.19-2.46s-.12-1.06-1-1.16c-1.34-.16-2.71-.19-4.06-.25l-7.4-.31a3.06 3.06 0 0 1 -.85-.17 1.69 1.69 0 0 1 -1.25-2.16c.17-.7.19-1.44.35-2.14a2 2 0 0 1 .51-1c.64-.51 1.28-.19 1.24.61a16.33 16.33 0 0 1 -.34 2.19c-.11.67-.08.76.6 1.12.5-2.24 1.81-4.09 2.93-6 .83-1.45 1.31-1.59 2.78-.92q5.29 2.41 10.59 4.79a3.53 3.53 0 0 0 2.74.35 1 1 0 0 1 1.16.5 3 3 0 0 1 .36 2.61c-.17.67-1.14 1.15-2.1 1.15-.65 0-1.29.06-2.07.1a111.83 111.83 0 0 0 2.58 14.9 5.59 5.59 0 0 0 2.33-.63c2.8-1.11 5.59-2.23 8.4-3.3 2.23-.86 4.48-1.67 6.73-2.48 2-.72 4-1.42 5.94-2.13 3.26-1.18 6.55-2.29 9.76-3.58 2.37-1 4.63-2.15 6.94-3.23l2.64-1.22-.44-2c-.37-1.68-.75-3.36-1.12-5a11.36 11.36 0 0 1 -.62-3.12 10.12 10.12 0 0 0 -.47-3.44c-.23-1 0-1.22.86-1.64l6.59-3.08a4.6 4.6 0 0 0 .76-.41 10.42 10.42 0 0 1 4.17-2.3 3.63 3.63 0 0 0 -3.62-1c-2 .3-3.92.66-5.88 1a5.57 5.57 0 0 1 -1.47 0 1 1 0 0 1 -.91-1.5 20.74 20.74 0 0 1 1.41-3 2.36 2.36 0 0 1 1.5-.92c1.92-.23 3.86-.35 5.8-.42a1.47 1.47 0 0 1 1.62 1.37c.11.57.15 1.14.23 1.79.53.22 1.1.45 1.65.71a4.8 4.8 0 0 1 1.05.63c.85.77 1 1.34.31 2.25a9.77 9.77 0 0 1 -1.86 1.94 68.36 68.36 0 0 1 -8.35 5.29 3.61 3.61 0 0 0 -.62.59c.44 1.41 1 2.84 1.32 4.31.49 2 .84 4 1.29 6 .13.6.45 1.15.62 1.73.25.83.37 1.7.68 2.5 1.06 2.72 1.6 5.6 2.53 8.36a.74.74 0 0 0 .94.56c1.38-.18 2.77-.34 4.15-.4a33.51 33.51 0 0 1 3.75 0 13.71 13.71 0 0 1 3.31.93c2 .68 3.27 2.31 4.85 3.54.65.51 1.31 1 2 1.47a9.36 9.36 0 0 1 3.62 3.63 5.68 5.68 0 0 0 .93 1.31 16.56 16.56 0 0 1 3.36 6.55 20.66 20.66 0 0 1 .25 10.67 26.21 26.21 0 0 1 -4.89 10.41 53.9 53.9 0 0 1 -4.71 4.73 3.76 3.76 0 0 1 -1 .68c-2.15 1.07-4.27 2.18-6.46 3.14a16.49 16.49 0 0 1 -6.43 1 35.29 35.29 0 0 1 -11.47-2.13 22 22 0 0 1 -6.62-3.22 12.92 12.92 0 0 1 -4.42-5.85c-.78-2.08-1.57-4.16-2.21-6.28a17.64 17.64 0 0 1 -.46-7.37c.18-1.34.5-2.67.81-4a10.55 10.55 0 0 1 .71-2.21c.6-1.27 1.27-2.49 2-3.71s1.32-2.08 1.92-3.15a15.59 15.59 0 0 1 5.26-5.59c2.21-1.41 4.59-2.56 7.07-3.91-.44-2.23-1.2-4.57-1.87-7.12-.42.25-.7.39-.94.57a18.8 18.8 0 0 1 -2.05 1.56 24.64 24.64 0 0 0 -5 4.07 73.12 73.12 0 0 1 -6.13 5.54 66.25 66.25 0 0 0 -8.16 7.55c-1.53 1.63-3.19 3.08-4.84 4.58-1.89 1.72-3.76 3.46-5.6 5.24-.77.74-1.41 1.6-2.14 2.38a2.11 2.11 0 0 1 -.8.56 2 2 0 0 0 -1.2 1.31 6.25 6.25 0 0 1 -6.84 4.18h-.64a7.88 7.88 0 0 1 -.18 1 .84.84 0 0 1 -1.14.64c-2-.68-4-.28-6-.25-2.19 0-4.37.23-6.55.34l-8.77.43c-3.28.15-6.56.3-9.84.47-.45 0-.89.16-1.34.16-2.09 0-4.18 0-6.28 0-.9 0-1.81.08-2.71.09-1.65 0-3.3 0-5 0a2.24 2.24 0 0 0 -.51.11 2.43 2.43 0 0 0 0 .62c.39 1 .8 2 1.21 3.07a.7.7 0 0 1 -.36 1c-.75.34-1.51.66-2.27 1a17.25 17.25 0 0 0 -1.74.65 1 1 0 0 0 -.48.75.63.63 0 0 0 .76.63c.53-.05 1-.22 1.57-.32a15.88 15.88 0 0 1 1.93-.33 1.4 1.4 0 0 0 1.37-1.92c-.2-.69-.42-1.37.35-1.86 1.46.62 1.61.89 1.32 2.32-.11.52-.17 1.06-.29 1.58a1.78 1.78 0 0 1 -2 1.52 8.55 8.55 0 0 0 -3.4.54 3.28 3.28 0 0 1 -2.31 0 1.92 1.92 0 0 1 -1.32-2.32c.24-1 .63-1.94 1.9-2.14a10 10 0 0 0 1.87-.62c.69-.25.79-.51.59-1.22-.15-.55-.28-1.11-.41-1.66a.87.87 0 0 0 -1-.81 9.11 9.11 0 0 1 -7.78-3.5 1.9 1.9 0 0 0 -1.93-1c-1.34.18-2.56-.42-3.84-.56-.4 0-.79-.12-1.33-.2-.49 2-1 3.8-1.42 5.69.35.13.53.26.72.25 1.52 0 3-.11 4.57-.12s3 .06 4.46 0a16.43 16.43 0 0 0 2.19-.29c.12 0 .24-.07.36-.08.78-.12 1.34.14 1.41.64s-.32.87-1.08 1a15.29 15.29 0 0 1 -2.35.15q-5.07-.06-10.14-.16a.94.94 0 0 0 -1 .59 37.51 37.51 0 0 1 -3.88 5.71 11.24 11.24 0 0 1 -3.43 2.78 26.87 26.87 0 0 1 -3.87 2.17 16.61 16.61 0 0 1 -3.62.74c-1 .17-2.12.3-3.18.38a20.1 20.1 0 0 1 -4.3.18 14.52 14.52 0 0 1 -4.37-1.39 42.19 42.19 0 0 0 -5-1.84 11.19 11.19 0 0 1 -3.15-1.66c-1-.75-2.1-1.31-3.1-2.05a15.8 15.8 0 0 1 -4.68-5.45c-1.92-3.72-2.48-7.74-2.78-11.83-.06-.78-.17-1.56-.29-2.33a4.6 4.6 0 0 1 .39-2.65c.55-1.17 1-2.41 1.45-3.61a5.32 5.32 0 0 1 .48-1c.47-.76 1-1.5 1.47-2.26a17.88 17.88 0 0 1 3.7-4.24c1-.79 1.9-1.57 2.87-2.33a27.47 27.47 0 0 1 6-3.17 14.19 14.19 0 0 1 5.13-1.24 33.13 33.13 0 0 1 7.38 0 49 49 0 0 1 6.25 1.9 28.87 28.87 0 0 1 4.08 1.4c3.14 1.52 2.69 1.16 5.62 4.15l9.06-5.79a73.6 73.6 0 0 0 -2.56-9.61l-3.33.52a1 1 0 0 1 -.25 0c-2.6.12-5.22.3-7.69-.75a10.94 10.94 0 0 1 -2.32-1.4 1.85 1.85 0 0 1 -.63-2.23 13.73 13.73 0 0 1 1-2.24 1.19 1.19 0 0 1 1-.56c1 .25 1.81-.56 2.77-.5.14 0 .37-.23.42-.4.21-.7.78-.76 1.36-.87a25.76 25.76 0 0 1 9.1 0 20.4 20.4 0 0 0 6.66-.18 14.67 14.67 0 0 1 3.8-.22 4.86 4.86 0 0 1 2.28.87zm61.54 30.34c-2 1.19-4.54 3.55-5.08 4.7 1.18-1.06 2.28-2 3.35-3 .59-.54 1.46-.82 1.71-1.7l.74-.4-.13-.18zm40.69-1c1-.11 2-.26 3-.31a3.88 3.88 0 0 1 4.05 2.79 11.31 11.31 0 0 1 .38 5.5 5.87 5.87 0 0 1 -3.26 4.4 18 18 0 0 1 -3.38 1.18 3.25 3.25 0 0 1 -1.58.06c-1.85-.45-3.65-1-4.86-2.65-.94-1.29-1.63-2.61-1.15-4.23.54-1.78 1.18-3.51 2.84-4.64.71-.49.72-.74.38-1.59a16.58 16.58 0 0 1 -.66-1.73c-.73-2.71-1.42-5.43-2.14-8.14-.4-1.49-.54-1.55-2-1a2.15 2.15 0 0 0 -.56.24 24.14 24.14 0 0 0 -3.11 2.45 39.73 39.73 0 0 0 -6.53 8.65 36.77 36.77 0 0 0 -2.45 7.36 8.12 8.12 0 0 0 0 4.4 21.77 21.77 0 0 0 4 7.48 22 22 0 0 0 4.61 4.28 22.28 22.28 0 0 0 5.18 3.11 25.19 25.19 0 0 0 6.74 1.49 18.93 18.93 0 0 0 6.63-.5 12.87 12.87 0 0 0 5.24-2.91c1.16-1.06 2.26-2.17 3.46-3.19a14.61 14.61 0 0 0 3.21-4c.78-1.39 1.7-2.71 2.5-4.09a9 9 0 0 0 1-2.13c.3-1.14.47-2.33.66-3.5a2.1 2.1 0 0 0 -.06-.7c-.08-.49-.22-1-.28-1.45-.43-3.44-1.24-6.71-3.54-9.47-1.32-1.58-2.49-3.33-4.27-4.42a56.75 56.75 0 0 0 -6.08-3.31 12.86 12.86 0 0 0 -5.71-.91c-.58 0-1.15-.07-1.73-.09a9.41 9.41 0 0 0 -3.25.1c.83 3.76 1.74 7.55 2.67 11.45zm-126.84-3.62a7.52 7.52 0 0 0 -.53-1 17.18 17.18 0 0 0 -6.94-5 22.51 22.51 0 0 0 -8.21-1.64 24.66 24.66 0 0 0 -5.43.31 15.49 15.49 0 0 0 -6.11 2.18 49.56 49.56 0 0 0 -4.42 3.37 18.31 18.31 0 0 0 -4.9 7.63 18.69 18.69 0 0 0 -.87 4.1 13.83 13.83 0 0 0 1.41 8.75c.58 1.09 1.22 2.15 1.86 3.2a25.36 25.36 0 0 0 2 3 33.21 33.21 0 0 0 3.59 3.72 16.33 16.33 0 0 0 3.93 2.76 23.8 23.8 0 0 0 9.4 2.43 15.62 15.62 0 0 0 7.64-1.67 17.44 17.44 0 0 0 4.19-3c.88-.86 1.74-1.75 2.56-2.67a10.94 10.94 0 0 0 1-1.51c-.8 0-1.37.08-1.93.09-3.78 0-7.57 0-11.35.07-.9 0-1.8.15-2.7.19a9.81 9.81 0 0 1 -2.1 0 3 3 0 0 1 -1.4-.67c-.65-.55-.6-.88 0-1.37.29-.22.62-.4.9-.63a9 9 0 0 0 2.02-2.73 7 7 0 0 0 -.88-.34 3.82 3.82 0 0 1 -2.12-1.22 6.87 6.87 0 0 1 -1.75-3.2 7.14 7.14 0 0 1 -.17-2.3 6.79 6.79 0 0 1 2.46-4.29 4.11 4.11 0 0 1 2.79-1.12 6 6 0 0 1 2.2.22 2.86 2.86 0 0 0 2.85-.62 5.88 5.88 0 0 1 .51-.36c2.28-1.39 4.52-2.87 6.86-4.15a17.22 17.22 0 0 0 3.64-2.53zm73.74-2.25c.15.81.24 1.41.38 2 .41 1.85.81 3.7 1.26 5.54s0 2 2.1 2.34a1.48 1.48 0 0 1 .35.13 1 1 0 0 0 1.24-.19c1.33-1.21 2.71-2.37 4-3.58.63-.57 1.14-1.29 1.79-1.82 1-.83 2.11-1.54 3.15-2.34.68-.52 1.3-1.12 2-1.64q2.7-2.05 5.43-4c2.18-1.61 4.4-3.19 6.58-4.8a18.78 18.78 0 0 0 1.39-1.29l-.14-.21c-3.21 1-6.42 2.06-9.63 3.12-1.52.5-3 1.06-4.54 1.6-.81.29-1.63.59-2.45.87-2.37.81-4.76 1.61-7.13 2.43-.86.29-1.71.63-2.57.91-.99.29-2.01.58-3.21.93zm-2 21.28a19.47 19.47 0 0 1 -1.7-1.61c-.56-.69-.91-1.67-2.09-1-.06 0-.16 0-.25 0a21.16 21.16 0 0 0 -4.06-.27c-2.72 0-5.43 0-8.15 0-1.85 0-3.71 0-5.56 0-3 0-6 .08-9 .12-3.26 0-6.52.09-9.78.12a.89.89 0 0 0 -.9.49 16.4 16.4 0 0 1 -3.11 4.19l4.46.06h1.1a76.39 76.39 0 0 0 7.86-.19 26.46 26.46 0 0 1 5.55-.21c2.57.22 5.07-.28 7.61-.32 2.33 0 4.65-.34 7-.47 3.08-.18 6.17-.31 9.26-.48a16 16 0 0 0 1.77-.43zm-54.76-12.58c-1-3.55-2-7-3-10.56a54.81 54.81 0 0 0 -8.37 4.87 57.64 57.64 0 0 1 2.07 6.24 13 13 0 0 1 -.09 6 11.28 11.28 0 0 0 -.06 1.87l4.61.79c0-.42 0-.69 0-1a12 12 0 0 1 .05-2.08c.33-1.46.4-3 1.67-4.15.26-1.23 1.28-1.47 2.27-1.75zm-34.5 17.48h1.43c1.45 0 2.89-.11 4.33-.12.61 0 1.22.2 1.82.18 1.3 0 2.6-.18 3.9-.21 1.85 0 3.71-.13 5.55 0a2.45 2.45 0 0 0 2.73-1.77 4.46 4.46 0 0 0 .37-1 7.12 7.12 0 0 1 1.45-3.64l-13.72-1.31c-.5.61-1 1.33-1.6 1.94a3.63 3.63 0 0 1 -1.57 1.14 3.25 3.25 0 0 0 -2.45 1.84 2.81 2.81 0 0 1 -.38.49c-.56.73-1.11 1.47-1.86 2.46zm89.28-15.67c-.56-3.11-1.1-6-1.64-9a5.75 5.75 0 0 0 -1.13.16q-2.61.94-5.22 1.93-1.26.48-2.52 1c-2.53 1.07-5.24 1.66-7.76 2.75l-4.19 1.84c-.31.13-.63.24-.49.71a2 2 0 0 0 .34.06c2 .08 4 .14 5.92.23.44 0 .87.23 1.3.22 1.22 0 2.44-.22 3.65-.19 3.12.1 6.24.29 9.36.42.73 0 1.46-.09 2.38-.13zm-1 1.6c-.93-.11-1.53-.2-2.13-.25-2-.17-4-.36-6-.48-1.77-.1-3.54-.08-5.3-.16-2-.1-4-.26-6-.39a28.25 28.25 0 0 1 -3.06-.24 5.46 5.46 0 0 0 -2.92.15c-.8.29-1.54.74-2.33 1-1.77.68-3.57 1.31-5.35 2-.37.14-.72.32-1.09.49 5.51.24 11 .43 16.42.22s11 .15 16.44.07zm-68.42-6.86c-1.61.75-3 1.5-4.38 2a13.12 13.12 0 0 0 -3 1.75c-.92.62-1.83 1.27-2.73 1.91a12.49 12.49 0 0 0 -1.48 1.12c-.71.68-.34 2.5.56 2.69a44.83 44.83 0 0 0 4.73.78 26.3 26.3 0 0 1 5.22.91c1.71.51 2.25.21 2.48-1.53a3.14 3.14 0 0 0 0-.61c-.15-2.09-.24-4.19-.51-6.27a14.13 14.13 0 0 0 -.89-2.75zm18.41-27.54c-3.12.07-6 0-8.8.21s-5.72 0-8.59.36c0 .86.06 1.56.12 2.26a2.51 2.51 0 0 0 2.24 2.56 5.63 5.63 0 0 0 4-.76 4.68 4.68 0 0 1 1.13-.37c.35-.09.72-.12 1.06-.23.51-.16 1-.38 1.51-.53q2.59-.81 5.21-1.58a3.89 3.89 0 0 0 2.12-1.92zm51.26 1.39c-.4-.23-.57-.34-.75-.43-2.73-1.27-5.46-2.55-8.2-3.79-1.2-.54-2.45-1-3.68-1.45a.9.9 0 0 0 -1.24.47c-.59 1.09-1.2 2.17-1.74 3.28-.34.69-.16 1.12.56 1.36a8 8 0 0 0 2.05.42c4 .18 8.07.31 12.11.44a3.25 3.25 0 0 0 .89-.3zm-49.82 33.29a18.17 18.17 0 0 1 2.77 1 4 4 0 0 1 1.43 6 7 7 0 0 1 -1.68 1.43c-.8.56-.83.53-.65 1.58 0 .18 0 .38.08.58a7.61 7.61 0 0 0 4.85-5.33 8 8 0 0 0 -1-6.48 6.6 6.6 0 0 0 -5.33-2.92 7.44 7.44 0 0 0 -1.32.17c.32 1.49.6 2.81.85 3.97zm56.8 4.53a2 2 0 0 1 0-2.65c.32-.43.28-.85-.36-1a1.43 1.43 0 0 1 -1-1.12c-.17-.75-.59-.9-1.35-.74 0 .35.09.67.1 1 0 1.23.14 2.46.06 3.69-.06 1-.65 1.44-1.63 1.45-1.3 0-1.57-.25-1.76-1.66a3.41 3.41 0 0 0 -.82-2.09c-.85 1.1-.23 2.8-1.68 3.38a3.72 3.72 0 0 0 3.32 2.94c2.25.07 4.13-.46 5.12-3.2zm-39.55-6.65c-.67-.23-1.25-.65-1.61-.51a4 4 0 0 1 -2.64-.13 11 11 0 0 0 -3.16-.41c-.78 0-1.56-.12-2.34-.14a10.55 10.55 0 0 0 -1.31.12c1.13 1.66 2.16 3.14 2.29 5.06zm89.06 1.47a5.62 5.62 0 0 1 .25 1 1.59 1.59 0 0 1 -1.14 1.6 1.57 1.57 0 0 1 -1.61-.85c-.57-1-1.33-1.91-1.32-3.15 0 0-.13-.09-.29-.2a3.47 3.47 0 0 0 -.74 3.09c.23.7.45 1.41.73 2.09a3 3 0 0 0 3.13 1.93c.41 0 .83 0 1.23-.08.84-.15 1.78-.52 1.94-1.32.34-1.83.25-3.31-2.18-4.11zm-106.29 11.59c-.23-.82-.26-1.8-1.29-1.78-1.81 0-2.9-1.17-3.86-2.33a7 7 0 0 1 -1.58-6.35c.19-.74.44-1.46.69-2.27-2.16 1.1-3.12 5.38-1.4 8.91 1.21 2.48 5.31 4.65 7.44 3.82zm105.7-16.13.63.92-.58.53c.37.83.71 1.65 1.67 2a6.74 6.74 0 0 1 .85.5 3.15 3.15 0 0 1 1.67 2.57c0 .38.09.76.14 1.14.3-.14.44-.29.48-.47a11 11 0 0 0 .09-5c-.62-2.5-2.8-3.08-4.95-2.19zm-125-23.67a6.7 6.7 0 0 1 -.88-3.81c.12-.85-.35-1.27-1.16-1.08a9.6 9.6 0 0 0 -1.88.61 1.06 1.06 0 0 0 -.64 1.52 4.59 4.59 0 0 0 1.26 1.65 6.74 6.74 0 0 0 3.33 1.11zm105.15 47.39a5.23 5.23 0 0 0 2.17 2c1.7.73 3.39 1.5 5.12 2.15a24.05 24.05 0 0 0 4.12 1.23c2.1.38 4.24.56 6.36.79a8 8 0 0 0 1.29 0c-6.66-1.14-13.1-2.79-19.03-6.17zm28.97-36.72c-.09-.12-.17-.32-.32-.41-.83-.54-1.65-1.07-2.5-1.56-2-1.15-4.3-1-6.51-1a23.12 23.12 0 0 0 -3.76.58c-.19 0-.34.23-.58.41a25.16 25.16 0 0 1 7 .35c2.25.45 4.42 1.08 6.67 1.63zm-119.21 17.67c-2 2.25.11 7.53 3.17 8 .13-.51-.37-.68-.55-1a15.47 15.47 0 0 1 -1.25-2.38c-.41-1.2-.6-2.46-.92-3.69a4.25 4.25 0 0 0 -.45-.93zm68.42-17.77c1.87-.64 3.74-1.26 5.6-1.92 1.52-.53 3-1.12 4.54-1.63 3.13-1.06 6.27-2.08 9.41-3.1.36-.12.68-.22.81-.73l-4.63 1.53c-2.63.85-5.23 1.8-7.89 2.53a33.23 33.23 0 0 0 -7.84 3.32zm37.31 15.27-.31-.21a3.65 3.65 0 0 0 -.63.61 13.8 13.8 0 0 0 -.79 1.53 4.82 4.82 0 0 0 .21 4.72 3.45 3.45 0 0 0 3.19 1.67 7.39 7.39 0 0 1 -2.36-3.94 4.55 4.55 0 0 1 .69-4.38zm-117.6 7.23c1.13-3.68.54-8.93-1.2-10.5.09.81.14 1.5.24 2.19a20.78 20.78 0 0 1 .41 5.28 5.18 5.18 0 0 0 .55 3.03zm-25.77-2.71a5.13 5.13 0 0 0 2.79 6.92 2.2 2.2 0 0 0 .77 0c0-.26 0-.59-.14-.77-.69-.87-1.42-1.71-2.17-2.53a3.89 3.89 0 0 1 -1.18-3.25 1.7 1.7 0 0 0 -.07-.37zm42.38.49a7.28 7.28 0 0 0 .72 1.68c.93 1.14 1 1.6.09 2.79-.25.32-.43.59-.09.94a2.81 2.81 0 0 0 2.23-3.16 2.88 2.88 0 0 0 -2.9-2.25zm87.82 16c-2.58-2.53-4.75-5.1-5.78-8.7-.82 3.23 2.78 8 5.78 8.68zm-3.27-27.5a17.59 17.59 0 0 0 -2.41 4.47c-.49 1.53-1 3-1.46 4.59a14.63 14.63 0 0 0 -.08 4.83 19.34 19.34 0 0 1 .87-5.13c1.14-2.8 2.02-5.71 3.08-8.76zm-121.1 8.3c-1.7-.49-2.76.43-3.71 1.51a2.34 2.34 0 0 0 -.38 2.79 3.16 3.16 0 0 0 1.63-2.13 3.59 3.59 0 0 1 1.06-1.25 10.12 10.12 0 0 1 1.4-.92zm-.35 9.42a4 4 0 0 0 3.08-2.5l-1.86-.33-2 1.4c.32.52.56.98.78 1.43zm34.28-6.76.41.07c.2-.37.6-.77.56-1.11a12.24 12.24 0 0 0 -1-3.72c-.33.47-.76.81-.72 1.07.17 1.24.48 2.46.75 3.69zm-34.72 1.49v.42a12.07 12.07 0 0 0 4.47 1c.11-.62-.09-.84-.54-.94-.8-.18-1.58-.45-2.39-.57a6.54 6.54 0 0 0 -1.54.09zm133.87-51.57a9.81 9.81 0 0 0 -4.27 2.25 9.63 9.63 0 0 0 4.27-2.25zm-45.56 41.73h-.15a9.71 9.71 0 0 0 .16 1.32c.26 1 .53 1.89-.44 2.62.43.52.78.24 1.26.05-.28-1.32-.56-2.65-.83-3.99zm-109.37 19.77.22-.14-1.32-2.12-.23.14a4.25 4.25 0 0 0 1.33 2.12zm25.12-12-1.2.85.1.24 1.24.2c-.05-.45-.08-.79-.14-1.34zm85.29-2c-.59-.11-1 0-.9.57s.46.55 1 .46c-.06-.38-.06-.71-.06-1.03zm33.91-10.85.3.23 1.22-1.54-.27-.21zm-122.67 12.74c.62.15.62.15 1.26-.62zm16.61-12.23-.09-.25-1.24.43c.71.56.96 0 1.33-.18zm-18.59 16.18v.35a.84.84 0 0 0 1.22-.15zm49.09-.39.07.26 1.18-.2v-.28a2.05 2.05 0 0 0 -1.25.24zm41.14-2.7.55 1.28c.13-.46.21-.93-.55-1.26z"/></g></svg>