<svg height="161.35" viewBox="0 0 300.74 161.35" width="300.74" xmlns="http://www.w3.org/2000/svg"><g fill="#576a75" stroke="#576a75" stroke-miterlimit="10" stroke-width=".4"><path d="m53.84 74.89-.7-.88a8.36 8.36 0 0 1 -1-1.63 4.56 4.56 0 0 1 0-3.95 2.09 2.09 0 0 1 1.11-1.19c.28-.11.39-.38.58-.56s.36-.42.56-.61.34-.29.49 0a.22.22 0 0 0 .34.11 5.16 5.16 0 0 1 2.59-.5h2.5a8.07 8.07 0 0 1 2.69.72 2.49 2.49 0 0 0 1.13.26 2.56 2.56 0 0 1 .95.15 4.43 4.43 0 0 0 2.92 0 .85.85 0 0 1 .73 0c.18.1.41 0 .61 0l1.66-.48a2.7 2.7 0 0 1 .41-.08.31.31 0 0 1 .36.13.36.36 0 0 1 -.09.44 2.69 2.69 0 0 1 -1 .65 8.6 8.6 0 0 1 -2.46.39 11.45 11.45 0 0 0 -1.3.13 5 5 0 0 1 -2.45-.3c-.7-.23-1.4-.46-2.09-.71a.59.59 0 0 0 -.64 0 .68.68 0 0 1 -1 0c-.16-.15-.29-.06-.44 0s-.44.16-.56-.16c-.06-.15-.18-.1-.29 0s-.23.32-.48.19c-.05-.31.37-.39.36-.75a10.41 10.41 0 0 0 -3.15.18 4.7 4.7 0 0 1 -1.48.3.4.4 0 0 0 -.42.29c-.09.2.05.3.17.4s.36.28.53.44a4.72 4.72 0 0 1 1.59 2.05 1.47 1.47 0 0 0 .24.42 15.68 15.68 0 0 1 1.53 2.78c.28.61.57 1.22.83 1.83a5.79 5.79 0 0 0 2.15 2.57c.49.33 1 .7 1.43 1.08a4.63 4.63 0 0 1 1.82 3.65v1.6c0 .28 0 .56.3.77s.09.5.22.76c.34.65.63 1.33.92 2a29.82 29.82 0 0 1 2.28 6.62 17.42 17.42 0 0 1 .33 3 14.28 14.28 0 0 0 .9 4.8c.45 1.26.77 2.57 1.34 3.78l.24.47a1.41 1.41 0 0 0 0-.87c-.27-1.15-.56-2.29-.83-3.43-.07-.27-.11-.54-.16-.82 0-.07 0-.12.1-.16a.13.13 0 0 1 .17.07 3.49 3.49 0 0 1 .2.44 21.9 21.9 0 0 1 1.44 4.9c.07.5.28.57.69.27a3.19 3.19 0 0 0 .65-.72c.33-.47.64-1 1-1.43a6.37 6.37 0 0 1 3.37-2.53.84.84 0 0 1 .66 0c.44.21.68 0 .7-.45a8.52 8.52 0 0 0 -.14-2.2 33.79 33.79 0 0 1 -.63-7.37 38.62 38.62 0 0 0 -2-11.53c-.91-2.79-1.83-5.57-2.5-8.43a20.24 20.24 0 0 1 -.63-5.48 1.4 1.4 0 0 0 0-.41c-.06-.23-.2-.3-.41-.15s-.14.12-.21.18c-.3.27-.29.26-.66 0-.1-.07-.28 0-.35-.2.21-.22.51-.22.75-.33a1.49 1.49 0 0 0 1-1.49.9.9 0 0 1 .76-1 5.64 5.64 0 0 0 1.14-.48 7.4 7.4 0 0 1 4-.68c1.8.14 3.57.43 5.36.68 1.14.15 2.29.24 3.44.36a8.15 8.15 0 0 1 3 .84 2.18 2.18 0 0 0 1.73.19 6.55 6.55 0 0 1 3.62-.06 5.32 5.32 0 0 0 2.8 0 8.48 8.48 0 0 1 2.75-.18 23.57 23.57 0 0 0 7-.41 12.72 12.72 0 0 1 3-.35 4.27 4.27 0 0 1 2.61.78c.39.3.91 0 1.3.36.09.08.2-.09.28-.16l.71-.65a.67.67 0 0 1 .93-.12 1.88 1.88 0 0 0 1.54.06 24.2 24.2 0 0 1 5.55-.72 33.06 33.06 0 0 1 6.21.38 80.11 80.11 0 0 0 16 1c2.17-.1 4.33-.2 6.5-.32a43.66 43.66 0 0 1 7.05.2 2.92 2.92 0 0 1 1.66.7c.06-.05.09-.06.09-.08-.05-1.11.74-1.49 1.59-1.77a6 6 0 0 1 2.47-.18c2.43.24 4.86.55 7.3.69a37.13 37.13 0 0 0 4.22 0c2.21-.12 4.43-.08 6.65 0h4.78a65.41 65.41 0 0 0 6.55-.51 23.56 23.56 0 0 1 6.55.07 10.71 10.71 0 0 1 3.44 1.22 3.77 3.77 0 0 1 1.79 1.86c.07.19.15.32.4.26 1.54-.37 3 .1 4.52.32.68.11 1.36.28 2 .45a9.73 9.73 0 0 0 5.73-.19l2.61-.92a8.69 8.69 0 0 1 1.75-.39 6.61 6.61 0 0 1 2.57.46c.24.06.22.37.49.45s.59-.2.61.22c0 .2-.17.42-.26.63l-.11.3c.43.06.54.37.63.73a11.22 11.22 0 0 1 -.12 5.61c-.12.47-.26.93-.42 1.39s-.1.53.26.63a8.17 8.17 0 0 1 2.35 1.29 18.45 18.45 0 0 0 2.36 1.13c1.35.66 2.65 1.41 3.94 2.17a17.52 17.52 0 0 1 2.57 2.07 7.05 7.05 0 0 1 1.44 2.29c.44-.1.5-.66.94-.78a2.64 2.64 0 0 1 -.95 1.7.39.39 0 0 0 -.24.43 25 25 0 0 1 -.26 3.86 7.11 7.11 0 0 0 .86-3.68c.29 0 .25.21.27.35a6.79 6.79 0 0 1 -.3 2.53c-.13.44-.28.88-.45 1.3a56.66 56.66 0 0 0 -3 10.3c-.89 4.22-1.5 8.49-2 12.78-.4 3.69-.93 7.37-1.45 11.05a79.62 79.62 0 0 0 -.72 9.52c-.07 2.6-.2 5.21-.25 7.82a47.35 47.35 0 0 0 .24 5.32 2.28 2.28 0 0 0 .67 1.46c.3.29.29.46-.05.63s-.54.49-.89.11c0 0-.08 0-.13 0-1.87 0-3.72-.38-5.6-.32-.57 0-1.14.11-1.72.16-2 .17-4 .25-5.94.31-11.49.34-23 .25-34.48.21-2.15 0-4.29-.05-6.44-.07a4.16 4.16 0 0 0 -1.1.09c-.33.08-.69-.12-1.06-.12-1.41 0-2.82 0-4.23 0h-8.45c-4.2 0-8.39.11-12.59 0-1.92-.06-3.83-.08-5.75-.09-10.54-.07-21.08-.16-31.63-.16-2.12 0-4.24 0-6.36 0-5.45-.09-10.89 0-16.34-.06-3.51 0-7 0-10.53 0s-7-.18-10.45-.32c-2.12-.09-4.24-.2-6.36-.15-.36 0-.73 0-1 .37-.11.21-.38.13-.58.13-.9 0-1.8 0-2.69 0-1.53 0-3 .19-4.57.17-1.71 0-3.41-.06-5.12-.09h-.14c-.28 0-.49-.15-.49-.48a.4.4 0 0 1 .42-.45c.42 0 .46-.26.46-.6 0-2.67 0-5.35.16-8 .23-5.9.22-11.81.36-17.72a55.37 55.37 0 0 0 -1.14-12.38c-.3-1.51-.58-3-.87-4.55a.75.75 0 0 1 0-.2 3 3 0 0 0 -.6-2c-1-2-2.06-3.92-2.95-5.94a25.24 25.24 0 0 1 -1.98-6.97c-.07-.62-.1-1.25-.15-1.87a1.89 1.89 0 0 0 -.15-.87.55.55 0 0 1 0-.47l.36-1.19c0-.14.14-.3.1-.4-.26-.65.21-1 .52-1.47a1.33 1.33 0 0 1 .33-.34 21.75 21.75 0 0 0 2.84-3c.9-.93 1.69-1.95 2.63-2.85a13.64 13.64 0 0 1 3.83-2.65zm131.44 60c-.21-.12-.29-.39-.6-.39-.76 0-1.52 0-2.28-.07-.25 0-.31.11-.31.33s.12.41.41.42l2.49.09c.34 0 .28-.2.27-.41a1.15 1.15 0 0 0 1.18.49c.19 0 .38 0 .37-.28s0-.46-.35-.47h-1c-.21 0-.2.15-.18.33zm13.72.11c0 .39-.43.64-.34 1.09h.76s.5.08.6-.2a2.32 2.32 0 0 0 .1-1.08c0-.09-.13-.1-.22-.12a1.13 1.13 0 0 0 -.92.34c0-.26-.09-.32-.32-.31-.62 0-1.24 0-1.86.05s-.76.05-.71.79v.2c0 .27.14.37.39.37h1.38a.62.62 0 0 0 .63-.42c.12-.31.2-.62.51-.71zm-46.19 9.82c-.07.39-.17.77-.2 1.15s-.4.88 0 1.13.81 0 1.22 0c.23 0 .32-.13.32-.35 0-.73 0-1.47 0-2.2 0-.12 0-.28-.13-.29a4.49 4.49 0 0 0 -.82 0c-.22 0-.29.19-.35.36 0-.15 0-.34-.23-.36s-.21.13-.22.28v.2a1.34 1.34 0 0 0 0-.2c0-.14-.06-.28-.23-.28s-.56 0-.83 0-.19.12-.18.25a10.68 10.68 0 0 0 .42 2.31c0 .13.12.26.29.26s.27-.15.31-.31a5.89 5.89 0 0 0 .26-1 2 2 0 0 1 .36-1zm26.74-2.84a15.47 15.47 0 0 0 -.2 2.48 4.38 4.38 0 0 0 .2-2.48.37.37 0 0 0 -.44-.32c-.44 0-.87.08-1.31.09s-.42.18-.4.48c0 .5.06 1 .09 1.51s0 .64.66.65c.94 0 .92 0 1.08-1a3.57 3.57 0 0 1 .31-1.46zm-35.1-2c-.05.2-.07.4-.13.6-.16.55-.32 1.1-.49 1.66s-.12.49.39.49h.21c.32 0 .46-.13.43-.46 0-.67-.07-1.33-.12-2 0-.19.07-.41-.12-.57l-.19.3c0-.56 0-.57-.45-.56-.67 0-1.33.07-2 .08-.34 0-.49.1-.48.48 0 .57.07 1.14.14 1.71.16 1.31.15 1 1.2 1a.65.65 0 0 0 .75-.53c.25-.75.56-1.49.85-2.24zm-29.45 5.87a5.75 5.75 0 0 1 -.35-1.54c0-.23-.11-.37-.38-.38l-2.21-.11c-.29 0-.41.09-.4.39v1.93c0 .11 0 .24.15.27s.06-.3.24-.38c.17.12 0 .47.34.48.87 0 1.73.09 2.59.13a2.57 2.57 0 0 0 0-.81c.25.12.12.49.47.64 0-.72 0-1.39 0-2.07 0-.22 0-.43-.31-.43s-.27.24-.27.44a13.75 13.75 0 0 1 .13 1.44zm-47.65-9.54a4.88 4.88 0 0 1 .12-.75c.11-.4.07-.48-.36-.57-.77-.15-1.52-.36-2.28-.56-.48-.12-.7 0-.73.53a3 3 0 0 0 0 .42 50.4 50.4 0 0 0 1.05 7.73c0 .18.08.31.3.3s.26-.15.28-.33c0-.46.08-.92.15-1.38a3.62 3.62 0 0 1 .43-1.57c0 .22-.09.44-.15.67a11.51 11.51 0 0 0 -.28 2.11c0 .32.1.46.43.46s1 0 1.45 0 .49 0 .45-.47c-.08-.93-.18-1.87-.27-2.81 0-.17 0-.32-.26-.35s-.07-.06 0-.07.2-.15.19-.31 0-.5-.07-.75l-.18-2.13c.03-.14.03-.35-.23-.17zm154.83-54.52a1.27 1.27 0 0 1 -.36.65c-.92 1.21-1.82 2.4-2.82 3.56a2.62 2.62 0 0 0 -.57 1.08c-.55 2.1-1.1 4.19-1.66 6.29a20.55 20.55 0 0 1 -1.77 4.63 3.38 3.38 0 0 0 -.37 1.11 19.33 19.33 0 0 1 -.59 2.56.46.46 0 0 0 0 .5c.22-.49.43-.9.61-1.32a53.69 53.69 0 0 0 1.9-5 60.33 60.33 0 0 1 6.67-14.33 41 41 0 0 0 2.52-4.52 1.71 1.71 0 0 0 .25-.85 12.67 12.67 0 0 0 -1.81 2.47 8.3 8.3 0 0 1 -1.67 2.85 2.14 2.14 0 0 1 .39-.73 11.16 11.16 0 0 0 1.1-2.25 23.55 23.55 0 0 0 -3.72 3.88 8.53 8.53 0 0 0 -1.38 2.92c0 .14-.16.28 0 .49a49.8 49.8 0 0 1 3.28-3.99zm-123.07 52.07c.1.35-.23.66-.08 1a.74.74 0 0 0 .39.08l10.51.21c1.15 0 1 0 1-.95v-.34c0-.77.07-.75-.75-.75h-.28c-3 0-6.09 0-9.13-.11-.74 0-1.36 0-1.62.84 0-.3.29-.52.21-.83a2.2 2.2 0 0 0 -.71-.06l-11.14-.23c-1.6 0-1.39-.26-1.23 1.38a.15.15 0 0 1 0 .07c0 .18.1.32.3.3.74-.07 1.49.34 2.22-.05.1-.06.1 0 .13.07.12.21.33.13.49.13 2.84.1 5.68.18 8.51.26.8 0 .8 0 1.06-.77.01-.05.01-.18.12-.25zm-34.74-17.5a.81.81 0 0 1 .63-.36 3.66 3.66 0 0 1 1.58 0 3.71 3.71 0 0 0 1.37 0 6.06 6.06 0 0 1 2.81 0 19.6 19.6 0 0 0 3.5.44c2.79.14 5.58.1 8.38.11h.76c2.34-.25 4.68-.42 7-.46s4.89.14 7.33.23c3.88.13 7.76.06 11.63 0 4.94-.11 9.88-.16 14.82-.1 2.24 0 4.47.23 6.71.09 2.44-.14 4.89-.25 7.33-.24a8 8 0 0 1 4.65 1c0-.49 0-.9 0-1.32 0-.18-.11-.34-.1-.53a7.31 7.31 0 0 0 -1.28-4.84c-.58-.84-1.24-1.61-1.89-2.39-.47-.57-.94-1.14-1.4-1.72-.17-.21-.38-.43-.11-.72.12-.14 0-.27-.11-.33a2.36 2.36 0 0 0 -1.05-.26c-2 .09-4.06.13-6.09.1l-6.93-.07a11.44 11.44 0 0 1 -2.33-.23 2 2 0 0 0 -1.23 0 .64.64 0 0 1 -.71-.08 1.74 1.74 0 0 0 -1-.33c-.22 0-.51 0-.62-.23-.34-.66-1.14-.95-1.35-1.73a6.32 6.32 0 0 0 -.4 1.06.84.84 0 0 1 -.87.65 16.14 16.14 0 0 1 -2.69-.09c-1.37-.19-2.71-.53-4.07-.81a15 15 0 0 0 -5.29-.36 26.48 26.48 0 0 0 -3.51.77 53.66 53.66 0 0 1 -6.63 1.69 19.17 19.17 0 0 1 -5 .44 36.66 36.66 0 0 0 -4.57-.09c-.46 0-.92 0-1.38 0a5.56 5.56 0 0 1 -1.75-.39 1.91 1.91 0 0 1 -1.34-1.69 1.35 1.35 0 0 0 -.15-.66 3.47 3.47 0 0 0 -.72.71 16 16 0 0 1 -2.5 2.3c-.6.43-.65.43-1.25 0-.26.32-.52.64-.79.95a1.87 1.87 0 0 1 -1.4.66h-.36c-.16 0-.26.08-.22.26s.1.33-.12.4-.28-.09-.39-.22-.25-.43-.57-.54a4.16 4.16 0 0 0 -1.1-.19 1.08 1.08 0 0 0 -1.14.7c-.17.33-.28.68-.45 1a25.82 25.82 0 0 1 -1.6 2.67 16.17 16.17 0 0 0 -1.57 3 5.18 5.18 0 0 0 -.45 1.86 2.26 2.26 0 0 0 -.66 1.65c-.05.81-.11 1.61-.17 2.42v.47c-.42.48-.22 1-.17 1.51.07.74.16 1.47.2 2.21.11 1.7-.09 3.41-.05 5.12a4.84 4.84 0 0 0 .28 1.41.48.48 0 0 0 .38.36 1.87 1.87 0 0 0 .81.1 9.4 9.4 0 0 1 2.9-.09 5.29 5.29 0 0 0 .89 0 68.13 68.13 0 0 1 6.84-.47c1.89 0 3.78.06 5.67.14 4.51.19 9-.13 13.5-.32a99.74 99.74 0 0 1 12.58.42c2.28.19 4.55.43 6.84.45h9.35c.78 0 1.56 0 2.35.09 1.15.06 2.28.33 3.44.3l11.56-.27c.91 0 .83 0 .85-.79 0-.1 0-.23.16-.28v.63s.14.4.42.4.49-.07.48-.42c0-.6 0-1.2 0-1.8 0-.14 0-.29-.13-.36s-.23-.38-.22-.61c0-.76.06-1.52.11-2.28a14.17 14.17 0 0 0 .18-2.83c-.17-1.42-.29-2.85-.53-4.26a3.23 3.23 0 0 0 -.23-1c-.27 0-.36.27-.64.21.2-.45.69-.6.94-1a2.46 2.46 0 0 0 -2.1-.69 9.31 9.31 0 0 0 -2 .38 5.18 5.18 0 0 1 -2 .19c-.9-.08-1.79-.2-2.69-.28a45.81 45.81 0 0 0 -5.1-.34c-1.8 0-3.6.13-5.4.18l-16.27.46c-2.83.08-5.67 0-8.51.15a52.47 52.47 0 0 1 -5.61.07c-2.12-.12-4.22-.41-6.34-.51a31.13 31.13 0 0 0 -8.4.56 3.56 3.56 0 0 1 -2.45-.11 6.19 6.19 0 0 0 -3.65-.46 6.78 6.78 0 0 1 -3-.27 3.45 3.45 0 0 0 -1.61-.36.32.32 0 0 1 -.19 0 2.86 2.86 0 0 0 -2.63-.19zm17.74-20.21a9.62 9.62 0 0 1 -1.44.8.65.65 0 0 0 -.41.81 21 21 0 0 1 .3 4.41v.66c.29-.08.35-.3.47-.45l1.55-2a1 1 0 0 1 .58-.45l-.81 1a15.06 15.06 0 0 0 -1.28 1.8c-.36.58-.23.87.42 1a3.09 3.09 0 0 0 1 .13c.12 0 .33-.16.37-.12.39.4.87.13 1.29.18a1.69 1.69 0 0 0 1.8-.73s.07 0 .11 0c0 .23-.31.32-.32.64a20.2 20.2 0 0 1 2.32-1.49 20 20 0 0 0 -1.71 1.41c0 .15.12.14.18.14a27.51 27.51 0 0 0 9.17-.89c1.63-.42 3.24-.89 4.86-1.36a13.43 13.43 0 0 1 6.63-.32c1.24.26 2.47.56 3.71.83.47.1.45.09.57-.36a5.1 5.1 0 0 1 2.3-3 7 7 0 0 0 -1.78 2.46 18 18 0 0 0 2.01-2.25c.06-.09.14-.19.08-.31a3.08 3.08 0 0 1 .31-.46 4.13 4.13 0 0 0 .9-1.84 3.06 3.06 0 0 0 -.24-1.75 2.66 2.66 0 0 0 -.39.72 11.88 11.88 0 0 1 -2.34 3.32 7.8 7.8 0 0 1 -1.85 1.32c-.1 0-.22.09-.31 0a.23.23 0 0 1 0-.26c.18-.34.35-.7.55-1a11 11 0 0 1 2.17-2.4c.37-.34.63-.81 1.12-1a.48.48 0 0 1 -.07.18c-.71.76-1.34 1.58-2.09 2.3a3.43 3.43 0 0 0 -1.06 1.49h.18a10.13 10.13 0 0 0 3.09-3.57c.09-.15 0-.25-.06-.37a6 6 0 0 0 .42-.46 2.68 2.68 0 0 0 .67-1.56c0-1.45 0-2.9 0-4.36a15.08 15.08 0 0 0 -1-6.16 4.2 4.2 0 0 1 -.29-1.21 38.68 38.68 0 0 1 -.25-5.59 52 52 0 0 1 .89-7.14c.17-1.09.31-2.19.45-3.29 0-.16.1-.44-.13-.47-.47-.05-.66-.35-.82-.73-.08-.16-.29-.22-.46-.3a4.51 4.51 0 0 0 -2.09-.33 29.67 29.67 0 0 0 -3.63.53 18.72 18.72 0 0 1 -5.44.24 8.48 8.48 0 0 0 -3.36.17 5.41 5.41 0 0 1 -2.74 0 6.35 6.35 0 0 0 -3.21 0c-.27.07-.55.08-.82.15a1.79 1.79 0 0 1 -1.52-.27 3.94 3.94 0 0 0 -1.34-.59c-1.88-.36-3.79-.49-5.67-.84a32.11 32.11 0 0 0 -5.08-.57 6.22 6.22 0 0 0 -3.69.91.92.92 0 0 0 -.54 1 47.1 47.1 0 0 0 .9 6.58c.75 3 1.7 6 2.63 9a37.69 37.69 0 0 1 1.64 7.42c.21 2.09.32 4.18.37 6.28v.72c.27 0 .23-.35.59-.28-.45.32-.21.79-.39 1.16a1.81 1.81 0 0 0 .09 1.52c1.21-1 2.58-1.79 3.36-3.2a2.07 2.07 0 0 1 -.53 1c-.24.28-.5.54-.77.8s-.55.48-.82.72c.31.03.49-.1.7-.07zm62.89 3.64c0-.14.19-.27 0-.48a8.46 8.46 0 0 0 -2 1.87 2.43 2.43 0 0 0 1-.44c0 .17.13.17.25.13a4.65 4.65 0 0 0 .52-.2c.28-.11.37 0 .38.28s-.2.56-.1.85a.38.38 0 0 0 .33-.12l1-.84c.41-.34.42-.33.57.2 0 0 .07 0 .12.06a6.74 6.74 0 0 1 2.89-.89v.21c-.36.16-.65.47-1.14.36-.32-.06-.63.25-.95.37-.6.22-1.09.81-1.83.59 0 0-.09 0-.12.06a10.3 10.3 0 0 0 -1.22 1c.15.18.32.13.48.14 1.29 0 2.58.17 3.86.3s2.71.32 4.07.34c.2 0 .43.11.58-.09a15.14 15.14 0 0 1 2.17-1.92c.11-.1.24-.17.29-.36a2.1 2.1 0 0 0 -.82.31c-.41.22-.8.46-1.2.69-.1.06-.23.12-.31 0s0-.21.07-.3a2.74 2.74 0 0 0 .58-.8 4.18 4.18 0 0 1 -1.39.41 8.62 8.62 0 0 0 -3.29 1c-.08 0-.2.14-.28 0a1 1 0 0 1 .13-.16c.69-.6 1.63-.63 2.4-1 .26-.14.32.14.52.11a4.44 4.44 0 0 0 2.13-.75c.49-.38 1-.74 1.51-1.1.12-.08.24-.24.46-.07a8.43 8.43 0 0 0 -1.53 1.68 9.17 9.17 0 0 1 1.51-.49c.17 0 .39-.13.49.09s-.11.28-.22.39l-1.11 1 .08.1 2.48-1.63c.26.35 0 .67.11 1 .89-.61 1.65-1.29 2.58-1.85.1.42-.34.58-.27.93.46-.37.69-.89 1.14-1.21a9.43 9.43 0 0 1 -3.06 3.69c.54-.05 1-.16 1.56-.25a1.7 1.7 0 0 0 1.37-1.22 5.72 5.72 0 0 0 .17-.59 9.49 9.49 0 0 0 .04-3.19c-.2-1.63-.63-3.21-1-4.81a41.25 41.25 0 0 1 -1.06-10.09c.09-3.37.34-6.73.62-10.09a30.16 30.16 0 0 1 .74-4.71 7.29 7.29 0 0 0 .2-2.33c0-.88-.28-1.13-1.14-1.26a26.65 26.65 0 0 0 -3.45-.23c-3.44-.08-6.87.17-10.31.3a65 65 0 0 1 -10.71-.43c-2.65-.32-5.28-.85-8-1.08a24.65 24.65 0 0 0 -7.57.29 3.91 3.91 0 0 1 -2.91-.15.44.44 0 0 0 -.62.1c-.33.52-1 .66-1.25 1.33-.17.5-.32.49 0 1a3.83 3.83 0 0 1 .57 1.55 6.59 6.59 0 0 1 0 1.66 19.82 19.82 0 0 0 .07 4.62 69.53 69.53 0 0 1 .36 8.16c0 2.61-.21 5.21 0 7.82 0 .16-.06.37.14.49.26-.13.24-.48.51-.6a.33.33 0 0 1 -.1.32 2.85 2.85 0 0 0 -.37 2.06 39.29 39.29 0 0 1 .3 6.42 8.74 8.74 0 0 0 .36 3.08 2.16 2.16 0 0 0 1.37 1.53c.13 0 .29.08.35.21.29.64.81.63 1.38.53a4.8 4.8 0 0 1 1.31 0 24.63 24.63 0 0 0 3 .16c2.06 0 4.11 0 6.16-.09 1.78 0 3.56 0 5.33-.14a1.1 1.1 0 0 0 .53-.11c.7-.45 1.45-.8 2.11-1.32l2-1.53c.14-.1.25-.27.56-.21l-2.75 2.31a23.43 23.43 0 0 0 2.55-.72 2.35 2.35 0 0 0 1.19-.77 9 9 0 0 1 1.93-1.77 2.67 2.67 0 0 1 1.09-.5 1.23 1.23 0 0 1 -.49.79zm45.2 2.24a1.28 1.28 0 0 1 1 .12 1.65 1.65 0 0 0 1 .16 7.32 7.32 0 0 0 2.89-1.1 2.52 2.52 0 0 0 1-.89 2.45 2.45 0 0 1 1-.93 3.84 3.84 0 0 0 1.91-2.23 6.32 6.32 0 0 0 .16-4 4.11 4.11 0 0 1 -.16-1.16 2.85 2.85 0 0 0 -.21-1.08c-.17-.49-.32-1-.48-1.49a.57.57 0 0 1 .28.36c.1.36.23.56.65.33a.57.57 0 0 1 .52 0c.28.17.24 0 .26-.2a6.87 6.87 0 0 0 -.22-1.43 8.92 8.92 0 0 1 -.14-2.63 18.23 18.23 0 0 0 1.34 5.62c-.42-.21-.43-.71-.84-1.06.1 1.52 0 2.93 0 4.33a2 2 0 0 0 .27 1 .53.53 0 0 1 .13.31 4.8 4.8 0 0 1 -.75 3c-.69.84-1.27 1.76-2 2.59-.49.58-.84 1.25-1.38 1.81a3 3 0 0 0 2.63-1.63 13.64 13.64 0 0 0 .8-1.84 46.09 46.09 0 0 0 2.48-10.48c.61-4.5 1.13-9 1.7-13.52a12.3 12.3 0 0 1 .93-3.89 6.73 6.73 0 0 0 .77-3.73.07.07 0 0 1 0-.06h.06v1.42a.22.22 0 0 0 .23-.18 10.3 10.3 0 0 0 .61-2.12 2.51 2.51 0 0 0 -1.14-2.69 9 9 0 0 0 -3.45-1.37 17.82 17.82 0 0 0 -5.92.06 50.33 50.33 0 0 1 -7.66.55c-3.6-.06-7.2-.06-10.8.06a55.65 55.65 0 0 1 -8.36-.37c-1.47-.18-2.93-.33-4.4-.49a3.5 3.5 0 0 0 -1.37.12c-.45.13-.5.21-.49.69s.05 1.15.06 1.73c0 3.35-.21 6.69-.32 10a67.58 67.58 0 0 0 .28 8.3c.19 2 .4 4.09.51 6.14s0 4.11 0 6.16a17.16 17.16 0 0 0 .2 3.79c.41 1.9 1.4 2.57 3.09 2.47a36.26 36.26 0 0 1 6.83.45 2.48 2.48 0 0 0 1.15-.09 11.92 11.92 0 0 1 3.13-.52 21.53 21.53 0 0 1 6 .74 4.44 4.44 0 0 0 2 .18 2.91 2.91 0 0 1 1.75.21l.9.36a3.38 3.38 0 0 0 1.84 0 .92.92 0 0 0 .39-.27.62.62 0 0 0 -.25-1.1c-.07-.16-.33-.17-.44-.54zm21.65 4.22a5.81 5.81 0 0 0 -1.12.44 2.83 2.83 0 0 1 -2.39.34 16.24 16.24 0 0 1 -4.54-1.64 1.1 1.1 0 0 0 -1-.17c-.49.18-.68 0-.94-.43a.85.85 0 0 0 -.63-.49l-.6-.14c-.15 0-.26-.1-.28-.26a.8.8 0 0 1 1.09-.88 12.61 12.61 0 0 1 1.63.75 20.47 20.47 0 0 0 5.12 2c.57.14 1.1.29 1.54-.27.05-.06.15-.09.23-.15a3 3 0 0 0 1.04-1.35 13.39 13.39 0 0 0 .73-2.16 35.36 35.36 0 0 0 .54-3.55 22.86 22.86 0 0 1 2.05-7.51c.63-1.33 1.33-2.63 2-3.93.57-1 1.2-2.07 1.69-3.17.18-.39.32-.79.54-1.18a18.19 18.19 0 0 1 3-4 9.34 9.34 0 0 0 2.49-4.63 13.73 13.73 0 0 1 1.74-4.27c.59-1 1.11-1.93 1.65-2.89.07-.13.26-.34.11-.42-.31-.16-.47-.49-.82-.61a3.89 3.89 0 0 0 -2.11-.13 17.21 17.21 0 0 0 -2.64.83c-.81.32-1.62.65-2.45 1a8 8 0 0 1 -4.89.26c-1.65-.45-3.36-.62-5-.91a2.47 2.47 0 0 0 -1.29.1c-.24.08-.47.18-.5.5a12.5 12.5 0 0 1 -1.15 3.76 19.46 19.46 0 0 0 -1.2 4.25c-.48 2.75-.66 5.54-.94 8.31-.32 3.08-.6 6.16-1.14 9.2a37.19 37.19 0 0 1 -2.6 9 9.67 9.67 0 0 1 -.79 1.45 3.52 3.52 0 0 1 -2.23 1.53 9.36 9.36 0 0 1 -1.5.23c-1.13.06-2.26.09-3.39.2-2.27.21-4.55.37-6.83.44a56.71 56.71 0 0 1 -10.33-.85 63.55 63.55 0 0 0 -8.81-.91 4.83 4.83 0 0 1 -1.75-.38c-.41-.16-.72-.67-1.11-.62s-.7.49-1.07.71a10.3 10.3 0 0 1 -3.76 1.12 36.55 36.55 0 0 1 -9.52 0 32.91 32.91 0 0 0 -7.87-.21c-.92.11-1.84.18-2.75.27-.44.05-.49.15-.21.51a4.64 4.64 0 0 0 .72.75 8.23 8.23 0 0 1 1.49 1.63 10.74 10.74 0 0 1 2.36 6.35c0 .79.11 1.57 0 2.35a.43.43 0 0 0 .15.43 13.18 13.18 0 0 1 1.83-.65 20 20 0 0 1 6.27-.34c1.88.11 3.77.32 5.66.33s3.69.06 5.54.09c2.31 0 4.61.18 6.92.13 2.47 0 4.94-.13 7.4-.15a117.94 117.94 0 0 0 12-.65 99.46 99.46 0 0 1 11.18-.61 10.09 10.09 0 0 1 4.06.74 9.87 9.87 0 0 0 5.95.66 12.93 12.93 0 0 1 4.21-.1 2.06 2.06 0 0 0 .82 0 8.11 8.11 0 0 1 4.37.15 25.38 25.38 0 0 0 2.77.45 1.1 1.1 0 0 0 -.29-1 7.43 7.43 0 0 0 -1.3-1.44c-1.62-1.32-2.91-3-4.68-4.16-.46-.31-.86-.7-1.3-1a11.42 11.42 0 0 1 -2.12-1.87 1.25 1.25 0 0 0 -.66-.48.6.6 0 0 1 -.42-.7zm-68.19 11a.91.91 0 0 1 .2.82 30 30 0 0 0 0 4.83c.07.83 0 1.66 0 2.49a30.13 30.13 0 0 1 0 6.08c0 .24.08.4.3.29a2.23 2.23 0 0 1 1-.11 20.54 20.54 0 0 0 2.21-.1 22.94 22.94 0 0 1 4.9-.13 17.23 17.23 0 0 0 3.73 0c1-.12 2-.22 3-.32a83.29 83.29 0 0 1 8.51-.19c2.33 0 4.66 0 7-.15 3-.18 6-.55 9-.69 2.82-.14 5.63-.13 8.44 0 2.43.11 4.85.23 7.27.31s4.93-.1 7.4-.13c1.43 0 2.86-.09 4.29 0 2.27.08 4.51.38 6.76.56a16.84 16.84 0 0 0 2.84.06c.2 0 .45 0 .57-.18a.88.88 0 0 1 .88-.41c.3 0 .41-.17.41-.44s0-.28 0-.42c.12-2.23.3-4.46.51-6.69a18.54 18.54 0 0 0 .19-2.47c-.67 0-.76 0-.74-.66a11.36 11.36 0 0 1 .29-1.63c.06-.27 0-.43-.3-.48a18.53 18.53 0 0 0 -3.56-.52 15.5 15.5 0 0 1 -1.66-.08 9 9 0 0 0 -2.88.1 6.32 6.32 0 0 1 -1 .13 45.42 45.42 0 0 1 -9.47-.22 16.24 16.24 0 0 0 -5.16.06 8.47 8.47 0 0 1 -1.59.14c-7.5 0-15 .08-22.5-.08-2 0-4-.21-6-.12-2.26.11-4.53.13-6.79.15-4.18 0-8.35-.19-12.52-.41a9.94 9.94 0 0 0 -2.83.06 4.85 4.85 0 0 1 -1.69.29.39.39 0 0 0 -.26.07 1.11 1.11 0 0 1 -.78.18zm-83.91-9.69a1.56 1.56 0 0 0 .09-.85 57.35 57.35 0 0 0 -.7-6.26 53.5 53.5 0 0 0 -2.35-9.59 16.34 16.34 0 0 0 -2.51-4.76 8.07 8.07 0 0 0 -6.33-3 2.81 2.81 0 0 0 -2.06.65 7.47 7.47 0 0 0 -1.32 1.7c-.4.65-.44 1.45-.79 2.14a.94.94 0 0 0 0 .41 23.37 23.37 0 0 0 .46 3 32.83 32.83 0 0 0 2.92 7.53c1.16 2.31 2.43 4.56 3.56 6.89a34.71 34.71 0 0 1 3.66 16.38 83.16 83.16 0 0 1 -.87 9.58c-.59 4.11-1.31 8.2-1.69 12.34a39.53 39.53 0 0 0 -.2 4.08c0 .47 0 .47.46.42l1.09-.15a17.27 17.27 0 0 1 4.76-.13c.67.08 1.33.16 2 .21.46 0 .48 0 .48-.43 0-.69 0-1.38 0-2.07 0-3.74-.24-7.48-.14-11.22.05-1.91.22-3.82.26-5.74a32.83 32.83 0 0 0 -.24-6.42 5.39 5.39 0 0 1 -.06-1.65 14.79 14.79 0 0 0 0-2.49 40.42 40.42 0 0 0 -.89-7.89 58.65 58.65 0 0 0 -5.9-15.53l-.26-.49c-.09-.16-.1-.31.08-.42s.27 0 .36.11a4.48 4.48 0 0 1 .32.44 40 40 0 0 1 5.59 12.44c.03.21.1.43.19.76zm171.85-16.5.77-.68a.27.27 0 0 1 .4.37c-.08.14-.2.26-.29.39-.45.61-.91 1.22-1.34 1.85a8.81 8.81 0 0 0 -1.19 2.25 87.58 87.58 0 0 0 -2.53 9.27c-.85 3.9-1.51 7.84-2.12 11.78a90 90 0 0 0 -1.15 12.05c0 1.68-.06 3.37-.13 5-.12 2.79-.41 5.57-.31 8.37v2 3.94c0 .6 0 .62.57.51a13.42 13.42 0 0 1 2.61-.25h4.3c.56 0 .56 0 .57-.58v-.14c0-2.89-.15-5.77-.23-8.65-.11-3.83-.25-7.66-.12-11.49a66.81 66.81 0 0 1 .95-10.19 125.9 125.9 0 0 1 4.19-16.2c.82-2.49 1.76-4.95 2.6-7.44a24.06 24.06 0 0 0 1.33-6.56 2 2 0 0 0 -.58-1.75 7.36 7.36 0 0 1 -.64-.81 4.55 4.55 0 0 0 -.93-.93 1.55 1.55 0 0 0 -1.87-.08 5.65 5.65 0 0 0 -1.35 1.18 15.07 15.07 0 0 0 -1.51 2.23 21.1 21.1 0 0 0 -2.03 4.55zm5.63-9c-.14-.87-.81-1.26-1.48-1.59a10.77 10.77 0 0 0 -1.75-.64 8.37 8.37 0 0 1 -3-1.61c-1-.84-2.21-1.47-3.23-2.35a.87.87 0 0 0 -.16.22 51.47 51.47 0 0 1 -4.13 7.67 46.88 46.88 0 0 0 -5 10.66 57 57 0 0 1 -2.74 7 13.28 13.28 0 0 1 -2.72 4.06s-.07.11-.12.22a9.5 9.5 0 0 1 3 2.15c.88.87 1.78 1.74 2.66 2.62a29.64 29.64 0 0 0 2.83 2.54 9.46 9.46 0 0 1 2.11 2.08c.09.12.11.31.34.33a8.92 8.92 0 0 0 .24-1.62 103.28 103.28 0 0 1 1.81-10.5 31.73 31.73 0 0 1 3.5-9.14 4.19 4.19 0 0 0 .29-.69 50.21 50.21 0 0 1 2.19-5.31 24.88 24.88 0 0 1 2.63-4.3 4 4 0 0 1 2.5-1.76c.05-.01.11-.1.2-.1zm-168.7 24.85a5.82 5.82 0 0 1 -1.91-2.36c-.22-.46-.42-.93-.6-1.4a36.76 36.76 0 0 1 -1.14-3.7c-1.57-5.36-3.46-10.61-5.36-15.85a22.94 22.94 0 0 0 -2.35-4.7 20.12 20.12 0 0 0 -2.17-2.83c-.19-.21-.31-.28-.54 0a28 28 0 0 1 -4.69 3.64 9.3 9.3 0 0 0 -1.33 1.09c-.32.36-.66.7-1 1.06-.1.11-.26.2-.23.43a8.67 8.67 0 0 1 2.87.25 9.42 9.42 0 0 1 5.77 4.46 22.58 22.58 0 0 1 2.41 5.57 68.53 68.53 0 0 1 2.64 17.6c0 1.53 0 3 .19 4.56.25 2 .48 3.94.64 5.92l.39 5.31a1.23 1.23 0 0 0 .38.93 9.87 9.87 0 0 0 0-3c-.28-2.1-.49-4.22-.65-6.33a4.59 4.59 0 0 1 0-1.11c.08-.42.25-.89.68-1s.56-.32.71-.63a10.56 10.56 0 0 0 .53-1.42 21.5 21.5 0 0 1 3.1-6.23 3.65 3.65 0 0 1 .35-.43.42.42 0 0 1 .57 0c.19.13.16.32.06.49s-.22.35-.34.52a21.21 21.21 0 0 0 -1.62 2.66c-.07.15-.23.3-.13.56a36 36 0 0 0 2.77-4.06zm90.52 26.09a1.38 1.38 0 0 1 0 .2c0 .65 0 .69.71.66l2.76-.12c4.75-.19 9.49.19 14.24.2a27.12 27.12 0 0 0 3.71.27 5.47 5.47 0 0 0 .7 0c.3 0 .47-.12.44-.46s-.06-.92-.07-1.39c0-.28-.16-.35-.4-.32h-.42a16 16 0 0 1 -4.48 0 4.61 4.61 0 0 0 -1.17-.12c-1.95.13-3.92.08-5.87.13-3.16.09-6.32.23-9.48.21a24.27 24.27 0 0 0 -2.83.13 15.45 15.45 0 0 1 -3 .12 35.46 35.46 0 0 0 -4.49-.15c-1.71.07-3.41.06-5.12.1-.29 0-.57 0-.78.3s-.35.4-.64 0-.52-.27-.77.06a2.66 2.66 0 0 0 -.32 1.58c0 .24.11.32.33.32l4.22-.1c.2 0 .29-.1.18-.32s-.05-.22.1-.25c.3.52.3.53.9.5l3-.15c.68 0 .68 0 .72-.7 0-.07 0-.14 0-.21a.52.52 0 0 1 0 .21c0 .68 0 .65.65.6s1.2-.06 1.8-.11 1.19-.12 1.8-.11c.83 0 1.66-.08 2.48-.14s.97-.06 1.1-.94zm62.74 1.62a.67.67 0 0 1 .16.65c-.07 1.22-.29 2.42-.44 3.63a21.51 21.51 0 0 0 -.21 2.27c0 .32.1.47.43.48a1 1 0 0 1 .7.18.69.69 0 0 1 -.44.05c-.71 0-.72 0-.63.73.11.9.23 1.79.35 2.68 0 .15 0 .33.16.42.77-.22.77-.22.77-1a2.72 2.72 0 0 0 0-.28c0-2 .17-4 0-6-.13-1.63-.23-3.25-.32-4.88a13.8 13.8 0 0 0 -.08-1.71.54.54 0 0 0 -.36 0 9.2 9.2 0 0 1 -3.5.28 13.57 13.57 0 0 0 -2.21-.07c-.71 0-1.43.08-2.14.1-3.83.08-7.66.14-11.49.11-.53 0-1.06 0-1.59 0s-.42.11-.44.67c0 .37.16.41.46.42 1.06 0 2.13.05 3.19.09 1.48.05 3 0 4.43.13.43.05.72 0 .85-.49a2.59 2.59 0 0 1 .06.52c0 .31.14.39.43.36q3.35-.27 6.67-.7a9.77 9.77 0 0 1 2.59-.16c-.83 0-1.65.17-2.47.28-1.21.16-2.42.35-3.63.49-1 .11-2 .17-3 .26-.18 0-.39 0-.5.16a2.6 2.6 0 0 0 .18 1.46c.21-.14 0-.48.28-.57.13.62.13.62.77.68h.27c1 0 2 .21 3 .18.37 0 .55-.15.55-.53s.06-1 .09-1.46a5.55 5.55 0 0 1 .13 1.51c0 .26.09.39.36.37s.83 0 1.24-.05c1.18-.15 1 .11 1.13-1.1 0-.26-.05-.57.16-.84a.55.55 0 0 1 .1.44v1.11c0 .09 0 .19.14.19s.16-.08.18-.17v-.35c0-.38.07-.76.1-1.14h.14v.71c0 .93 0 .93.9.8.39-.06.85.06 1.14-.19s.13-.75.22-1.12c0 0 0 0 0-.06s0 .26.06.39 0 .33 0 .49 0 .27.19.32a.57.57 0 0 0 .81-.51 2.38 2.38 0 0 1 .06-.25zm-102.53-.62a1.91 1.91 0 0 1 .09.2c.08.76.08.74.8.71q3.63-.16 7.27-.29c3-.1 6 .07 9.06.09 1.19 0 1 .18 1.06-1.08 0-.3-.11-.42-.4-.43a17 17 0 0 0 -2.14 0 25.55 25.55 0 0 1 -5.53.1 39.79 39.79 0 0 0 -4.76-.34l-11.77.16h-1.38c-.51 0-.52 0-.51.5s.06.73.08 1.1.15.38.43.38c.9 0 1.81-.05 2.7 0 .44 0 .78 0 .87-.64.18.64.18.66.71.64l2.42-.11c.93-.06.93-.05 1-.99zm-54.78 9.78a.49.49 0 0 0 .34-.67 4.21 4.21 0 0 1 -.09-.62c-.17-1-.35-2.09-.52-3.13a21.83 21.83 0 0 1 -.25-4.42c0-.27 0-.51-.4-.54a9 9 0 0 0 0 1.72c0 .6.1 1.2.12 1.8s0 1.15 0 1.73-.08 1.15-.1 1.72 0 1.16 0 1.73 0 1.2 0 1.8a5 5 0 0 1 0 1.68.42.42 0 0 1 -.24-.37 7.43 7.43 0 0 1 -.24-2.45 13.62 13.62 0 0 0 .12-2.13 30.77 30.77 0 0 0 .14-4.7 11.54 11.54 0 0 1 0-2.35c0-.34-.06-.46-.4-.47s-.49 0-.53.51c-.14 1.81-.15 3.64-.13 5.46a38 38 0 0 1 -.12 5.94 17.17 17.17 0 0 1 -.41 1.89c-.09.34 0 .43.32.41a.81.81 0 0 0 .27 0 7.21 7.21 0 0 1 2.61-.22c1.64.14 3.28.06 4.91.17.17 0 .49.17.5-.15s-.29-.23-.49-.24h-.21l-6.68-.34h-.41a.17.17 0 0 1 -.16-.19.18.18 0 0 1 .18-.17h.69l5.88.14h.55c.18 0 .32 0 .3-.27s-.08-.32-.28-.33h-2.41a6.53 6.53 0 0 1 -.76-.08c-.11 0-.23 0-.25-.19s.1-.2.22-.22.23 0 .34-.06a10.23 10.23 0 0 1 2.07 0c1.06 0 1 .24.94-1q0-.09-.09-.06a.72.72 0 0 0 -.17.49c0 .34-.22.41-.51.42s-.44-.14-.48-.44c-.08-.53-.2-1.05-.25-1.57s-.21-.52-.58-.51-1 0-1.45 0c-.31 0-.47.11-.46.45a8.7 8.7 0 0 1 0 .89 5.08 5.08 0 0 1 -.36 1.55c0 .08-.09.16-.21.15a.21.21 0 0 1 -.16-.2c0-.16 0-.32 0-.48 0-.58-.06-1.15-.14-1.72-.12-.3-.25-.39-.56-.39zm172.67-42.88h-.16c-.11.3-.21.6-.31.9-.8 2.6-1.49 5.23-2.17 7.87a73.67 73.67 0 0 0 -2.43 17.22c-.05 2.44-.06 4.89 0 7.33 0 1.26 0 2.52.07 3.87a2 2 0 0 0 .21-1.09c0-.85 0-1.71 0-2.56a33.58 33.58 0 0 1 .2-6.42c.37-2.28.76-4.55 1.14-6.82 0-.18 0-.46.2-.46s.13.32.2.48 0 .06.09.13c.94-6.87 1.44-13.73 2.96-20.45zm-187.15 5.18c.12.51.22 1 .34 1.45a50.38 50.38 0 0 1 1.76 14.09c-.1 4.43-.07 8.86-.19 13.29a2.1 2.1 0 0 0 .05.79c.11 0 .11-.11.12-.18.61-3.8 1.24-7.6 1.47-11.45a39.87 39.87 0 0 0 -.27-7.95 35.84 35.84 0 0 0 -2.87-9.43c-.13-.2-.17-.45-.41-.61zm30.09 27.44c.23.58.23.59.73.62s1.24.1 1.86.13c1 .06 1 0 1-.94 0-.61 0-.61-.6-.63h-.56c-2.28 0-4.57 0-6.85-.07a40.85 40.85 0 0 0 -6.35.19 16.31 16.31 0 0 1 -5 .06c-.41-.07-.44.19-.46.54.5-.06.86 0 .91.59 0 .18.23.22.39.25.7.14 1.4.25 2.09.41.24.05.41-.12.65 0a7 7 0 0 0 2.33.09.31.31 0 0 0 .34-.34 3 3 0 0 1 .17-1 3.15 3.15 0 0 1 .09 1c0 .26.13.38.39.35a8.33 8.33 0 0 1 1.1-.1c.45 0 .72-.14.76-.68.22.53.23.54.66.29h.15c.17.21.38.12.58.1a30.81 30.81 0 0 1 5.17-.2c.36-.06.5-.18.41-.66zm-22.94-56.33a1 1 0 0 0 .05.25 21.45 21.45 0 0 1 3.24 6.15c1.38 3.72 2.82 7.41 4.08 11.16a1.88 1.88 0 0 0 .34.75c.13-.19 0-.37 0-.54-.07-.45-.17-.9-.23-1.36-.24-1.76-.47-3.51-.72-5.27-.17-1.19-.61-2.31-.88-3.48a18.58 18.58 0 0 0 -.76-2.51 7 7 0 0 0 -1.7-2.65 25.11 25.11 0 0 0 -3.42-2.5zm-2.08-7.75a5.73 5.73 0 0 0 -1.08 4 1.21 1.21 0 0 0 .31.69 13.24 13.24 0 0 0 1.81 1.78c.77.51 1.51 1.06 2.27 1.59a23 23 0 0 1 1.88 1.41 7.79 7.79 0 0 1 2.58 3.93c.19.71.63 1.3.84 2.06 0-.74 0-1.41 0-2.07a4.34 4.34 0 0 0 -1-2.8 9.14 9.14 0 0 0 -1.68-1.43 7.61 7.61 0 0 1 -3.22-4.13 15.11 15.11 0 0 0 -1.78-3.57 2 2 0 0 1 -.48-1.06c-.04-.19-.18-.32-.45-.4zm111 65.8c.18.14.07.45.33.44a4.18 4.18 0 0 0 1.23-.1 1.22 1.22 0 0 1 .57-.07 7.7 7.7 0 0 0 1.51-.09c.22 0 .31-.15.35-.36s0-.46.23-.57c.11.13.06.25.06.36 0 .53 0 .53.52.48l.9-.1c.75-.06.75-.06.75-.81 0 0 0-.09-.07-.09s-.19.26-.39.22c-.1-.56-.1-.57-.5-.58-3.88-.16-7.75-.16-11.62 0-.14 0-.28 0-.42 0s-.42.12-.38.43.08.82.1 1.24.15.4.43.38h1.32c.88 0 .88 0 .88-.81a4.48 4.48 0 0 1 .06-.51 2.1 2.1 0 0 1 .2.7c.09.52.09.54.59.51 1 0 1.94-.13 2.9-.16.38.02.44-.2.45-.51zm-58.07 1.26h.21v2a.37.37 0 0 0 .41.43h2.08c.21 0 .35-.06.35-.31 0-1 0-1.9-.08-2.84 0-.23-.12-.33-.35-.31h-.55l-3.59.27c-1.06.07-2.12.15-3.18.2-.36 0-.49.16-.47.5v1.87c0 .3.08.47.43.47s.46-.12.45-.45 0-.69 0-1c0-.17-.08-.38.19-.49.22.64-.09 1.33.26 2 .3-.64.09-1.28.33-1.84a11.56 11.56 0 0 1 .06 1.44.32.32 0 0 0 .33.36c.55.06.63 0 .64-.57 0-.32 0-.65 0-1a1.68 1.68 0 0 1 .12-.83 9 9 0 0 1 .17 1.14c.14 1.26.14 1.26 1.4 1.27.61 0 .61 0 .64-.61a17.48 17.48 0 0 1 .15-1.7zm81.94-3.76c.1.32 0 .71.53.65 1.54-.16 3.09-.12 4.64-.14.6 0 .62 0 .61-.62s0-.47-.6-.5c-3.09-.11-6.18-.14-9.27-.35a22.15 22.15 0 0 0 -3.45.16c-.54.05-.54.08-.48.6 0 .32.07.64.1 1 .06.64.06.64.72.55l.55-.06 2.89-.29c.45 0 .44 0 .32-.52 0-.19-.21-.36-.12-.62a1.88 1.88 0 0 1 .35.69c.09.29.28.37.58.34l2.14-.16c.22 0 .34-.09.34-.33a.35.35 0 0 1 .1-.4zm29.8-50.11c.45-.53.87-1.08 1.34-1.59s.92-1 1.39-1.44a14.55 14.55 0 0 1 1.49-1.45c.52-.41.75-1 1.29-1.47a5.28 5.28 0 0 0 1.62-2.37 16.59 16.59 0 0 0 1-6.32c0-.14.08-.33-.19-.43-.51.94-1 1.9-1.53 2.84a12.8 12.8 0 0 0 -1.46 4 9.19 9.19 0 0 1 -2.42 4.73 21.91 21.91 0 0 0 -1.67 1.94 5.22 5.22 0 0 0 -.91 1.56zm-93.34 53.52c.16 0 .15.16.18.24a5.38 5.38 0 0 1 .26 1.91c0 .29.12.41.41.41h2.14c.26 0 .38-.11.38-.37 0-.65 0-1.29.06-1.94 0-.32-.12-.46-.44-.45-.49 0-1 0-1.45 0-1.32 0-2.63-.09-3.94-.15-.34 0-.5.07-.5.45a15.26 15.26 0 0 1 -.08 2.14c0 .3.07.44.37.43l2.49-.05a.3.3 0 0 0 .35-.32c0-.16 0-.32 0-.49a12.09 12.09 0 0 0 -.23-1.81zm12.24 11h.1l5.94-.09c.24 0 .32-.12.32-.34 0-.37 0-.74 0-1.11-.06-1.68.29-1.38-1.5-1.42a.6.6 0 0 0 -.62.42c-.12.25-.11.69-.47.67s-.3-.42-.41-.67-.16-.38-.42-.38h-2a.35.35 0 0 0 -.38.31c-.2.95-.39 1.8-.56 2.65zm-18.81-.72a.3.3 0 0 1 -.11-.28c0-.5 0-1-.08-1.51s0-.54-.55-.57q-1.25 0-2.49-.06c-.48 0-.49 0-.52.5a5.93 5.93 0 0 0 0 1.63c0 .14-.16.32 0 .46s.34.09.52.1c.92.06 1.83.14 2.75.18a26.06 26.06 0 0 0 3.3-.27c.22 0 .32-.13.27-.37s-.09-.69-.16-1 .09-.7-.14-.93-.66-.1-1-.11c-.67 0-.65 0-.89.61s-.45 1-.69 1.55a.15.15 0 0 1 -.21.11zm98.26-3.67v.18a1.19 1.19 0 0 1 -.07.27 5.58 5.58 0 0 0 -.18 2.92c0 .13 0 .35.17.32.55-.11.84.3 1.24.51a1.29 1.29 0 0 0 1.42-.09c.44-.43.83-.89.55-1.57a1.47 1.47 0 0 1 -.07-.41c-.16-1-.28-2-.35-3-.16.48-.23 1-.39 1.44s0 1-.41 1.43a1.32 1.32 0 0 1 -.11-.73c0-.66 0-1.33.05-2 0-.31-.07-.47-.41-.5-.5 0-1-.12-1.5-.2-.28 0-.44 0-.48.33a4.19 4.19 0 0 0 .05 1.83c.31-.14.2-.49.49-.69zm-102.74-76.01c-.17 1.23-.31 2.46-.52 3.68a34.58 34.58 0 0 0 -.2 10.6 9.39 9.39 0 0 0 1 2.88 1.08 1.08 0 0 0 .1-.29 52.63 52.63 0 0 0 -.18-9.31 14.19 14.19 0 0 1 0-5 5.07 5.07 0 0 0 .09-.54 3.66 3.66 0 0 0 -.29-2.02zm90.73 79.71a.4.4 0 0 0 .35.09l2.55-.1c.15 0 .35.05.42-.16s-.07-.29-.19-.4a2.46 2.46 0 0 1 -.8-1.92c0-.48 0-1 .05-1.45s0-.42-.41-.38a.44.44 0 0 0 -.2 0c-.2.08-.55 0-.53.31s-.24.76.22 1c.17.08.11.16.08.26s-.06.18-.17.2-.15-.08-.2-.15a1.64 1.64 0 0 1 -.3-.94c0-.44-.08-.46-.52-.39s-1 .18-1.42.26a.36.36 0 0 0 -.34.37 16.79 16.79 0 0 0 0 3.17c0 .14 0 .27.18.34a.82.82 0 0 0 1.08-.5 6.68 6.68 0 0 1 .55-1.42c-.08.74-.38 1.25-.4 1.81zm-136.74-6.46v-.06h.34c.26 0 .38-.07.4-.34.08-1.2.18-2.39.26-3.59 0-.18 0-.33-.23-.36l-2.28-.4c.13 1.47.25 2.87.38 4.27a.27.27 0 0 0 .17.27h.27l-.26.06c-.15 0-.14.16-.13.28.12 1 .24 1.92.35 2.88 0 .22.13.34.35.34s.28 0 .42 0c.49 0 .5 0 .53-.51 0-.73.08-1.47.11-2.21 0-.59 0-.59-.57-.66zm47.93-4.53v-.1h-1c-1.12 0-1.29.15-1.08 1.24.13.68.34 1.33.5 2 .07.29.26.29.47.29l3.1-.08c.44 0 .45-.05.39-.51-.12-.79-.25-1.59-.35-2.39 0-.35-.22-.46-.55-.45-.47.03-.97.01-1.48.01zm2.36 5.85h.05v-1.52c0-.24-.07-.39-.34-.4l-3.12-.05c-.29 0-.36.13-.32.38a25.83 25.83 0 0 1 .21 3.17c0 .31.13.4.42.39h2.7c.29 0 .41-.11.41-.41-.01-.54-.01-1.05-.01-1.55zm90.45-3c0 .37-.06.74-.07 1.1s0 .46.47.47h.83c.59 0 .6 0 .73-.58.07-.3.13-.59.21-.88 0-.08.09-.17.2-.12a.2.2 0 0 1 .08.17c-.05.34-.13.68-.19 1 0 .13-.05.32.12.33h1.31c.12 0 .19-.13.22-.24a23 23 0 0 0 .57-2.84c0-.37 0-.42-.45-.38-1.19.12-2.38.25-3.57.34-.33 0-.43.18-.43.48s-.03.83-.03 1.18zm-74.58 4.48h1.59c.58 0 .59 0 .56-.57 0-.74-.11-1.47-.13-2.21 0-.34-.17-.43-.47-.42h-3.32c-.29 0-.42.11-.41.41v2.41c0 .3.15.4.43.4.6-.03 1.17-.02 1.75-.02zm26.91-49.17a15.73 15.73 0 0 0 .13-2.85c-.18-2.44-.38-4.87-.58-7.31-.17-2-.27-4-.25-6.08a26.91 26.91 0 0 0 0-3.11.9.9 0 0 0 -.07.27q-.36 4.07-.5 8.14a33 33 0 0 0 .76 8.87 14.69 14.69 0 0 0 .51 2.07zm-36 54.89c0-.45-.24-.6-.59-.62-.87-.06-1.74-.16-2.61-.2a37.18 37.18 0 0 0 -4.35-.12c-3.36.22-6.71.44-10.08.52a1.94 1.94 0 0 0 -.34 0 .17.17 0 0 0 -.17.18.21.21 0 0 0 .2.16h.62l14 .05zm8-1.23c1.16.08 2.3 0 3.45 0 .21 0 .27-.14.26-.33l-.15-2.27c0-.27-.16-.36-.41-.35h-3.73c-.23 0-.34.09-.32.33l.15 2.2c0 .18.08.32.28.34s.21-.15.27-.27a3.31 3.31 0 0 1 .57-1c-.1.56-.5.86-.45 1.35zm80.08-1.8a20.36 20.36 0 0 0 1.45-2.49 15.84 15.84 0 0 1 -1.41 3.42 10.42 10.42 0 0 1 2.79.32 1.84 1.84 0 0 0 -.08-1.2 2.35 2.35 0 0 1 -.2-1.4 17.62 17.62 0 0 0 0-2.41c0-.31-.14-.46-.47-.45s-1 0-1.45 0-.5 0-.53.51c-.05.73-.09 1.47-.12 2.2-.08.51-.06 1.01-.06 1.5zm-99.85-4.29c0-.09 0-.32 0-.55s0-.46 0-.69c0-.67 0-.69-.67-.69s-1.37.06-2.06.07c-.36 0-.49.13-.47.49.07 1.06.13 2.11.18 3.17 0 .31.12.46.46.44.69 0 1.38-.05 2.07-.06.33 0 .43-.13.42-.46-.02-.53-.01-1.05-.01-1.72zm-1.64-5.8c-.49 0-1 0-1.45 0-.3 0-.41.13-.39.43.07.89.12 1.79.18 2.69a.37.37 0 0 0 .42.41h2.56c.21 0 .37-.06.38-.29.07-.78.14-1.56.17-2.35a1.85 1.85 0 0 0 -.18-.58.44.44 0 0 0 -.52-.34c-.37.05-.76.03-1.17.03zm91.5-19a.35.35 0 0 0 -.27-.26 8.85 8.85 0 0 0 -2.49-.58 52.23 52.23 0 0 0 -7.4.09c-1.91.11-3.81.32-5.72.49l-3.5.32a3.29 3.29 0 0 0 .82.1h10.39a8.93 8.93 0 0 0 1.93-.16 12.71 12.71 0 0 1 4.6-.15c.56.06 1.14.07 1.66.12zm-114.31 20.32a1.06 1.06 0 0 1 .17.79c0 .35 0 .69-.07 1s.06.44.37.43l2-.09c.24 0 .32-.14.33-.36 0-.73 0-1.47 0-2.2 0-.27-.11-.38-.36-.38-1.22 0-2.44 0-3.66 0-.36 0-.42.18-.41.48a22.72 22.72 0 0 0 .33 2.32c0 .24.18.33.43.32.58 0 .61 0 .65-.63a6.46 6.46 0 0 1 .22-1.68zm3.87.15a11.77 11.77 0 0 0 -.34 1.54c0 .28 0 .44.35.43h3.53c.34 0 .44-.15.41-.47-.05-.59-.08-1.19-.12-1.79s0-.51-.52-.52-1.15 0-1.73 0h-1.86c-.18 0-.43 0-.43.23a9.27 9.27 0 0 0 .14 2 4.35 4.35 0 0 1 .57-1.42zm-13.91.95h-.08v-1.51c0-.24 0-.41-.33-.41h-2.74c-.21 0-.29.12-.26.31a1.86 1.86 0 0 0 .08.41 14.25 14.25 0 0 1 .59 3c0 .42.08.45.53.4s1.14-.17 1.71-.21c.4 0 .52-.23.52-.57zm-12.79-35.35a.77.77 0 0 0 .14-.53 22.42 22.42 0 0 0 -.56-4.31c-.64-2.7-1.59-5.29-2.45-7.92a1.65 1.65 0 0 0 -.18-.31s0 .07 0 .09c.37 2.74.79 5.47 1.38 8.17a18.13 18.13 0 0 0 1.17 4 1.93 1.93 0 0 0 .5.81zm53 32.66a2.31 2.31 0 0 0 1 .2l7.82.29a1.05 1.05 0 0 0 .78-.13c.13-.09.42.19.69.17a10.43 10.43 0 0 1 1.25 0 .7.7 0 0 0 .52-.2c.09-.08.28.22.52.22 1.41 0 2.82 0 4.22.08.3 0 .42-.11.42-.4s0-.43-.57-.44c-2.63 0-5.26-.13-7.89-.11-2.93.03-5.79.19-8.79.32zm-36.55 2.63c0-.49-.06-1-.07-1.45 0-.29-.13-.41-.42-.4-.67 0-1.34 0-2 0-.32 0-.45.11-.47.43-.07.89-.16 1.79-.23 2.68v.35s.09.35.33.33l2.55-.21a.34.34 0 0 0 .35-.41c-.08-.45-.07-.89-.07-1.32zm69.12 1.31h-1.38c-.29 0-.42.13-.42.41v2.63c0 .27.13.35.38.34.83 0 1.65 0 2.48-.06.26 0 .37-.11.38-.37.06-.9.12-1.79.19-2.69 0-.26-.09-.38-.35-.36zm-28 .45h-1.17c-.29 0-.41.11-.43.39-.06.94-.13 1.88-.2 2.82 0 .29.08.44.39.42l2.13-.08c.28 0 .42-.11.46-.39.14-.91.28-1.82.43-2.73.06-.31-.07-.41-.37-.41zm-13.81 1.91h-.12v-1.65c0-.3-.13-.41-.42-.39-.64.06-1.29.1-1.93.14-.29 0-.47.12-.45.46 0 1 0 1.93.06 2.9 0 .24.08.39.35.4l2.13.12c.3 0 .42-.09.4-.4.01-.52-.01-1.01-.04-1.58zm-15.12-1.1h-1.93c-.22 0-.35.08-.31.33.11.61.21 1.22.3 1.84 0 .32.23.39.53.39h3.31c.34 0 .44-.15.41-.46-.06-.57-.1-1.15-.13-1.72 0-.31-.19-.37-.46-.37zm33.72.9c0-.44 0-.87 0-1.31 0-.23-.1-.35-.33-.35h-2.28a.29.29 0 0 0 -.34.27c-.13 1-.25 1.92-.38 2.88a.23.23 0 0 0 .27.3l2.7-.09a.31.31 0 0 0 .33-.35c.02-.47.03-.91.03-1.35zm3.06-5.12a13.51 13.51 0 0 1 .43 2.12.29.29 0 0 0 .35.32l3.52-.17a.38.38 0 0 0 .4-.44c0-.46 0-.92 0-1.38s0-.49-.52-.5h-3.52a1.1 1.1 0 0 0 -.66.05zm31.68 2.47v.09h-1.39c-.26 0-.39.09-.34.37.17.88.35 1.76.51 2.64a.34.34 0 0 0 .43.33l2.28-.11c.27 0 .36-.15.35-.4-.05-.85-.1-1.7-.14-2.56a.33.33 0 0 0 -.39-.36zm-24.91.92c-.42 0-.83 0-1.25 0s-.44.14-.42.46q.1 1.17.18 2.34c0 .29.14.4.43.4h2.56c.27 0 .38-.12.34-.38a14.69 14.69 0 0 1 -.16-2.48c0-.26-.11-.37-.37-.37zm-24.14-42.36a19.81 19.81 0 0 1 -2.6 3.8 4.94 4.94 0 0 0 -.85 1.17c-.13.23-.12.38.19.44a15.93 15.93 0 0 0 2.67.3.5.5 0 0 0 .54-.41 8.85 8.85 0 0 0 .34-2.1 9.28 9.28 0 0 0 -.15-2.36 29.11 29.11 0 0 1 -2.08 3.06 3.11 3.11 0 0 1 .53-1.04l1.26-2.06c.1-.26.27-.49.15-.8zm-34 46.93c0 .37.16.64-.29.71-.22 0-.29 1-.11 1.16h.06c.29-.36.5.08.75.08h2a.26.26 0 0 0 .29-.3c0-1 0-1.93-.1-2.89 0-.25-.17-.3-.38-.28l-2.47.24c-.14 0-.3 0-.3.22v1.3c0 .19.18.18.29 0s.1-.08.21-.24zm19.4-5.28h1.31c.28 0 .43-.08.44-.38 0-.65 0-1.29.06-1.94 0-.3-.07-.47-.42-.47h-2.9c-.28 0-.43.09-.42.4a12 12 0 0 0 .15 2 .41.41 0 0 0 .47.39zm93.57 8.2 1.52-.07c.22 0 .34-.08.32-.33-.06-.73-.11-1.47-.16-2.2 0-.24-.07-.39-.37-.36-.9.08-1.79.14-2.69.2a.37.37 0 0 0 -.39.38 10.23 10.23 0 0 0 0 2.07c0 .23.13.33.36.32zm-43.56-6.14v-1.38c0-.19-.06-.32-.27-.31l-2.48.09c-.2 0-.31.12-.29.31.1.89.11 1.79.14 2.69a.3.3 0 0 0 .34.33h2.08c.26 0 .36-.12.37-.38 0-.47.03-.91.06-1.35zm-61.12 7.54c-.36-.46-.6-.69-1.07-.67-2.11.12-4.23.17-6.35.27-.49 0-1-.12-1.47.21-.08.06-.16 0-.25 0a10.61 10.61 0 0 0 -2.39-.08c-.13 0-.21.09-.23.22s.1.18.22.19h.62 11.27 2.55c.41 0 .44-.08.4-.45s-.19-.42-.51-.42c-.78 0-1.56 0-2.34 0-.43-.01-.57.15-.45.73zm66.68-9.39c-.36 0-.73 0-1.1 0s-.44.15-.45.46c0 .85-.08 1.7-.13 2.55 0 .3.08.43.39.41.64 0 1.28-.06 1.93-.07.32 0 .44-.15.45-.46 0-.55.08-1.1.1-1.66 0-.41.3-.92.07-1.2s-.83-.03-1.26-.03zm-35.32-3.31h-.62c-1.13-.1-.94-.15-.79 1v.13c.37.34.28.8.3 1.22v.55s.15.38.4.37h1.8a.3.3 0 0 0 .35-.32c.09-.8.12-1.61.14-2.41 0-.31-.15-.41-.42-.41zm-30.06 10.36h1.45c.3 0 .48-.07.48-.42 0-.62 0-1.25 0-1.87 0-.25-.07-.38-.33-.42-.46-.06-.92-.13-1.37-.23a.54.54 0 0 0 -.73.42c-.14.44-.31.87-.49 1.29-.08.2-.14.54-.41.47s-.15-.39-.15-.59c0-.51.06-1 .08-1.52 0-.14 0-.3-.18-.32s-.23.16-.24.31a20.69 20.69 0 0 0 0 2.49c0 .3.17.4.44.39.5-.05.97 0 1.45 0zm81.45-6c0-.37 0-.74 0-1.11s-.1-.51-.47-.5c-.57 0-1.15 0-1.73 0a.46.46 0 0 0 -.54.47c-.09.75-.19 1.51-.27 2.27 0 .46 0 .5.5.48.72 0 1.43-.09 2.14-.11.29 0 .42-.11.41-.42s-.06-.68-.06-1.04zm9.89-.44h.05v1s.12.45.45.43l2.42-.13c.26 0 .35-.15.37-.39 0-.62.1-1.24.17-1.86 0-.29-.05-.43-.36-.42l-2.7.09c-.28 0-.42.1-.39.41s-.03.61-.03.91zm13.66 2.68h-.06c0-.36-.05-.73-.06-1.1s-.1-.34-.34-.34l-2.14.07c-.22 0-.36.1-.39.31l-.33 2.33c0 .22.05.36.3.34l2.69-.22c.23 0 .33-.12.33-.35s0-.69 0-1.04zm-118.69 3.79h2.79c.33 0 .36-.18.37-.44a7.31 7.31 0 0 0 -.34-2.37.41.41 0 0 0 -.5-.34c-.46 0-.92 0-1.38.06-.87.06-.82 0-.85.94 0 .15 0 .26.22.21s.08.1 0 .15a3.64 3.64 0 0 0 -.31 1.79zm82.5 1h1.25c.54 0 .53 0 .46-.54a12.66 12.66 0 0 1 -.15-1.51c0-1 .06-.82-.86-.86h-.21c-.48 0-.49 0-.5.52v1.59a.19.19 0 0 1 -.14.21c-.15 0-.2-.1-.21-.21 0-.44 0-.88-.07-1.32-.06-.83-.1-.85-1-.8-.3 0-.41.12-.4.42v2.07c0 .35.16.44.46.43.45.02.91.03 1.37.03zm-26.81-5.86c0-.39 0-.78 0-1.17s-.11-.46-.44-.46h-1.93c-.33 0-.44.13-.44.45v2.42c0 .29.12.41.41.4h2c.26 0 .38-.11.38-.37.02-.44.02-.86.02-1.27zm43.68-5.79-3.56.12c-.22 0-.32.14-.32.36v1.86c0 .26.12.36.38.36h2.27c.15 0 .28 0 .34-.18.21-.82.54-1.61.86-2.52zm-20.56 8.77h-1c-.36 0-.51.12-.51.47v1.93c0 .17-.08.41.16.47a.6.6 0 0 0 .65-.11s0-.08.06-.12c.11-.19.1 0 .12 0 0 .22.2.21.36.22h1.38c.29 0 .43-.08.4-.4-.06-.71-.12-1.42-.15-2.13 0-.31-.16-.39-.43-.38s-.75.05-1.07.05zm63-7.9h-.23c-.55 0-.55 0-.62.57-.11.85-.21 1.69-.34 2.53 0 .31.05.43.34.44h1.45s.49-.13.51-.47c.07-.87.16-1.74.24-2.61 0-.09 0-.25 0-.26-.32-.14 0-.21 0-.32.15-.35 0-.53-.34-.49l-1.5.2a.27.27 0 0 0 -.25.21c.17.25.45.07.7.2zm-144.63-.3a16.94 16.94 0 0 1 .25 3.17v.75s.11.34.34.34h1.24s.58 0 .56-.61c-.05-1.15-.39-2.27-.36-3.43a.24.24 0 0 0 -.26-.25 9.51 9.51 0 0 0 -1.77.03zm53.51 8.33h-1.24c-.31 0-.47.09-.48.42v1.45c0 .31.14.44.45.47.89.1 1.77.22 2.65.33.3 0 .43 0 .42-.36q0-.93 0-1.86c0-.34-.15-.44-.46-.43s-.95-.02-1.34-.02zm3.71 0h-1c-.27 0-.44.08-.44.39v2c0 .27.13.38.37.39l2.42.17c.29 0 .34-.12.3-.38s-.11-.77-.16-1.16.11-1-.17-1.27-1.03-.07-1.37-.13zm52.29-6.33v-.09h1.52c.22 0 .34-.11.32-.34a9.13 9.13 0 0 0 -.22-1.57.41.41 0 0 0 -.42-.37l-2.61-.14c-.27 0-.43 0-.4.38.05.55.05 1.1.09 1.65s0 .48.55.48zm30.82.15c0 .43-.05.87-.09 1.3s.11.41.4.41h1.59c.21 0 .34-.06.36-.3.09-.89.2-1.78.29-2.68 0-.43 0-.49-.44-.5h-1.65c-.29 0-.42.1-.42.4-.06.42-.07.88-.07 1.34zm-113.87 2.09v.1c-.37 0-.74 0-1.1 0-.59 0-.61 0-.55.58s.18 1 .22 1.58c0 .37.21.45.54.45.64 0 1.29 0 1.93.06.31 0 .49-.07.48-.42 0-.66 0-1.33 0-2 0-.27-.11-.37-.37-.37zm84.75 4.76c.12.58-.29 1.05-.36 1.58 0 .1-.12.23-.24.21s-.19-.18-.18-.32c0-.51.07-1 .11-1.52 0-.22-.06-.35-.3-.35h-1.31c-.15 0-.28 0-.33.2-.19.74-.39 1.49-.6 2.28h3.72c.22 0 .34-.09.34-.33 0-.64 0-1.29 0-1.93 0-.09 0-.2-.1-.24a1.24 1.24 0 0 0 -.93.06c-.25.09-.17.36-.12.57.21.01.12-.21.3-.21zm-7.09-9.63h-1.25c-.29 0-.42.11-.4.41 0 .64.09 1.29.13 1.93 0 .24.14.31.36.3h2.21c.21 0 .36-.06.38-.3 0-.64.09-1.29.14-1.93 0-.3-.1-.42-.4-.41zm4.67 7.34a2.72 2.72 0 0 1 0 1.1c-.07.3 0 .49.36.47s.78 0 1.17 0c.22 0 .34-.09.37-.32q.14-1.09.3-2.19c.05-.33-.07-.46-.41-.44-.76.06-1.52.09-2.27.13-.25 0-.39.09-.39.36v2.14c0 .21.06.36.3.36a.34.34 0 0 0 .39-.3 9.37 9.37 0 0 0 .18-1.31zm-26.41-6.52h1.66c.28 0 .41-.13.4-.43a11.42 11.42 0 0 1 0-1.17c0-.38-.15-.49-.51-.46-.71.06-1.42.1-2.14.14-1.61.11-1.3-.19-1.34 1.55 0 .29.11.42.4.41zm-65.35 4.07h-1a.31.31 0 0 0 -.35.33c0 .59-.1 1.18-.16 1.78 0 .26.09.37.34.4.75.11 1.5.22 2.24.35.3.05.45 0 .45-.35 0-.69 0-1.38 0-2.06 0-.31-.17-.4-.43-.4zm71 7.94a.53.53 0 0 1 -.49-.32.73.73 0 0 0 -.71-.31h-5.06c-.9 0-.9 0-1.13.91a.74.74 0 0 0 .08.16h.6l6.29-.17c.37 0 .74-.05 1.11-.05s.35-.13.35-.38c0-.4 0-.45-.49-.47-.67-.02-.67-.02-.53.63zm-87.31-2.06h1.1c.27 0 .39-.11.34-.38a10.13 10.13 0 0 1 -.07-2.2c0-.29-.06-.45-.38-.41l-1.44.13a.47.47 0 0 0 -.2.06c-.17.11-.22 1.29 0 1.4s.21 0 .12.17a1.09 1.09 0 0 1 -.21.27c-.07.1-.15.19-.28.16s-.12-.18-.12-.29v-1.24c0-.21 0-.43-.28-.42s-.34.18-.31.42c.08.66.18 1.32.24 2 0 .31.18.39.45.38zm100.6-43c1.48.55 11.06 1.47 12.18.83a2.53 2.53 0 0 0 -1.68-.28 4.51 4.51 0 0 1 -2.19-.1 17.56 17.56 0 0 0 -5-.72 15.13 15.13 0 0 0 -3.29.28zm-105.35 38.66v.41s0 .33 0 .49c0 .7 0 .72.64.68.51 0 1-.1 1.52-.12s.46-.2.44-.53q-.09-1-.12-2.07c0-.26-.13-.36-.38-.38-.53 0-1-.06-1.58-.11-.29 0-.43.09-.42.39zm118.18 5.29v-.09h1.25c.19 0 .37 0 .37-.29 0-.69 0-1.38 0-2.07a.23.23 0 0 0 -.17-.26.48.48 0 0 0 -.67.44v.83s-.06.25-.18.26-.18-.11-.19-.24c0-.3 0-.6 0-.9s-.09-.33-.32-.32h-1.31c-.22 0-.35.09-.35.33v1.93c0 .23.12.32.35.32zm-43.55-6.09c0 .43.08.87.09 1.3s.13.42.42.4l1.59-.06c.2 0 .28-.11.28-.3 0-.9 0-1.79-.09-2.69a.31.31 0 0 0 -.37-.31c-.55 0-1.1.06-1.65.07-.23 0-.32.13-.31.35zm28.42 6.18c-.16-.49-.3-.93-.45-1.36s-.06-.85-.36-1.08-.75-.09-1.14-.12a1.9 1.9 0 0 0 -.95 0c-.32.16-.26.61-.42.91a4.91 4.91 0 0 0 -.25.57c-.13.42.15 1 .49 1.05 1-.01 2.01-.02 3.08-.02zm-79.06-1.06h3.2c.23 0 .31-.17.37-.35a5.27 5.27 0 0 0 .29-1.42c0-.5 0-.5-.46-.57-.71-.09-1.43-.06-2.14-.09a.38.38 0 0 0 -.44.33 7.79 7.79 0 0 1 -.82 2.05zm28.08-5.1c0-.34 0-.69 0-1s-.1-.47-.43-.47-.92 0-1.38 0-.47 0-.4.48c.09.66.16 1.33.31 2 .09.43-.15 1 .28 1.26s.9 0 1.36 0 .44-.18.38-.49a9.82 9.82 0 0 1 -.12-1.8zm-12.68 5.41v.06h1s.47-.09.44-.43c0-.62-.08-1.24-.11-1.86 0-.27-.15-.35-.4-.33l-2.13.16a.36.36 0 0 0 -.37.41v1.59c0 .22.09.33.32.34zm42 1.83s-.13-.05-.15-.09c-.19-.44-.54-.48-1-.47-.78 0-1.57 0-2.35 0h-2.42c-.34 0-.47.18-.4.46s.27.21.44.22c2.5.22 5 .28 7.52.26h.28c.26 0 .27-.23.25-.41s.11-.53-.21-.58a5.87 5.87 0 0 0 -1.51 0c-.24.05-.13.47-.42.56zm-66.39-9a1.31 1.31 0 0 0 .45 0c.35 0 .49-.14.45-.5-.07-.8-.13-1.6-.18-2.41 0-.36-.2-.46-.54-.45s-.78 0-1.18 0-.52 0-.49.57c0 .78.1 1.56.16 2.34 0 .53.33.72.81.51.24-.1.24-.37.36-.55s.1-.07.15-.11c.18.2-.09.34.04.57zm93-.83h-1.11a.25.25 0 0 0 -.27.31l.18 2.26a.3.3 0 0 0 .37.3l1.58-.1a.31.31 0 0 0 .33-.28 10 10 0 0 0 .31-2c0-.47 0-.47-.5-.49zm-106.74 7.73h1c.25 0 .38-.09.36-.36 0-.69-.09-1.37-.13-2.06 0-.15-.06-.28-.24-.27l-2.13.13a.28.28 0 0 0 -.29.31v1.93c0 .23.12.33.34.33zm67.88-10v-.08h-1.45a.31.31 0 0 0 -.37.37v1.51c0 .23.11.34.33.32l2.82-.23c.21 0 .31-.13.32-.35a10 10 0 0 1 .07-1.1c0-.35-.11-.45-.43-.44zm73.87 5.28a5.47 5.47 0 0 0 -1.09 0c-.32 0-.48.15-.52.51-.12 1.12-.23 2.24-.25 3.37s0 1.1 1.1 1.07c.28 0 .43-.05.37-.39a6.35 6.35 0 0 1 0-2.13c.15-.76.26-1.56.39-2.43zm-160.1-68.61a.51.51 0 0 0 .17-.36 8.08 8.08 0 0 1 1.3-3.15.27.27 0 0 0 0-.32 4.91 4.91 0 0 0 -.69-1.11.28.28 0 0 0 -.36-.09 2 2 0 0 0 -.9.71 3.93 3.93 0 0 0 .48 4.32zm149.26 72.1v-1.45c0-.22-.06-.35-.32-.3-.53.09-1.05.16-1.57.23-.26 0-.35.18-.32.43.06.52.07 1.06.18 1.57s-.16 1 .27 1.27.9 0 1.36 0c.29 0 .42-.12.41-.41-.02-.42-.01-.88-.01-1.34zm0-6.19h.05c0-.34 0-.69 0-1s-.08-.43-.39-.4l-1.8.13a.35.35 0 0 0 -.37.39v2c0 .25.09.4.36.39l1.8-.06c.25 0 .38-.12.37-.39s-.02-.71-.02-1.06zm-38.33-.43v-.06h1.45c.23 0 .33-.1.33-.33q0-.69 0-1.38c0-.22-.1-.35-.34-.33-1 .07-2.06.15-3.1.21-.23 0-.33.11-.28.35s.16.77.21 1.16.16.39.45.38.84 0 1.28 0zm-32.85.35v-.09h1.17c.18 0 .3-.09.28-.3a10 10 0 0 0 -.33-2 .39.39 0 0 0 -.38-.32l-1.72-.05c-.29 0-.43.1-.41.4 0 .64.06 1.29.07 1.93 0 .3.14.4.42.39zm61.55 10.09c.19.14.4.07.61.08h1.8 6.78c.44 0 .46-.07.45-.48s-.21-.37-.46-.36h-2.7l-5.81.08c-.54.06-.54.07-.67.68zm-120.16-9.06c0-1.21 0-2.32 0-3.42 0-.25-.06-.39-.34-.41-.44 0-.87-.05-1.31-.09s-.46.07-.47.41c0 .53-.06 1.06-.09 1.59a.52.52 0 0 0 .06.4 4.15 4.15 0 0 0 2.15 1.52zm75.7 7.44c-.17-.42-.28-.72-.4-1 0-.08-.13-.22-.16-.21-.58.13-.38-.31-.41-.55s0-.5 0-.76-.15-.36-.4-.35h-1.38c-.31 0-.39.15-.36.44.06.68.11 1.37.16 2.06 0 .25.13.37.39.37zm24.23-7.2v1.17s.06.46.5.44.69-.06 1-.06.4-.13.47-.39c.2-.74.41-1.47.62-2.19.09-.28.08-.46-.28-.45h-2.07c-.29 0-.35.16-.34.4zm-2.1 3.36c.17.31-.22.67 0 .86s.62.07.94.09h.69c.27 0 .38-.11.34-.38 0-.5-.11-1-.14-1.51 0-.29-.17-.39-.45-.38l-2.41.13a.3.3 0 0 0 -.32.35v1.24s.11.49.55.52a.46.46 0 0 0 .54-.4c.12-.16.19-.33.26-.52zm-19.5 3.76c-.09-.37-.16-.66-.22-1s-.12-.63-.15-.95c-.1-1.1-.09-.89-1-.9s-1 0-1.36.84a.7.7 0 0 0 0 .66 3.43 3.43 0 0 1 .19.44c.06.15.12.3.19.44s.32 0 .42.06-.22.21-.08.37a.31.31 0 0 0 .19.06 10.77 10.77 0 0 0 1.82-.02zm44.6-8c-.05-.35.14-.91-.14-1.18s-.87 0-1.32-.06a5.06 5.06 0 0 0 -.55 0 .31.31 0 0 0 -.32.3q-.13 1-.3 2c0 .26.09.32.32.31h1.1c1.28.03 1.28.03 1.21-1.33zm-15.94 7.3c-.23-.11-.19-.26-.2-.39 0-.32 0-.64 0-1 0-.15 0-.36-.22-.35s-.18.18-.2.31c-.08.57-.16 1.14-.26 1.71-.06.32 0 .46.39.45h2.07s.56 0 .55-.6a4.24 4.24 0 0 0 0-.62c-.07-.41.16-.92-.16-1.19s-.8-.07-1.21-.08-.49 0-.56.55-.15.86-.2 1.25zm-19.19-7.61c-.21 0-.42 0-.62 0-.5 0-.51 0-.49.51s.09 1.1.13 1.65c.1 1.45-.14 1.2 1.37 1.19.33 0 .43-.15.45-.46 0-.67.09-1.33.12-2 .05-1.03.18-.94-.96-.85zm-72 5.64c0-.43.06-.87.1-1.3 0-.25 0-.4-.31-.42l-1.16-.13c-.31 0-.46.05-.49.39a14.85 14.85 0 0 0 .05 2.75c0 .22.11.34.34.34q.59 0 1.17 0c.28 0 .35-.13.34-.39-.06-.37-.05-.78-.05-1.2zm-7.94-2.91v.76s.13.37.39.33l1.44-.16c1.72-.21 1.34.17 1.33-1.68 0-.34-.17-.43-.48-.4-.6.06-1.19.1-1.79.14-.94.1-.94.09-.9 1.05zm97.91 7.27h13.91c-.11-.62-.11-.62-.67-.61-.79 0-1.58.07-2.38.06-1.43 0-2.86.06-4.29.09-2.06 0-4.11.08-6.15.3-.15.06-.3.01-.43.2zm-13.61-4.36h-.9c-.2 0-.29.09-.26.3 0 .36.1.73.14 1.09.15 1.53.14 1.53 1.65 1.41.24 0 .39-.08.45-.33a14.87 14.87 0 0 0 .27-2c0-.28-.08-.43-.38-.43zm22.15-1.64v1.1c0 .26.11.38.37.36.41 0 .83-.07 1.24-.07s.41-.13.42-.41l.18-2.2c0-.25-.06-.39-.34-.37h-1.44c-.3 0-.41.17-.4.44zm30.81-55.42a2.63 2.63 0 0 0 -.72 1.11 58.66 58.66 0 0 0 -2.11 8c-.05.32-.08.63-.12 1 .8-1.28 2.93-8.7 2.91-10.11zm-119.52 61.21v-.06h4.56c.21 0 .63.15.62-.18s-.43-.16-.66-.17c-1.82 0-3.64-.15-5.45-.25-1.2-.07-2.4-.11-3.59-.16-.19 0-.41-.07-.51.23-.14.48-.07.6.47.6zm108.73-10.09v1.17c0 .23.08.35.32.35h1.17a.28.28 0 0 0 .29-.25 12 12 0 0 0 .28-2.6c0-.21-.11-.29-.31-.28l-1.45.09a.32.32 0 0 0 -.33.36c.03.37.03.72.03 1.16zm-100.85-21.65h-1.16c-4.15.06-8.3-.17-12.45-.36a33.78 33.78 0 0 0 -4.82.17c6.11.79 12.28.23 18.43.19zm-18.95 19.12h-.48c-.46 0-.47 0-.42.47.07.7.15 1.41.22 2.12s.08.68.8.63h.69c.44 0 .47-.06.42-.5-.07-.61-.17-1.23-.22-1.84-.07-.85-.06-.85-.94-.85zm111 9.35v1.18s.08.43.39.41.78 0 1.17 0 .44-.1.41-.42c-.09-.84-.18-1.69-.26-2.54 0-.23-.12-.33-.36-.29l-1 .13c-.3 0-.38.19-.36.47s-.05.69-.03 1.06zm-27.28-7.12h1c.24 0 .39-.07.39-.35 0-.62 0-1.24 0-1.85 0-.24-.09-.34-.32-.33h-1.44c-.37 0-.53.2-.55.56s-.09.49-.13.74-.32.85-.08 1.11.71.1 1.09.12zm-18.08-2h1.38a.3.3 0 0 0 .34-.33c0-.37 0-.74.05-1.11s-.09-.41-.39-.39l-2 .14c-1.21.08-1-.14-1.1 1.12v.14c0 .3.12.41.41.41zm-51.81 10h.9s.41-.12.39-.41 0-.79 0-1.18a.33.33 0 0 0 -.36-.4l-2.06-.22c-.22 0-.36 0-.36.29a9.43 9.43 0 0 1 -.09 1.59c0 .16 0 .31.22.26.45-.14.94.22 1.32.08zm86.07-6.55v.82s.05.39.34.38c.48 0 1 0 1.44-.05a.36.36 0 0 0 .41-.36c.06-.64.12-1.28.19-1.92 0-.27-.09-.37-.35-.36-.51 0-1 0-1.52 0-.29 0-.4.14-.41.42s-.12.73-.14 1.08zm14.2 1h-1c-.23 0-.33.13-.31.35 0 .42.06.83.1 1.25.09 1.05.07.94 1 .77h.34c1.22-.23 1 0 1-1.18 0-.36.16-.81-.06-1.07s-.73-.05-1.11-.07zm-134.67-38.2a8.25 8.25 0 0 0 1.2 2.51 3 3 0 0 0 1.2 1c.16.07.32.19.54 0a36.41 36.41 0 0 1 -2.14-6.37 18.49 18.49 0 0 1 0 3.49c-.36-.02-.4-.45-.8-.63zm12.07 38.24h-1c-.22 0-.35.09-.35.32v1.59c0 .23.1.33.34.32h1.17c1 0 1 0 1-1 0-.36.17-.81-.06-1.06s-.8-.13-1.1-.17zm115.93-38.63a10.63 10.63 0 0 1 -2.89.71.22.22 0 0 0 -.24.21c0 .33-.3.55-.36.91.88-.06 1.73-.16 2.58-.15a3 3 0 0 0 2-.71c.24-.19.48-.36.7-.56a3.09 3.09 0 0 0 .77-1.15 2.54 2.54 0 0 0 -.81.42 12.46 12.46 0 0 1 -2.89 1.46c-.12 0-.28.13-.37 0s.07-.25.18-.32zm12 36.5v-1.1c0-.12 0-.24-.1-.31a3 3 0 0 0 -1.47.12.73.73 0 0 0 -.08.33 9.54 9.54 0 0 0 -.13 1.3c0 .4-.34.9 0 1.18s.84 0 1.27.05h.14a.34.34 0 0 0 .37-.39c.04-.45.05-.84.05-1.23zm-13.47-4.52c.25.63.25.63.81.63h1c.38 0 .45-.18.45-.51s0-.53-.44-.52c-1.58 0-3.17 0-4.75.06-.49 0-.52.07-.51.52s0 .43.5.44h2.27c.62-.04.62-.05.72-.67zm-53.78.77h.76c1.22.05 1.1.17 1.18-1.14 0-.31 0-.48-.42-.41a12.19 12.19 0 0 1 -2.34.07c-1.12 0-1.11 0-1 1.09 0 .26.13.36.38.36zm18.63 2c-.8.08-1.47.15-2.13.2-1.25.11-1.33.21-1.2 1.46 0 .23.11.33.34.32l2.21-.09c.17 0 .34 0 .39-.22.21-.62.3-1.15.44-1.77zm-10.47-1.32c.16.73.16.73.88.75s1.15 0 1.73.06.69 0 .73-.65c0-.18 0-.36.05-.55s0-.35-.3-.34l-3.82.22a.67.67 0 0 0 .05.58c.09.22 0 .66.38.61s.09-.4.2-.58c.06-.12.08-.13.15-.2zm-72.23 7.57h.82s.36-.07.38-.31c.06-.57.11-1.14.17-1.71 0-.19-.06-.31-.26-.32-.51-.05-1-.08-1.51-.15-.32 0-.4.14-.42.4s0 .82-.08 1.23c-.06.86-.06.86.9.86zm137.72-42.73a1.09 1.09 0 0 0 .48-.77c.1-.59.22-1.18.29-1.77a39.37 39.37 0 0 1 1.72-7.73c.08-.24.14-.47.21-.71-1.9 3.37-2.46 7.08-2.7 10.98zm-105.49 41.13v-.55c0-1.24 0-1.24-1.23-1.07-.44.06-.44.08-.4.52.07.76.14 1.51.2 2.27s0 .61.63.65h.34c.29 0 .43-.09.43-.39.03-.46.03-.94.03-1.43zm37-6.22c.09.08.12.09.12.11s0 .09 0 .13c.07.53.07.54.56.57s.78 0 1.17 0c.11 0 .27 0 .31-.1.11-.31-.09-.58-.16-.86s-.24-.25-.44-.24c-.72 0-1.43.07-2.15.09s-1.38 0-2.08 0c-.35 0-.39.22-.41.5s.09.43.39.43l2.28.06c.26 0 .39-.09.38-.37.01-.03.03-.14.03-.32zm9.87 2.58s0-.09 0-.14c0-.62 0-.64-.57-.58l-1.85.2c-1 .13-1 .13-1 1.19 0 .32.13.4.41.38.69-.05 1.37-.08 2.06-.11 1.04-.04.89.05.95-.94zm50.71-2.85a.67.67 0 0 1 0 .44c0 .34.13.43.45.43 1.12 0 1.24-.08 1.15-1.14 0-.26-.13-.36-.39-.34-1 .07-2.06.14-3.09.18-.32 0-.44.13-.44.46 0 1.1 0 .93.86.89h.21a3.18 3.18 0 0 0 .88-.07c.32-.14.1-.56.27-.8.05-.03.08-.03.1-.05zm-62.29 1.29a.59.59 0 0 1 -.14 0c-1.39 0-1.39 0-1.37 1.36 0 .34.12.45.45.41.7-.09 1.41-.16 2.12-.24s.59-.06.6-.65c0-.14 0-.28 0-.41a.33.33 0 0 0 -.36-.39zm62.5 12.59h6.31c-.16-.36-.14-.79-.58-.8s-.83-.2-1.18.13c-.07.07-.13.06-.17 0-.26-.3-.6-.17-.91-.17-.89 0-1.79 0-2.69 0-.71.05-.71.05-.76.84zm-132.31-10.88v1.59c0 .27.09.44.37.49a3.56 3.56 0 0 1 .47.1c.3.08.42 0 .43-.34a16.73 16.73 0 0 0 -.11-3.24c-.11-.61-.14-.62-.75-.63-.33 0-.44.13-.43.45.03.52.02 1.05.02 1.58zm33 7.9a2.06 2.06 0 0 1 -.2-1c-.08-.64-.17-.71-.78-.62-.25 0-.3.16-.26.38.07.41.16.81.2 1.23s.19.38.46.39c.5 0 1 .05 1.51.07s.56 0 .56-.59c0-.3 0-.6 0-.9 0-.76 0-.77-.78-.68h-.07c-.33 0-.5.14-.48.5a2.83 2.83 0 0 1 -.12 1.22zm91.91-13.61h-1.72c-.14 0-.31 0-.39.08a1.22 1.22 0 0 0 0 .8c0 .25.27.21.45.22h3.51c.41 0 .47-.11.47-.65s0-.44-.49-.45zm-21.43 14.94c-.09-.51-.18-.92-.24-1.32-.2-1.29-.25-1.33-1.54-1.2-.26 0-.39.13-.39.38v1.79c0 .22.09.35.32.35zm14.33-7.74v.9c0 .09 0 .18.07.25a2.5 2.5 0 0 0 1.58-.1.35.35 0 0 0 0-.13c.13-.68.26-1.36.38-2 .05-.23-.06-.35-.3-.33h-.27c-.45.06-1-.16-1.33.16s-.13.85-.13 1.25zm-53.32-35.92h.41c1.65-.15 3.29-.47 4.95-.5.86 0 1.29-.39 1.6-1.43a.29.29 0 0 0 0-.32.31.31 0 0 0 -.33 0l-2.07 1.1c-.2.11-.4.23-.61.32s-.28 0-.25-.11c.07-.43-.18-.25-.35-.2-.93.27-1.85.55-2.78.84-.25.04-.46.04-.61.3zm25.81 38.93a1.49 1.49 0 0 0 0 .26c.36 1.64 0 1.35 1.58 1.39s1.32.37 1.32-1.38c0 0 0-.05 0-.07q0-.35-.33-.33zm6.62 6v-.15h3.33.48s.2-.2.09-.36-.42-.15-.64-.16l-6.57-.07a2 2 0 0 0 -.35 0 .32.32 0 0 0 -.25.36c0 .17.05.34.25.37a5 5 0 0 0 .55 0zm33-9.75v1.11c0 .13 0 .31.15.34a3.4 3.4 0 0 0 1.23 0c.11 0 .13-.17.15-.29l.27-2.26c0-.22 0-.36-.29-.34l-1.24.1c-.22 0-.32.12-.31.35s.03.61.03.95zm-5.11.34v1c0 .23.11.34.34.32l1-.06c.25 0 .37-.11.37-.38 0-.48 0-1 .06-1.45.07-1.06.09-.9-.82-.88h-.41c-.36 0-.5.17-.52.5s-.02.72-.02.95zm-36.28 6a6.87 6.87 0 0 0 .13 1.1c.23 1.19.16 1 1.35 1 .27 0 .37-.13.35-.38 0-.46-.08-.92-.13-1.38-.14-1.3 0-1.08-1.34-1.14-.27 0-.37.12-.36.38zm20.13-2v-.69c0-.78 0-.78-.75-.73a2.88 2.88 0 0 1 -.41 0c-.29 0-.43.1-.44.4s-.07.78-.09 1.17c-.07 1.34-.07 1.33 1.31 1.22.3 0 .41-.13.4-.42s-.02-.68-.02-.95zm-85.91-2.89h1.72c.13 0 .31 0 .38-.09s0-.53 0-.8-.27-.21-.44-.21c-1.15 0-2.3.07-3.45.08-.36 0-.47.14-.46.49s.07.53.45.52zm103.91 2.05c0-.37-.05-.73-.07-1.1s-.12-.33-.35-.32-.69 0-1 0-.39.13-.39.42c0 .65.09 1.28.15 1.92 0 .14 0 .31.21.31a3 3 0 0 0 1.47-.22c.28-.16 0-.6 0-.91a.33.33 0 0 0 -.02-.15zm-11.44-4.31c1.34-.07 1.34-.08 1.31-1.42 0-.31-.07-.48-.42-.48a7.77 7.77 0 0 1 -1-.08c-1.06-.11-1.06-.11-1 1s.07.99 1.11.93zm-28.61-36.59-.1-.1-1.7 1.22a3.45 3.45 0 0 1 -.41.25.21.21 0 0 1 -.19 0c-.1-.06-.06-.17 0-.24.16-.23.34-.44.49-.67s.25-.24 0-.45a40.8 40.8 0 0 1 -3.45 2.24 15.7 15.7 0 0 0 3.22-.15.47.47 0 0 0 .24-.13 13.18 13.18 0 0 0 1.9-1.97zm-73.54 43 .09-1.37c0-.18 0-.35-.2-.35-.41 0-.9-.2-1.19.1a1.06 1.06 0 0 0 0 1 2.62 2.62 0 0 1 .1 1.41c-.11.93 0 1 .87.94.29 0 .41-.1.39-.4-.08-.4-.06-.86-.06-1.32zm74.4-7.79c-1.42 0-1.53.17-1.23 1.6 0 .24.15.36.41.35h1.37c.47 0 .48 0 .53-.53 0-.09 0-.18 0-.28.06-1.16.06-1.16-1.08-1.13zm-73.85 4.8c0 1 0 1 .94 1.09s1 .13 1.07-.81v-.41c0-.93 0-1-.93-1s-1.06.05-1.08 1.14zm62.47-2.27v-.06h.69c1 0 1-.05 1-1 0-.33-.08-.46-.42-.43l-1.92.18c-.82.07-.88.14-.82 1v.07c0 .23.1.33.33.33zm62.72 9c.24.43.27.82.78.81h4.35c.2 0 .44 0 .42-.3s-.19-.38-.46-.38l-1.45-.06c-1.17-.07-2.34-.07-3.64-.07zm-7.69-3.22c0-.44 0-.88 0-1.31 0-.63 0-.63-.58-.52s-.56.1-.56.64v2.55c0 .56 0 .57.59.53h.2c.31 0 .38-.13.37-.43-.05-.51-.03-.99-.03-1.47zm-12.52-3.78a2.61 2.61 0 0 0 -.28 0c-.55 0-.56 0-.6.58s-.07 1.06-.09 1.59c0 1-.14.81.84.79.32 0 .44-.13.48-.44.09-.73.22-1.46.34-2.19 0-.22 0-.36-.28-.35zm-113.43-5.34h1.31c.26 0 .4-.09.38-.36s0-.28 0-.42c0-.29-.11-.41-.4-.42-.87 0-1.75 0-2.62 0-.3 0-.42.15-.38.44a1.29 1.29 0 0 1 0 .34c0 .33.14.46.46.44zm91 2.94a3.43 3.43 0 0 0 -1.15-.06c-.19 0-.32.08-.32.28 0 .89 0 1.79-.06 2.68 0 .2.08.3.29.29a5.07 5.07 0 0 1 .55 0c.23 0 .3-.14.33-.35.07-.96.2-1.89.32-2.84zm28.48-4.06c.82 0 1.42-.06 2-.1.39 0 .46-.15.46-.53s-.26-.33-.48-.33l-3.38-.05c-.32 0-.47.09-.44.43s.06.57.46.58 1.03 0 1.34 0zm-20.5 12.18c0-.36 0-.72-.05-1.08s0-.46-.07-.69-.06-.34-.29-.29-.18.2-.15.33c.06.41.12.82.2 1.23.19.94.35 1 1.29.93a.38.38 0 0 0 .38-.33c.08-.38.15-.76.23-1.15.21-1.09.21-1.07-.88-1-.36 0-.48.14-.47.49a3.89 3.89 0 0 1 -.23 1.56zm3.07-6.91v.34c-.07 1.09 0 1.17 1.13 1 .24 0 .37-.13.36-.4 0-.64 0-1.28 0-1.92 0-.34-.14-.46-.46-.42h-.41c-.34 0-.52.09-.5.46s-.15.62-.16.94zm-11.48 7.31a6.92 6.92 0 0 1 -1.25-2.42.27.27 0 0 0 -.06-.12c-.14-.17-.33-.12-.51-.13s-.22.12-.25.27l-.36 2c-.05.27.06.39.33.38zm-.32-8.94h.62a.28.28 0 0 0 .3-.23c.12-.63.25-1.25.37-1.88 0-.18-.06-.26-.23-.24l-1.36.16a.33.33 0 0 0 -.31.38c0 .5 0 1-.06 1.51 0 .24.11.32.33.32zm-101.27-40.18a9.21 9.21 0 0 0 -2-7.06c.66 2.37 1.46 4.69 2 7.06zm130.42 40.83c0-.36.25-.83 0-1.09s-.74 0-1.13 0h-.07c-.23 0-.32.13-.3.36.05.64.1 1.29.14 1.93 0 .29.16.4.44.38a2 2 0 0 1 .35 0c.33 0 .51-.1.51-.46s.04-.73.06-1.1zm-21.55 4.22v-1c0-.11 0-.25-.14-.28a2.34 2.34 0 0 0 -1 .06c-.25.06-.18.34-.22.53s-.09.5-.13.75c-.19 1.19-.41 1.15 1.06 1.15h.13c.23 0 .34-.11.33-.35s-.02-.54-.03-.84zm20.38 2.29v.5c-.06 1.08 0 1.16 1.12 1 .25 0 .29-.14.27-.37-.09-.75-.16-1.51-.23-2.27 0-.26-.08-.43-.41-.4-.54 0-.7.11-.71.44s-.04.81-.04 1.12zm-111.74-12.62h-.76c-.14 0-.29 0-.31.2a2.37 2.37 0 0 0 .15 1.35c.14.25.56.11.85.14s.64.05 1 .07.3-.08.29-.28 0-.23 0-.35c-.07-1.12-.07-1.12-1.22-1.13zm50.73 11.28h1.73c.22 0 .48.05.48-.32s-.07-.52-.45-.52c-1.2 0-2.39 0-3.59 0-.32 0-.39.16-.38.43s.12.42.41.41zm23.56-3.38c0-.46-.08-.92-.1-1.38 0-.26-.09-.4-.36-.38s-.5 0-.56.35a19.61 19.61 0 0 0 -.12 2.76c0 .24.12.34.35.32h.41c.32 0 .44-.15.42-.48s-.04-.81-.04-1.23zm46.78-.07h-.49c-.54 0-.56 0-.61.6l-.06 1c0 .24.05.35.31.3l1.29-.24c.53-.11.55-.11.53-.68-.04-1.19.11-1.02-.97-1.02zm8.73 7.19 2.35.09c.15 0 .35.08.4-.15s-.12-.27-.28-.34l-.13-.05a9.72 9.72 0 0 0 -2.74-.24c-.09 0-.23 0-.21.12s0 .33-.14.17c-.55-.45-1.19-.29-1.79-.32-.14 0-.32 0-.32.19s0 .39.24.45a1.91 1.91 0 0 0 .48 0zm-3.22-5.27c-.17 0-.2.15-.25.25l-1.11 2.22a1.82 1.82 0 0 0 -.19.43c-.21.82.09 1.16.89 1.1.32 0 .45-.13.44-.46a18.19 18.19 0 0 1 .12-2.33c.04-.44.07-.84.1-1.25zm10 4.19a.78.78 0 0 0 -.44.61.49.49 0 0 1 -.61.41c-.24 0-.55 0-.64.26s-.32.33-.58.31l-.89-.08c-.22 0-.36.05-.38.29s.11.32.33.32l3.24-.06c.2 0 .31-.09.28-.3a9 9 0 0 0 -.34-1.8zm-29.42-1a4.26 4.26 0 0 1 0-.62c.09-.76.06-.73-.74-.7h-.14c-.26 0-.38.13-.39.38 0 .66-.05 1.33-.07 2 0 .11 0 .25.16.27a3.7 3.7 0 0 0 1.1 0c.17 0 .14-.21.13-.35-.06-.34-.06-.64-.06-.98zm-36-1.72h.83c.68 0 .68 0 .66-.7v-.24a.25.25 0 0 0 -.3-.29h-2.14c-.14 0-.3 0-.32.2a1.39 1.39 0 0 0 0 .88c.13.23.42.11.64.12s.37.03.62.03zm-75.16-8.8c0 .39.11.51.38.5h2c.3 0 .48-.06.48-.41s0-.57-.43-.6c-.73-.06-1.46-.1-2.2-.13s-.85.05-.73.84v.07s0 .18.16.19.13-.1.17-.18zm19.94 4.91v-.05c.46 0 .92-.05 1.38-.06s.35-.26.37-.52-.08-.43-.39-.43c-.85 0-1.7 0-2.55 0-.26 0-.44 0-.42.37 0 .52.12.7.44.71zm52 3.88a5.71 5.71 0 0 1 1.09 0c.29 0 .43-.12.43-.41s0-.32 0-.48a.22.22 0 0 0 -.25-.25h-1.45a.23.23 0 0 0 -.27.24v.27a2 2 0 0 1 -.05-.26.25.25 0 0 0 -.27-.24h-.56c-.39 0-.33.31-.32.55s0 .54.35.53zm-26.9 1.51v-.48c0-.69 0-.69-.66-.69h-.27c-.15 0-.28.07-.29.23a8.4 8.4 0 0 1 -.42 1.73c-.06.2 0 .31.24.32h.34c1 0 1 0 1-1zm48.8-3.59-1.39.08a.29.29 0 0 0 -.31.36c0 .46.07.92.13 1.38.07.67.14.55.74.6.33 0 .46-.11.5-.41.03-.63.14-1.27.26-2.01zm5.83-5.15v.63c0 .69 0 .69.69.67h.2c.29 0 .42-.11.41-.4 0-.58 0-1.15 0-1.73 0-.33-.13-.47-.45-.46h-.41c-.3 0-.41.14-.4.42s-.11.57-.11.87zm27.86-2.49c-1.24.07-1.23.07-1.16 1.14 0 .27.08.42.39.41s.74 0 1.1 0c.6 0 .6 0 .62-.6-.05-1.01-.05-1.01-1.02-.95zm-16.22 3.43c1.13-.09 1.13-.09 1.2-1v-.07c0-.22-.06-.34-.29-.35-.41 0-.82-.07-1.24-.09-.65-.05-.66-.05-.67.59-.09 1.12-.16 1 .93.92zm9.32-1.69h.41c1 0 1-.06.93-1 0-.26-.09-.39-.36-.37l-1.65.08c-.26 0-.35.14-.37.39-.06 1.1-.29 1 .83.95zm-58.48 3.19h1c.64 0 .7-.09.67-.72 0-.29-.1-.42-.41-.39-.82.09-1.64.18-2.46.25-.39 0-.32.31-.34.55s.11.43.41.4.76-.07 1.13-.09zm31.63-5v-.05c-.48 0-1 0-1.45-.09-.3 0-.43.1-.41.4v.34c0 .28.13.37.38.34l3.17-.33c.18 0 .38 0 .36-.32s-.2-.28-.39-.29zm-70 6.89c0 .62.09 1.19.15 1.76s.44.29.7.33.32-.17.31-.4c-.06-.82-.13-1.64-.18-2.47 0-.26-.15-.34-.4-.33-.5 0-.58.09-.58.61zm2.38-5.66-7.59-.13c-.21 0-.54-.11-.55.23s.34.24.53.24c1.75 0 3.5 0 5.25-.07a10.12 10.12 0 0 0 2.35-.26zm90.62 6.73v-.9c0-.44 0-.44-.49-.45h-.14c-.36 0-.5.13-.48.49 0 .64.06 1.28.08 1.93 0 .31.17.37.44.36.53 0 .63-.06.65-.4s-.04-.67-.04-1.02zm-58-6.34v.06h1.38s.39-.14.4-.41 0-.46-.34-.46h-2.9c-.3 0-.39.14-.39.42s.11.43.4.42zm47 6.87v-1.1c0-.16-.07-.24-.24-.27-.47-.06-.63 0-.7.51-.1.7-.17 1.41-.27 2.11 0 .24 0 .35.28.35a2.8 2.8 0 0 1 .41 0c.37 0 .49-.17.48-.5zm-100.19-1.33c0-.26 0-.51 0-.76s0-.3-.19-.31a2.18 2.18 0 0 0 -1 .06c-.31.13-.21.47-.26.73s-.07.45-.09.68c0 .52 0 .55.51.54.99-.01 1 .26 1.03-.94zm127.56 2.58c0-.71.08-1.42.11-2.13 0-.15.09-.36-.16-.38s-.19.18-.22.31c-.17.83-.32 1.67-.41 2.51a6.1 6.1 0 0 0 0 1.86c0 .18.07.37.32.36s.25-.21.25-.39c.11-.71.11-1.43.11-2.14zm-38.88-2.49a2.43 2.43 0 0 0 .85 0c.25 0 .35-.14.36-.39 0-.71.11-1.42.15-2.13 0-.18.05-.39-.22-.41s-.44 0-.52.3a17.53 17.53 0 0 0 -.66 2.63zm-28.95-2.39h.48c.75 0 .78-.08.65-.81a1.77 1.77 0 0 0 0-.2c0-.19-.15-.26-.34-.24l-1.58.16c-.11 0-.26 0-.3.14a1.33 1.33 0 0 0 0 .88c.08.22.32.14.49.14s.43-.07.6-.07zm60-5.37h-2.83c-.33 0-.42.15-.36.42s.21.21.37.2c.73 0 1.47-.08 2.2-.08a15.67 15.67 0 0 1 1.94-.12 8.53 8.53 0 0 0 1.51-.05c.09 0 .18 0 .18-.16s-.1-.14-.19-.14h-2.82zm-66.33 9.43h-1.24c-.43 0-.6.29-.41.67s.44.13.67.18.3-.26.47-.35c.06.17.06.37.36.36h1.65c.11 0 .22 0 .26-.15a.59.59 0 0 0 -.52-.7zm-.34-3.82h1.37c.41 0 .31-.32.32-.55s0-.36-.3-.34l-2.81.24c-.23 0-.31.15-.3.37s.11.34.34.33zm-66.2 2.35c0 .39 0 .78.07 1.16s.1.4.38.37.41-.05.43-.32c.06-.69.13-1.37.19-2.06 0-.26-.09-.36-.35-.39-.72-.08-.81 0-.77.69.02.18.04.36.05.55zm121.16-4.06c.3 0 .59-.06.89-.06s.36-.14.35-.39 0-.23 0-.34c0-.32-.1-.46-.43-.46s-.82 0-1.23-.07-.46.08-.46.41c-.01.99-.3.99.88.91zm8.68 4.12v.2c0 .89.14 1 1 .69a.36.36 0 0 0 .28-.34c0-.43.08-.86.13-1.29 0-.27-.09-.35-.35-.36-1.05 0-1.05 0-1.05 1zm-109.57 5.35a.27.27 0 0 0 .27.18l8.09.31a2.82 2.82 0 0 0 .41 0 .14.14 0 0 0 .12-.15c0-.06 0-.13-.1-.16a1.87 1.87 0 0 0 -.62-.06l-5.39-.1zm-2.82-11.39h2.07a.22.22 0 0 0 .23-.21c0-.15 0-.28-.2-.31a2.73 2.73 0 0 0 -.41 0l-3.17-.09h-.35c-.25 0-.24.24-.27.41s.14.26.3.26zm55.2.69c-1.11 0-1.1 0-1 .91 0 .25.11.38.38.35s.82-.11 1.23-.12c.79 0 .61-.19.54-.76a.38.38 0 0 0 -.46-.38zm48.66-1.57h-.69c-.22 0-.34.09-.33.33a2.77 2.77 0 0 1 0 .41c0 .31.1.47.42.48l1.31.06c.27 0 .36-.12.35-.38 0-1.08 0-.9-.86-.91zm-117.48 12.79c-.17-.39-.12-.8-.63-.8-.79 0-1.57 0-2.35 0-.23 0-.34.08-.34.32s0 .4.33.42a29.07 29.07 0 0 0 2.99.06zm-3-12.83c.23 1 .23 1 1.16 1h.55c.71 0 .72 0 .74-.72 0-.34-.09-.47-.42-.45a11.16 11.16 0 0 0 -2.04.17zm7 12.87h1.43c.62 0 1.24 0 1.86-.06.32 0 .46-.27.32-.51s-.27-.13-.42-.14h-2.42c-.63-.03-.63-.02-.82.71zm85.63-10.78a2.2 2.2 0 0 1 .13 1c0 .22 0 .41.32.42s.41-.11.43-.4.09-.87.13-1.3c0-.11.05-.27 0-.34-.24-.27-.56-.1-.83-.06s-.58-.09-.59.3a5.67 5.67 0 0 0 .2 1.81c.13-.5-.05-.91.16-1.43zm-31.37 2.57h1.79c.16 0 .32 0 .35-.25s0-.4-.39-.38c-1.14.06-2.28.15-3.43.23h-.14c-.12 0-.21.08-.2.22a.22.22 0 0 0 .23.21h1.79zm76.12 2.26-1.23.16c-.28 0-.38.2-.38.47v1.79c0 .12-.08.29.19.34zm-107.81-.1v-1c0-.2 0-.39-.29-.35s-.52 0-.52.3v2.27c0 .27.19.33.42.33s.32-.14.32-.35zm88.57-6.73h-.83c-.25 0-.31.18-.28.38s-.15.57.22.63c.57.09 1.14.1 1.72.14.11 0 .24 0 .26-.16a1.29 1.29 0 0 0 0-.87c-.11-.2-.38-.09-.58-.11zm-76.69 6.58v-.27c0-.46 0-.92-.07-1.38 0-.15 0-.35-.22-.36s-.24.21-.26.39c-.1 1-.11 2.1-.13 3.16 0 .2 0 .42.29.43s.35-.23.35-.46c0-.5-.01-1-.01-1.51zm46.54-2.62h-.06a20.92 20.92 0 0 0 -.24 3.06c0 .17.12.24.27.23h.42c.34 0 .43-.13.36-.46-.19-.87-.36-1.75-.55-2.62a.26.26 0 0 0 -.25-.21zm-83.2 8.06v-.05h-1.29c-.12 0-.24 0-.24.18s.14.35.17.32c.29-.29.29 0 .35.15s.21.16.34.16h1.93c.2 0 .36 0 .35-.3s0-.47-.35-.47zm12.68-6.8h1.1s.29-.24.29-.45 0-.46-.27-.46a15.42 15.42 0 0 0 -2.25.11c-.26 0-.21.26-.23.43s.06.31.27.31zm95.54-5.26c.09.73.09.76.37.79.62.07 1.24.1 1.86.16.28 0 .37-.12.35-.38s.06-.53-.33-.55c-.74-.07-1.47-.12-2.25-.07zm-59.14 9.2h1.38c.25 0 .39-.08.39-.36s-.13-.36-.38-.35l-2.68.11c-.22 0-.35.11-.35.34s.17.24.34.24zm58.42 3.76h-7.24c-.18 0-.44 0-.41.23s.29.15.45.15a67.06 67.06 0 0 0 7.15-.38zm34.24-9.48-.06 1.38c0 .15 0 .28.21.29a.25.25 0 0 0 .29-.23v-.2c.14-.86.27-1.73.4-2.59 0-.22 0-.43-.26-.44s-.51-.06-.52.35-.07.96-.11 1.44zm-60 4.31c-.9 0-.86-.11-.83.87 0 .53 0 .53.54.55h.48c.55 0 .55 0 .6-.57.04-.88.04-.88-.83-.85zm59.44-1.79c0-.19.1-.5-.26-.5-.6 0-1.2 0-1.79.06-.29 0-.28.27-.3.47s.08.29.27.32l1.43.22c.55.08.55.04.61-.57zm-70.65-4.27v-.06h-1.24c-.35 0-.33.25-.33.48s0 .45.3.42l2.61-.26c.21 0 .25-.17.25-.35s-.18-.23-.34-.23zm60 9c.06-.69.11-1.26.15-1.82s0-1 .06-1.45c0-.3-.14-.34-.39-.28a.39.39 0 0 0 -.32.4 7.37 7.37 0 0 0 -.07 2 1.89 1.89 0 0 0 .49 1.18zm-23.45-5.74-.09.83a.28.28 0 0 0 .11.3.53.53 0 0 0 .76-.4c0-.62.05-1.24.06-1.87 0-.19 0-.37-.28-.36s-.47 0-.49.33zm-17.05 3.41v-.34c0-.67-.06-.7-.7-.65-.29 0-.41.14-.39.43a6.33 6.33 0 0 0 .12 1.23c0 .14 0 .26.22.32.55.19.8 0 .78-.57-.05-.14-.06-.28-.07-.42zm-37.35.86h1s.34-.15.34-.39 0-.43-.31-.42l-2.19.07c-.25 0-.28.18-.28.38s.08.36.31.35zm56.83-9.45h1c.35 0 .33-.24.33-.48s0-.4-.32-.4c-.73 0-1.46.1-2.19.16-.26 0-.28.18-.22.39a.4.4 0 0 0 .41.29zm-42 8.47c-.12 0-.23 0-.35 0h-.41c-.26 0-.44.06-.42.38s.09.54.43.55 1 0 1.44 0c.31 0 .39-.15.39-.42 0-.49 0-.54-.53-.55zm61.21 4.69h1.66c.13 0 .3 0 .3-.18s0-.34-.24-.38a1.86 1.86 0 0 0 -.41 0h-1.86-1c-.16 0-.33.05-.34.27s.19.21.34.22zm-44.48-3.71a2.48 2.48 0 0 0 -.07-.88c-.12-.69-.15-.7-.84-.66-.32 0-.52.08-.52.47 0 1.23-.16 1 1 1.08.15-.01.27-.01.43-.01zm26.62-1.55v1.26c0 .2.07.37.31.38s.28-.18.3-.37c.05-.73.11-1.46.15-2.19 0-.21.05-.43-.28-.43s-.41.13-.42.41-.05.7-.06.91zm-104.78-6.81h.69c.23 0 .41-.06.38-.35s0-.48-.32-.5l-1.58-.11a.27.27 0 0 0 -.29.11.57.57 0 0 0 .5.85zm116.51.5v.06c-.35 0-.69 0-1 0s-.28.36-.3.59.13.29.35.27l1.78-.15c.32 0 .37-.19.37-.46s-.18-.33-.41-.32zm7.24 4.33h-1.15c-.2 0-.39 0-.38.29s-.08.78.18 1.12h.2c.87 0 1-.14 1.14-1 .01-.11.02-.22.05-.41zm-113.21-5.25v-.06h-1.86c-.2 0-.38 0-.37.27s.18.24.34.24h3.86a.48.48 0 0 0 .2 0 .15.15 0 0 0 .12-.14c0-.1 0-.21-.1-.23a1.89 1.89 0 0 0 -.47-.06zm102.57 1.13a1.05 1.05 0 0 0 -.19 0h-1.1c-.7 0-.68 0-.63.68 0 .39.19.47.52.42a4.88 4.88 0 0 1 .76-.07c.36 0 .56-.14.59-.5.01-.21.13-.35.05-.53zm-11.27.48c0-.25 0-.5 0-.75a.34.34 0 0 0 -.36-.4h-.42c-.22 0-.29.1-.24.29a7.53 7.53 0 0 1 .23 1.57c0 .31.19.36.46.35s.33-.17.33-.41zm-122-51c-.26.93.8 3.59 1.66 4.4a23.78 23.78 0 0 0 -1.66-4.41zm7 60.88h-1.16c-.15 0-.27.06-.26.24s0 .33.21.38h.2l2.06.09c.19 0 .37 0 .36-.28s-.06-.45-.37-.44-.69 0-1.03 0zm151 2a20.55 20.55 0 0 1 -.12-2.2c0-.15 0-.36-.19-.37s-.3.08-.39.29a6.2 6.2 0 0 0 -.11 2.1.21.21 0 0 0 .21.22 1.06 1.06 0 0 0 .56-.09zm-32.07-9.5.06-.82c0-.2-.07-.29-.27-.3s-.48.07-.48.42c0 .6-.05 1.19-.07 1.78 0 .18-.08.39.21.42s.45 0 .46-.34.01-.82.05-1.21zm-41 4.78h.68a.24.24 0 0 0 .24-.19c.18-.58 0-.87-.62-.84h-.75c-.18 0-.3.05-.33.26-.09.69-.24.75.57.74zm-54.39-11.71 9.1.15a46.12 46.12 0 0 0 -9.1-.15zm63.86 11.07a2.43 2.43 0 0 0 0-.27c0-.49-.05-.5-.53-.49h-.48c-.09 0-.2 0-.22.14a1.92 1.92 0 0 0 0 1c.09.28.4.16.61.17.65.1.65.1.62-.55zm42.21-8.94h1c.25 0 .35-.15.35-.4s-.17-.3-.37-.31h-1.51c-.35 0-.44.14-.43.53s.25.26.44.26zm-33.34 10.15a5.06 5.06 0 0 0 .56 1.64c.1.18.22.41.47.33s.3-.36.23-.64-.2-.71-.28-1.07c-.05-.21-.15-.33-.37-.33a1.24 1.24 0 0 0 -.61.07zm65.64-20.89c-.64 3.22-1 6.62-.72 8.2.08-2.74.46-5.47.72-8.2zm-22.86 16.75h-.38a1.84 1.84 0 0 0 -.47.06c-.11 0-.18.7-.11.85s.28.12.43.11.59-.08.88-.13a.58.58 0 0 0 .49-.68c0-.37-.34-.21-.54-.24s-.19.03-.3.03zm-116.67 5.58c0-.38 0-.76-.08-1.14s-.09-.64-.13-1-.11-.41-.38-.4-.21.25-.21.42v1.51s.06.68.8.61zm-25.13-.37c.1-.06.19-.09.21-.14.16-.38.32-.76.46-1.14.24-.69.18-.77-.57-.78h-.19c-.16 0-.26.08-.24.25a6.74 6.74 0 0 0 .33 1.79zm97.76-5.39v1.3c0 .14 0 .3.18.31s.24-.17.25-.33c.06-.84.11-1.69.16-2.53 0-.22 0-.42-.29-.41s-.31.2-.32.42zm-28.5-23.67c-1.59 0-3 0-4.55 0a6.48 6.48 0 0 0 4.55-.02zm1.65 31.26v.08l1.63.14 3.08.23c.16 0 .35 0 .36-.19a.29.29 0 0 0 -.33-.35h-1zm-52.68-12.94h-.76a.2.2 0 0 0 -.22.11.51.51 0 0 0 .39.69h1.38c.28 0 .34-.17.37-.4s-.13-.31-.34-.31zm-24.82-2.59a5.34 5.34 0 0 0 0 1.12c0 .18 0 .42.24.4s.58.16.74-.16a1.69 1.69 0 0 0 .21-.78c0-.27-.34-.24-.53-.34s-.37-.27-.66-.24zm136.87 3.94c-1 0-1 .08-1.11.69 0 .25 0 .35.27.33s.64 0 .95-.09.5-.22.49-.66-.29-.26-.5-.27-.14 0-.1 0zm-95.31 12.1s0 .06 0 .06a31.41 31.41 0 0 0 3.5.06c.1 0 .2-.05.2-.15s-.1-.19-.22-.19h-3.29a.2.2 0 0 0 -.19.22zm-31.44-8.34-1-.55c-.36-.19-.58-.56-1-.75 0 .36-.06.66-.09.95s0 .36.27.38a5.62 5.62 0 0 0 1.82-.03zm3.14 8.41v.1h1.59c.08 0 .19 0 .21-.13a.22.22 0 0 0 -.14-.21.32.32 0 0 0 -.19-.05l-3.1-.11c-.14 0-.3 0-.31.18s.15.22.29.22zm129.29-12.29c-.57 0-1.14 0-1.71 0-.29 0-.3.23-.29.45s.11.34.35.32l1.1-.1c.5-.08.5-.08.55-.72zm-104.24 7.18h-.9c-.14 0-.3 0-.29.2s.13.22.29.23l2.13.23c.2 0 .37 0 .38-.26s-.18-.28-.37-.3zm23.78.64h1.1c.2 0 .25-.16.27-.33s-.14-.22-.28-.21l-2.13.09c-.11 0-.25 0-.26.15s.11.25.26.26c.35 0 .69-.01 1.04-.01zm91.17-2.94h.9a.25.25 0 0 0 .29-.29c0-.22 0-.37-.29-.37h-1.73c-.25 0-.31.15-.31.36s.12.28.31.28zm-22.1 6.62a36.7 36.7 0 0 0 6.59 0c0-.1-.06-.13-.12-.13zm11.3 1.17c-.11-.32-.08-.73-.52-.78a5.79 5.79 0 0 0 -1 0c-.34 0-.3.28-.31.51s.09.33.32.33a8.82 8.82 0 0 0 1.55-.08zm-15-12v.48s0 .45.37.45.46-.11.46-.44 0-.55 0-.82-.05-.44-.47-.48-.41.19-.39.47c.07.12.07.24.07.35zm-46.7 7.13h1.31c.19 0 .31-.08.29-.28s.09-.53-.21-.59a1.65 1.65 0 0 0 -1.14.08.79.79 0 0 0 -.2.8zm-39.69 1.28a5 5 0 0 1 0-.55c0-.27 0-.44-.37-.44s-.34.15-.34.39v1.16c0 .25.06.38.34.4s.4-.14.39-.42zm70.45 1.65c0-.56 0-1.12.09-1.68s0-.57-.61-.57c-.23 0-.35.09-.28.34a4.76 4.76 0 0 0 .85 1.92zm2.98-11.85v.18h3c.2 0 .26-.15.24-.34s-.18-.19-.31-.17c-1 .11-1.93.15-2.93.33zm-105.17.55h.75s.25-.22.26-.4 0-.37-.2-.35c-.57 0-1.14.11-1.7.18a.22.22 0 0 0 -.2.24c0 .18.13.23.27.24zm17.33 5.84v.9c0 .15.06.26.24.26s.19-.11.21-.22l.21-1.85c0-.21-.1-.28-.29-.28s-.34 0-.35.23zm137.69-38.19a27 27 0 0 0 -1.29 6.31zm-61.95 44.4h-.62c-.18 0-.22.14-.21.28s-.1.33.13.4a2.66 2.66 0 0 0 1.12.1c.32 0 .37-.34.39-.57s-.24-.19-.4-.21a2.8 2.8 0 0 0 -.41 0zm47.54-6.41.88-.12c.31 0 .36-.25.36-.49s-.24-.22-.41-.22a6.65 6.65 0 0 0 -.89 0c-.35 0-.32.34-.35.58s.17.24.41.25zm-151.2-4.49a26.77 26.77 0 0 0 .11-5.92 50.9 50.9 0 0 0 -.11 5.92zm146.87-.21.89-.05a.25.25 0 0 0 0-.5 11.36 11.36 0 0 0 -1.65 0c-.18 0-.2.16-.2.3s.07.27.24.27zm-53.75.22v-.15l-2.81-.08c-.18 0-.32.05-.32.27s.14.26.32.24zm-22.83 2.62h1.17a.2.2 0 0 0 .22-.21c0-.14-.11-.19-.23-.19l-2.35.08a.25.25 0 0 0 -.14.13c0 .11.06.17.16.17zm-32.82-.75c-.09-.85-.17-1.58-.25-2.31 0-.12-.06-.23-.21-.21s-.19.16-.18.3c.08.71.15 1.41.23 2.12 0 .14 0 .29.23.28a.17.17 0 0 0 .18-.18zm-10.89 1.33h.61c.18 0 .32 0 .31-.26s-.07-.36-.31-.35l-1.37.08a.24.24 0 0 0 -.25.26.23.23 0 0 0 .25.25zm71.18-2.25c0-.33 0-.59 0-.84a.19.19 0 0 0 -.16-.19.17.17 0 0 0 -.2.14c-.11.43-.22.85-.31 1.27 0 .21-.08.43.25.44s.44-.08.46-.42zm50.73-.91c-.09.1-.14.13-.15.16-.09.91-.18 1.83-.26 2.74 0 .12 0 .23.16.25s.23-.11.24-.25c0-.71.09-1.42.11-2.13a1.13 1.13 0 0 0 -.12-.77zm-129 3.4a18 18 0 0 0 2.87-.15.16.16 0 0 0 .17-.17c0-.19-.15-.21-.3-.19l-2.12.22c-.23.07-.5.01-.69.29zm47.85 8.37h1c.12 0 .24 0 .23-.18s-.1-.15-.2-.16l-2.06-.16h-.07a.25.25 0 0 0 -.18.26c0 .14.08.2.21.2zm55.36-14.26v.18h2.48c.17 0 .32 0 .3-.26s-.12-.28-.32-.26-.46 0-.68.06a10 10 0 0 0 -1.85.28zm-6.75 9.28c0-.5-.07-1-.11-1.51 0-.11 0-.25-.18-.25s-.15.15-.16.26 0 .32 0 .48c0 .53 0 1.06.07 1.59a.19.19 0 0 0 .22.2c.14 0 .2-.09.21-.22s-.12-.37-.12-.55zm-105.19 4.33h-1.1c-.1 0-.19 0-.17.15a.26.26 0 0 0 .09.18.59.59 0 0 0 .26.07l2.07.07c.12 0 .24 0 .25-.16s-.1-.19-.22-.2zm134-11.22h.68s.23-.18.22-.35-.08-.26-.24-.26c-.36 0-.73 0-1.09 0s-.24.23-.24.41.11.23.26.23zm-30.23 11.5h.89c.13 0 .31 0 .29-.2a.27.27 0 0 0 -.3-.23h-1.78c-.12 0-.23.05-.23.19a.23.23 0 0 0 .24.27zm-71-2.05-.27-1.61c0-.12-.09-.23-.22-.23s-.2.16-.2.29v1.1c.03.56.03.56.7.45zm-15.32.9v.19a3 3 0 0 0 1.11.07 11.43 11.43 0 0 0 1.17 0c.35 0 .74.12 1.17-.22zm34.6-1.37a.78.78 0 0 0 .26-.46c.3-.91.25-1-.7-.9 0 0-.06 0-.12.11a3.74 3.74 0 0 0 .57 1.25zm-29.5-.37h.14c.12-.47.27-.92.37-1.39s-.25-.26-.42-.29-.38 0-.33.21a10.61 10.61 0 0 0 .25 1.47zm28.49-6.51c.18-.95.2-1.84.29-2.73 0-.15 0-.28-.23-.26s-.17.13-.17.25c0 .73 0 1.47-.07 2.21a.53.53 0 0 0 .19.53zm87.72 8.92a2.36 2.36 0 0 0 .27 0c.14 0 .3 0 .3-.19s0-.38-.23-.43a.78.78 0 0 0 -.4 0c-.25.07-.67-.19-.71.27.01.28.01.38.78.35zm8.1.32h.27a.26.26 0 0 0 .27-.25c0-.15-.11-.18-.21-.23s-.41-.21-.62-.29-.48 0-.59.34.2.33.4.37a2.52 2.52 0 0 0 .49.07zm-28.46-13.24c-.37 0-.41.05-.4.46s.12.55.58.54c.3 0 .39-.13.37-.58s-.1-.43-.55-.42zm-23.53 8.4v.68c0 .21.12.27.31.27s.31-.06.28-.27c0-.46-.09-.91-.14-1.36a.2.2 0 0 0 -.21-.21.21.21 0 0 0 -.22.21c-.03.23-.02.45-.02.68zm14.13-8h.4c.26 0 .28-.17.28-.38s-.07-.31-.28-.3a1.94 1.94 0 0 0 -.34 0c-.25.05-.62-.05-.59.39s.37.28.53.33zm18.92-39.88a25.18 25.18 0 0 1 -.15 2.6 2.42 2.42 0 0 0 .15-2.56zm-51.07 47.77a.5.5 0 0 0 -.42-.13c-.49 0-.58.13-.48.63 0 .18.07.35.32.36s.41 0 .46-.3.08-.31.12-.52zm-5.77 0a3.25 3.25 0 0 0 -.88 0 .26.26 0 0 0 -.24.1c-.12.2.17.72.41.75.43.11.54-.03.71-.77zm89.38 2.96a5.36 5.36 0 0 0 -.06 1.44c0 .57 0 .58.69.41a16.1 16.1 0 0 1 -.63-1.85zm-93.46-1.61c-.29-.06-.53-.17-.68.1a3.78 3.78 0 0 0 .25 1.59zm-64.9-8.75a1.38 1.38 0 0 0 -.15-.74.26.26 0 0 0 -.31-.2c-.26 0-.49.06-.48.42s0 .49.43.52zm1.43-18.59a3.16 3.16 0 0 0 2.84 0zm31.41 22h-.61c-.19 0-.32 0-.3.27s.16.25.34.24c.34 0 .68-.06 1-.09.16 0 .37 0 .37-.2s-.26-.18-.42-.2a2.77 2.77 0 0 0 -.38.02zm16.39 5.95a2 2 0 0 0 0 1.19c0 .14 0 .35.23.37s.29-.19.37-.35a.39.39 0 0 0 0-.45c-.24-.24-.41-.51-.6-.76zm-27.71-1.85a11 11 0 0 0 2.49.31.13.13 0 0 0 .16-.16.18.18 0 0 0 -.19-.15zm31.38-4.05a4.1 4.1 0 0 0 2.76 0zm-23.73-.1c-.3 0-.44.09-.42.42s0 .45.36.42.49-.1.5-.46-.16-.38-.44-.38zm75.79-4.6v-.19h-1.86c-.15 0-.27.05-.26.24s.15.22.29.19a15.61 15.61 0 0 0 1.83-.23zm-80.22 8.3c0-.55.09-1.09.12-1.64a2.52 2.52 0 0 0 -.08-.54.17.17 0 0 0 -.19-.15c-.12 0-.14.11-.14.2a6.3 6.3 0 0 0 .29 2.13zm77.78-6.27h-.14c-.15.41-.3.81-.43 1.22-.05.16-.16.38.12.43s.38-.11.39-.36zm41.23 0a10.35 10.35 0 0 0 -.37 2.82 9 9 0 0 0 .37-2.82zm-133.32 5.85c.09-.65.16-1.17.23-1.69 0-.16 0-.27-.2-.27s-.26 0-.25.18a4.09 4.09 0 0 0 .22 1.78zm3.54 5.05h.63c.09 0 .18 0 .18-.16s-.08-.16-.17-.18a5.73 5.73 0 0 0 -1.17 0 .17.17 0 0 0 -.18.16c0 .13 0 .24.16.26zm133.06-11c.41 0 .49-.07.49-.49 0-.18 0-.31-.25-.31-.44 0-.62.1-.64.42s.15.43.4.41zm-11.47 4.67v-.16c0-.15 0-.33-.2-.36s-.31.15-.33.34l-.06.47c0 .13-.08.29.13.32s.37 0 .42-.23a2.73 2.73 0 0 0 .04-.38zm-102 6.47a3.12 3.12 0 0 0 -2.26 0 6.3 6.3 0 0 0 2.29-.02zm25.1 1-2.46-.18c-.09 0-.18 0-.19.14s.1.15.18.15a12.78 12.78 0 0 0 2.5-.16zm-39.25-7.19a2.82 2.82 0 0 0 -.16 1.4c0 .13.07.22.21.21s.19-.12.17-.24c-.04-.51-.12-.96-.19-1.42zm10.68-1.08a5 5 0 0 0 .09 2.85c-.01-1 .01-1.95-.06-2.9zm99.59 7.53c.22-.11.67.15.66-.23s-.45-.17-.7-.17-.58-.12-.58.17.44.07.65.18zm-49.36.4c0 .14-.07.42.19.39s.41-.33.45-.61-.13-.26-.3-.26c-.31-.05-.31.18-.31.43zm-46.4-31.37h3.45zm112.89 24a.59.59 0 0 0 0-.13c0-.17 0-.33-.22-.34s-.26.14-.26.31 0 .5 0 .75.12.18.24.18a.19.19 0 0 0 .19-.16c.05-.26.07-.47.08-.67zm-3.1-53.8a4.6 4.6 0 0 0 .79-2.08 6.63 6.63 0 0 0 -.76 2.02zm-109.48 60.45a3.33 3.33 0 0 0 1.8 0 4.55 4.55 0 0 0 -1.8 0zm-17.79-4.33c-.6-.15-.61-.15-.66.32a2.3 2.3 0 0 0 .05 1zm6.77 3.47v-.05h-3.31v.05zm7.73-7.48c-.13 0-.43-.12-.44.26 0 .23.05.43.34.37s.55.1.61-.28-.18-.37-.55-.35zm15.08 2.07c-.17 1.21-.13 1.74.16 2.1a4.77 4.77 0 0 0 -.16-2.1zm.69 2.63a7.06 7.06 0 0 0 1.66.07c.09 0 .18-.05.16-.17s-.1-.15-.19-.14c-.51 0-1 0-1.52 0-.06.04-.12.1-.11.24zm-31.34-4.53c-.15 0-.42-.05-.39.28s.09.43.41.43.39-.13.41-.41-.18-.32-.43-.3zm80.23 6.35a1.79 1.79 0 0 0 .44-1c-.66-.1-.67-.1-.56.48zm31.47 1.9v.18h1.22a.19.19 0 0 0 .2-.14c0-.1 0-.2-.14-.19a2.68 2.68 0 0 0 -1.28.15zm-115.5-7.57h.53a.2.2 0 0 0 .2-.22.18.18 0 0 0 -.2-.21h-.47c-.19 0-.48 0-.47.25s.3.15.41.18zm126-3.7v-.14l-1.4-.05a.15.15 0 0 0 -.16.18.15.15 0 0 0 .13.13 3.83 3.83 0 0 0 1.45-.12zm-125 11.13c-.06-.27-.14-.47-.43-.48s-.48.19-.55.51a2.17 2.17 0 0 0 1.01-.03zm95.68-1.49a1.78 1.78 0 0 0 .44-.93c0-.14 0-.28-.16-.29s-.28 0-.28.22.03.66.03 1zm15.76-46.5a3.46 3.46 0 0 0 -1 .61c-.07.06-.11.15 0 .23s.13.09.17.07a1.28 1.28 0 0 0 .86-.91zm-74.52 39.87h2.82a9.52 9.52 0 0 0 -2.79 0zm-58 5.63.12-1a.18.18 0 0 0 -.19-.22.19.19 0 0 0 -.2.21 1.59 1.59 0 0 0 .26 1.01z"/><path d="m259.32 55.22c.14-.31.25-.61.4-.89.4-.73.67-.74 1.09 0a5.24 5.24 0 0 1 .66 2.24c.06.86.09 1.71.14 2.56a1.34 1.34 0 0 0 .23.86v-2.9q0-3 0-6.09c0-.6 0-.61-.61-.59-1.59.05-3.18.15-4.77.19-2.85.08-5.68-.15-8.52-.23a18.33 18.33 0 0 1 -3-.2 6.1 6.1 0 0 1 -1.13-.32 2 2 0 0 1 -1.35-1.91 5.26 5.26 0 0 1 .18-1.58c.23-.87.47-1.73.7-2.6a11.68 11.68 0 0 0 .38-2.88c0-1.89-.08-3.78-.26-5.67a5.83 5.83 0 0 1 0-1.72 1.58 1.58 0 0 0 -.08-.75 10.25 10.25 0 0 1 .88-7.65c.45-.88.94-.93 1.62-.18.13.15.2.35.48.2a8.07 8.07 0 0 1 4.51-.77c2.26.09 4.5.38 6.76.56a42 42 0 0 0 4.63.12c4-.12 7.93-.47 11.9-.57a19.09 19.09 0 0 1 2.83.13 5.08 5.08 0 0 1 4.75 4.49 18.34 18.34 0 0 1 .22 4.68c-.09 1.5-.11 3-.1 4.5a27.92 27.92 0 0 0 .65 4.45 12.81 12.81 0 0 1 .22 3.44 3.28 3.28 0 0 1 -2.29 3 10.35 10.35 0 0 1 -4.3.53 33.52 33.52 0 0 0 -5.11.11c-1.84.13-3.69.25-5.53.36l-2.76.17c-.55 0-.56 0-.55.61 0 4.36.1 8.72.14 13.08 0 2.64 0 5.27-.08 7.9a37 37 0 0 0 .09 4.08c.58 7.39.71 14.8.91 22.2.17 6.49.31 13 .16 19.46-.06 2.33-.08 4.66-.36 7a46.11 46.11 0 0 0 -.2 7c.09 2.77 0 5.54-.11 8.31a6.11 6.11 0 0 0 .1 1.65c.16.68.29.78 1 .81a2.07 2.07 0 0 1 .89.11c-.37.26-.75.09-1.11.22a36.21 36.21 0 0 0 6.89.29c.91-.07 1.84 0 2.76-.06.35 0 .66 0 .74.45.05.26.27.2.44.23a.23.23 0 0 1 .2.24c0 .14-.11.2-.22.22a2 2 0 0 1 -.42 0 5.1 5.1 0 0 0 -2 .43c0 .25.22.15.32.16l4 .14a3 3 0 0 1 .42 0 .3.3 0 0 1 .25.29.33.33 0 0 1 -.25.37 1.85 1.85 0 0 1 -.41 0c-6.34.29-12.69.23-19 .22-3.58 0-7.16 0-10.73 0h-.63a.44.44 0 0 1 -.46-.42.51.51 0 0 1 .33-.56 1.94 1.94 0 0 1 .68-.11 28.18 28.18 0 0 0 2.9-.16 8.29 8.29 0 0 1 2.33-.1 17.85 17.85 0 0 0 1.93.12 15.72 15.72 0 0 0 3.21-.45 36.07 36.07 0 0 1 4.74-.57 1.44 1.44 0 0 0 .83-.19c-.28 0-.46-.05-.64-.05-2.89 0-5.77.2-8.65.33-1.38.06-2.77.07-4.15.1h-.35a.21.21 0 0 1 0-.41h.27c1.83-.06 3.63-.32 5.44-.55a43.7 43.7 0 0 1 7.05-.32c.54 0 .63 0 .56-.5a42.91 42.91 0 0 1 0-5.67c0-2.24 0-4.48 0-6.72a44.81 44.81 0 0 1 .22-4.91 3.24 3.24 0 0 0 0-.82c-.07.45-.14.91-.2 1.37 0 .21-.07.41-.31.49s-.42-.1-.57-.28a15.89 15.89 0 0 1 -.94-1.42v1.25.9s-.12.4-.38.39-.3-.2-.3-.39c0-.67 0-1.34 0-2 0-5.84-.16-11.68-.25-17.52 0-3.32-.09-6.64-.14-10-.1-6.49.08-13 .27-19.45a37.31 37.31 0 0 0 -.26-3.8c-.14-1.91-.33-3.81-.49-5.72-.23-2.86-.55-5.69-1.06-8.51a17.83 17.83 0 0 1 -.34-4.06 4.21 4.21 0 0 1 .05-.62c.1-.65.36-.77.94-.42a2.47 2.47 0 0 1 .9 1 .39.39 0 0 0 .18.25zm-12.92-14.55c.26 0 .32-.22.44-.35.48-.53.95-1.08 1.43-1.6.13-.14.3-.45.48-.28s-.12.38-.25.53a21.65 21.65 0 0 0 -2.5 3.16 5.34 5.34 0 0 0 -.67 1.5c-.08.27.24.83-.44.8a.61.61 0 0 0 0 .19 10.27 10.27 0 0 0 .5 2.5 2.75 2.75 0 0 0 1.15 1.43c.44.25.42.24.76-.18s.6-.74 1.06-.63a.61.61 0 0 0 .6-.14c.44-.38.86-.76 1.29-1.15.16-.14.3-.29.46-.42s.19-.16.3-.06.06.22 0 .32a4.61 4.61 0 0 1 -.66 1 7.47 7.47 0 0 0 -.79 1.14c-.33.66-.25.81.46.81a81.7 81.7 0 0 0 9.12-.49c1.91-.2 3.81-.43 5.73-.47a102.06 102.06 0 0 1 10.78.32c.58 0 .59 0 .8-.51s.41-1.07.59-1.62a25.59 25.59 0 0 0 1.15-5.33c0-.2.13-.51-.07-.57-.49-.15-.49-.58-.63-.92a50.12 50.12 0 0 0 -2.79-6.1l-.1-.19a.2.2 0 0 1 .07-.29.18.18 0 0 1 .24.07c.13.16.25.33.37.5a24.22 24.22 0 0 1 2.54 5.36c.1.29.21.58.34.95.07-.15.12-.21.12-.27a19.32 19.32 0 0 0 -.11-3 1.26 1.26 0 0 0 -.17-.68 5.31 5.31 0 0 1 -1-2.2 6.91 6.91 0 0 0 -1.57-3.11c-.33-.41-.67-.82-1-1.25a1.94 1.94 0 0 0 -1.06-.71 12.05 12.05 0 0 1 -4.37-2.23 1.8 1.8 0 0 0 -1.38-.43 6.2 6.2 0 0 0 -.62.06l-2.93.55c-.2 0-.47.13-.51-.15s-.33-.31-.56-.31c-1.22 0-2.44 0-3.67 0-2.24-.06-4.44-.47-6.67-.64a16 16 0 0 0 -4.21.06 3.41 3.41 0 0 0 -3 2.81 17.93 17.93 0 0 0 -.33 4.26c0 .8.06 1.59.09 2.38.18 0 .21-.08.26-.15a31.63 31.63 0 0 1 2.33-3.09 24.21 24.21 0 0 0 1.84-2.43c.09-.15.16-.49.4-.34s0 .37-.1.54a17.73 17.73 0 0 1 -1.71 2.43c-.7.92-1.4 1.83-2.08 2.76a4.33 4.33 0 0 0 -.81 1.67 18.6 18.6 0 0 0 -.43 3.41c0 .14-.08.31.13.49a11 11 0 0 1 1.79-3.11c.8-1 1.68-2 2.42-3.12a1.83 1.83 0 0 1 .13-.16c.07-.06.15-.11.24-.05a.17.17 0 0 1 .07.24c-.12.2-.24.4-.37.59-.79 1-1.6 2.09-2.38 3.14a8.5 8.5 0 0 0 -1.13 2c.57.02.61.38.59.76zm15.74 45.53h-.14v1.24c0 4.36-.25 8.71-.47 13.06a112.08 112.08 0 0 0 .38 14.66c.17 2.11.4 4.22.37 6.35v1.49a24.31 24.31 0 0 0 .26-2.94c.13-4.15.19-8.3.09-12.45-.13-5.24-.21-10.47-.32-15.71-.02-1.9-.11-3.79-.17-5.7zm-2-22.33v1.27l-.09 8c0 1.18-.15 2.36-.06 3.53.25 3.4.49 6.8.57 10.21a.78.78 0 0 0 .15.57c0-.52.1-1 .13-1.39.12-1.7.36-3.39.36-5.1 0-3.11 0-6.22 0-9.34a10.12 10.12 0 0 0 -.05-1.1c-.17-1.51-.34-3-.54-4.53a7.55 7.55 0 0 0 -.44-2.12zm1.11 60.1a1.79 1.79 0 0 0 .12-.31 5.52 5.52 0 0 0 .07-.55 48.23 48.23 0 0 0 -.2-7.6c-.22-2.36-.49-4.72-.58-7.1-.16-4.17.1-8.34.3-12.51.07-1.42.12-2.84.17-4.26a32.16 32.16 0 0 0 -.35 3.79c-.22 3.91-.4 7.83-.47 11.75 0 2.28-.16 4.56 0 6.84s.28 4.74.27 7.12v.34a6.88 6.88 0 0 0 .7 2.52zm17.45-97.52a2.15 2.15 0 0 0 -.83-.41 7.94 7.94 0 0 0 -2.32-.38c-1.59-.05-3.17.14-4.77.17-.14 0-.31 0-.41.18.49.25 1 .48 1.42.74.24.13.44.26.63-.07a.27.27 0 0 1 .31-.12c.69.15 1.4-.09 2.1.09.32.09.72.05.42.57 0 .09 0 .18.08.25l.83 1.09c.13-.09.09-.18.09-.26a.47.47 0 0 1 .4-.5.49.49 0 0 1 .58.27 11.15 11.15 0 0 1 .84 1.74 8.17 8.17 0 0 0 .79 1.45 2 2 0 0 0 -.17-.83 7.52 7.52 0 0 1 -.41-2.1 2.54 2.54 0 0 1 .45-1.88zm1.48 18.08a.54.54 0 0 0 .44-.3c.07-.1.17-.18.29-.11s.15.22.09.36a3.56 3.56 0 0 1 -.61.83c-.26.29-.54.57-.81.85a3.81 3.81 0 0 0 -1 1.35c0 .08-.19.11-.28.17s-.29.25-.21.46-.11.34-.32.39-.33-.14-.48.07a6.72 6.72 0 0 0 2.2-.2 2.87 2.87 0 0 0 2.51-3.14v-.35a26.85 26.85 0 0 0 -.58-4.09.18.18 0 0 0 -.13.17 3.14 3.14 0 0 1 -.4 1.12 6.31 6.31 0 0 0 -.68 2.42zm-20.68 25v-3.75c0-2.07.06-4.15-.11-6.22a16.4 16.4 0 0 0 -.72-3.73 2.36 2.36 0 0 0 -.81-1.26 6.46 6.46 0 0 0 0 2.06c.18 1.39.39 2.78.59 4.18.27 1.82.54 3.64.67 5.49a14.68 14.68 0 0 0 .41 3.22zm.78-14.75c-.26.12-.29.36-.35.58a4.12 4.12 0 0 0 -.14 1.91q.57 3.33 1.19 6.66c0 .19 0 .4.15.59a1.7 1.7 0 0 0 .06-.73c0-2.51-.47-5-.47-7.51a2.48 2.48 0 0 0 -.41-1.51zm-.45 30.88a85.1 85.1 0 0 0 -.09 9.1 81.49 81.49 0 0 0 .12-9.11zm19.33-57.66a6.53 6.53 0 0 0 .92 3.55 5.64 5.64 0 0 0 -.92-3.55zm-35.16 18.25a2.48 2.48 0 0 0 -.3 1.36c0 .85.5 1.23 1.43 1.14a6 6 0 0 1 -1.13-2.5zm35-3.49c-.44 1.43-.65 2.92-1.07 4.35 1.19-1.24.91-2.85 1.07-4.35zm-34.92-13.11a7 7 0 0 1 1.34-3.71c.19-.24.16-.55-.06-.65s-.36.13-.44.3a9.15 9.15 0 0 0 -.63 2.11 5.37 5.37 0 0 0 -.21 1.95zm.74 13.54.17.05a12.65 12.65 0 0 1 1.24-2.24c-.48.06-.74.37-1.11.42-.19 0-.19.18-.2.31-.04.5-.07.98-.1 1.46zm4.53 4.7-1.64 1c.15.23.35.18.52.22.63.13.63.13.83-.49.06-.19.15-.37.29-.73zm30-9.88a9.09 9.09 0 0 0 0 1.73 1.28 1.28 0 0 0 .01-1.74z"/><path d="m76.91 93.69a6.14 6.14 0 0 1 -.91 1.47l-.31.45c-.22.3.2.16.17.22a1.23 1.23 0 0 1 -.83.57 18.27 18.27 0 0 1 1.41-2.18c-.07-.23-.27 0-.39-.21.33-.01.55-.24.86-.32z"/><path d="m75.11 98.13c.07-.44.19-.55.56-.58a9.5 9.5 0 0 0 1-.35c.09 0 .19 0 .23.08a.31.31 0 0 1 0 .26c-.05.07-.1.16-.18 0s-.32-.15-.51-.07c-.39.17-.68.43-1.1.66z"/><path d="m75.72 98.73c-.13.35-.53.47-.66.83.22.17.43-.1.69 0a1.46 1.46 0 0 1 -1.1.33 2.9 2.9 0 0 1 1.07-1.16z"/><path d="m140.93 97.85a5 5 0 0 0 -1.82.44 16 16 0 0 0 -2.65 1.47 15.36 15.36 0 0 1 -2.65 1.49c-.17.07-.41.29-.54 0s.16-.34.31-.46a8.6 8.6 0 0 1 1.59-1c.67-.34 1.36-.68 2-1a4.58 4.58 0 0 0 1.42-1.17 2.12 2.12 0 0 0 -1 .23 17.53 17.53 0 0 0 -3 1.54l-2.16 1.36c-.15.08-.33.3-.48.12s.11-.36.24-.48a14.65 14.65 0 0 1 2-1.58c.94-.62 1.9-1.22 2.85-1.83a1.64 1.64 0 0 0 .63-.52 8.11 8.11 0 0 0 -2.76.93c-1 .68-2.11 1.32-3.21 1.9-.19.1-.38.27-.66.2.06-.28.28-.39.45-.53a10.92 10.92 0 0 1 2.79-1.65 9.89 9.89 0 0 0 2.23-1.23c.08-.07.16-.17.33-.13-.08.25-.4.28-.5.56a10.73 10.73 0 0 1 1.9-.2c-.16.41-.55.53-.83.76s-.59.43-.94.67a.45.45 0 0 0 .48 0 10.52 10.52 0 0 1 1.9-.61c.14 0 .29-.09.38.06s0 .26-.12.37-.23.32-.43.59a7.41 7.41 0 0 1 2.71-.57c.12.22 0 .34-.12.46a7 7 0 0 1 -2.27 1.96c-.89.5-1.8.94-2.7 1.41-.42.23-.84.49-1.26.72-.13.07-.26.24-.42.08a.55.55 0 0 1 .12-.68 4.11 4.11 0 0 1 .46-.15 16.92 16.92 0 0 0 4.63-2.28 3.3 3.3 0 0 0 1.1-1.25z"/><path d="m126.69 95a123.23 123.23 0 0 0 12.47-7.2.74.74 0 0 1 -.38.45 91.34 91.34 0 0 1 -9.86 5.85 3.75 3.75 0 0 0 -.62.42 2 2 0 0 1 -1.61.48z"/><path d="m138.24 92.32c0 .29-.27.41-.45.56a13.69 13.69 0 0 1 -2.68 1.71c-1.79.91-3.54 1.89-5.3 2.86-.2.11-.38.25-.57.38a2 2 0 0 1 -1.22.37c0-.28.2-.29.33-.34a24.36 24.36 0 0 0 2.23-1.11c1.21-.68 2.43-1.34 3.67-2a19.4 19.4 0 0 0 3.99-2.43z"/><path d="m135.1 85.66c-2.25 2.31-7.56 5.78-9.19 5.72a41 41 0 0 0 4.79-2.49c1.51-1.02 2.95-2.12 4.4-3.23z"/><path d="m155.58 82.58c-1.15 1.64-3 2.44-4.45 3.76.17.13.27 0 .38 0s.24 0 .24.18a.19.19 0 0 1 -.15.2l-1.19.35a.22.22 0 0 1 -.19 0c-.08-.08 0-.17 0-.24s.33-.39.51-.57a11.7 11.7 0 0 1 1.51-1.2 19.82 19.82 0 0 0 3.34-2.48z"/><path d="m156.25 77.7a25.74 25.74 0 0 1 -6 4.87.48.48 0 0 1 .26-.37c.74-.55 1.47-1.11 2.22-1.64a21.49 21.49 0 0 0 3.27-2.73c.1-.06.15-.14.25-.13z"/><path d="m157.06 71.3a28.5 28.5 0 0 1 -5.38 4.7c.2-.32 5.09-4.56 5.38-4.7z"/><path d="m151.57 79a.07.07 0 0 1 0-.06s0-.09.07-.11a55.52 55.52 0 0 0 4.36-3.42h.05c.05.17-.1.23-.19.31l-1.81 1.6a2 2 0 0 0 -.39.37 3.22 3.22 0 0 1 -2.09 1.31z"/><path d="m152 95.82a18.56 18.56 0 0 0 4.69-2.5 7.86 7.86 0 0 1 -4.69 2.5z"/><path d="m156.32 96a15.05 15.05 0 0 0 -3 2 1.14 1.14 0 0 1 -.23.15s-.11 0-.11 0 0-.18 0-.2a10.57 10.57 0 0 1 3.34-1.95z"/><path d="m153.75 89.35-2.4 1.09a6.14 6.14 0 0 1 2.36-1.23z"/><path d="m158.28 97.32a4.52 4.52 0 0 1 -2 1.52c.33-.25.68-.48 1-.75s.63-.59.94-.88z"/><path d="m122.47 82.22a3.06 3.06 0 0 1 1.63-1.22c-.53.4-1.1.81-1.63 1.22z"/><path d="m199.62 82.22c.79 1.46 1.17 3.11 2 4.59.26-.06.23-.26.26-.39a16 16 0 0 0 .64-6.7 1 1 0 0 0 -.45-.8 4.54 4.54 0 0 1 -1-1c.46.16.6.62 1 .78.1-.26 0-.46-.12-.66-.36-1-.75-2.08-1.09-3.13a6.38 6.38 0 0 1 -.36-2.52c0-.15 0-.33.2-.45a15.21 15.21 0 0 0 1.2 4.06 15.56 15.56 0 0 1 .25 10.45 1.58 1.58 0 0 0 .17 1.72.12.12 0 0 1 0 .19c-.28 0-.29-.39-.59-.49-.3.38-.35.94-.78 1.28.16-.45.31-.9.48-1.35.06-.18.14-.35 0-.53a18.47 18.47 0 0 1 -1-2.5c-.26-.85-.52-1.7-.81-2.55z"/><path d="m202.52 76.34c.54.32.66.29.75-.15a3.56 3.56 0 0 0 0-1.38 23.37 23.37 0 0 0 -1-3.38 7.34 7.34 0 0 1 -.52-2.21 1.38 1.38 0 0 1 .44-1.27 4 4 0 0 0 .08 2.4c.36 1.29.74 2.57 1.1 3.86a5.45 5.45 0 0 1 .24 1.84.82.82 0 0 1 -.31.67c-.3.28-.51.16-.78-.38z"/><path d="m199.11 76.38c.11 0 .15.08.19.16a24.8 24.8 0 0 1 2.11 5.91 8.65 8.65 0 0 1 .11.89 3 3 0 0 1 0 .41c-.17 0-.18-.15-.2-.25a38.8 38.8 0 0 0 -1.94-6.41 2 2 0 0 1 -.22-.72z"/><path d="m203.49 68.84c1 1.16 1.6 3.77.6 4.8a6.23 6.23 0 0 0 -.6-4.8z"/><path d="m199.12 76.37a1.48 1.48 0 0 1 -.25-.55c.93.05 1.15.86 1.61 1.38-.25 0-.39-.23-.56-.38s-.35-.36-.53-.54-.21 0-.28.1z"/><path d="m164.84 70.33c-.06.31-.34.51-.42.82.25.23.47-.1.76 0a2.6 2.6 0 0 1 -1.15.32 2.17 2.17 0 0 1 .81-1.14z"/><path d="m83.2 100c0-.24.19-.36.26-.6-1 0-1.61.92-2.59 1 0-.33.27-.47.43-.64a8.36 8.36 0 0 0 1.14-1.38c.09-.14.29-.3.1-.48s-.4-.4-.73-.23a1.26 1.26 0 0 0 -.47.39c-.11.17-.23.33-.36.51-.18-.43-.16-.42.07-.66.5-.52 1-1 1.45-1.58a.17.17 0 0 0 0-.2c-.14-.09-.3.06-.45 0a1.67 1.67 0 0 1 1.09-.33c-.32.61-.92.93-1.21 1.53.44 0 .78-.29 1.24-.17a8 8 0 0 1 -1.38 2.46 8.57 8.57 0 0 1 2.21-.62 3.64 3.64 0 0 1 -.8 1z"/><path d="m77.74 76a5.69 5.69 0 0 1 -.56-1.88 14.61 14.61 0 0 0 -.52-3.24 10 10 0 0 1 0-3.73 3.08 3.08 0 0 1 .54-1.25 14.21 14.21 0 0 0 -.44 1.88 13.76 13.76 0 0 0 .35 4.43c.24 1.13.52 2.24.69 3.38a.36.36 0 0 1 -.06.41z"/><path d="m112.92 86.63a4.48 4.48 0 0 1 -2.27 4c.13-.45.48-.78.49-1.24v.53c.86-.58 1.29-1.39 1.78-3.29z"/><path d="m112.87 82.21a2.41 2.41 0 0 1 -1.83.88c.28-.82.68-1.48.91-2.22a1.73 1.73 0 0 1 -.15.92c-.06.22-.16.43-.22.65s.07.35.31.27.61-.38.98-.5z"/><path d="m112.13 85.43a1.83 1.83 0 0 1 -1.43.23c0-.22.25-.31.41-.41s.08.09.12.16.2.07.31.06.38-.15.59-.04z"/><path d="m208.05 104.82c-.5-.35-.92-.62-1.3-.92s-.81-.69-1.2-1.06a9.14 9.14 0 0 1 -1-1.13 1.44 1.44 0 0 1 .69.41 15.08 15.08 0 0 0 2.73 2.11.22.22 0 0 0 .3 0 2.15 2.15 0 0 0 -.63-1.36 5.48 5.48 0 0 0 -1.16-1 7.63 7.63 0 0 1 -.67-.49.16.16 0 0 1 0-.24.16.16 0 0 1 .24 0 3.58 3.58 0 0 1 .52.34 7 7 0 0 0 .94.58c.15.07.3.19.45.06a.45.45 0 0 0 .06-.46c-.08-.38-.18-.76-.28-1.14a3 3 0 0 1 0-1.89c.2 1.06.51 2.09.71 3.15a.85.85 0 0 1 -.08.67c-.29.37-.14.66.06 1a2.49 2.49 0 0 1 .3.92c.1.52 0 .63-.52.76a1.85 1.85 0 0 1 -.62 0c-1.05-.13-4-1.67-4.53-2.75.27.23.54.47.83.69s.6.43.91.62a11.42 11.42 0 0 0 1 .54c.34.16.68.31 1 .43a2.18 2.18 0 0 0 1.25.16z"/><path d="m220.07 78.52a2.73 2.73 0 0 1 -.9-2.64c.3.4.13.9.29 1.35s.46.83.61 1.29z"/><path d="m221.28 75a.16.16 0 0 1 .16.1c.08.14.16.31 0 .42-.34.21-.3.54-.31.86a.26.26 0 0 0 .09.24c.09.05.33-.1.23.17s-.2.09-.31.09-.22-.06-.22-.2c0-.43-.12-.88.25-1.23.1-.1.23-.18.1-.33s-.06-.12.01-.12z"/><path d="m274.07 35.09a25.6 25.6 0 0 1 -.6-2.53c-.05-.36-.1-.73-.13-1.09a.2.2 0 0 1 .19-.24c.11 0 .16.07.21.15a1.06 1.06 0 0 1 .06.19c.69 2.47 1.79 4.79 2.7 7.18.05.13.1.26.14.39s.1.42-.16.52-.37-.1-.48-.29l-.58-1.1c-.09-.16-.13-.34-.3-.46-.13.18 0 .34.06.5a21.7 21.7 0 0 1 .51 2.29c0 .22.21.59-.08.67s-.31-.32-.38-.53c-.45-1.33-.94-2.65-1.48-4a57 57 0 0 0 -3.73-7.4c-.11-.18-.21-.36-.31-.54a.17.17 0 0 1 .05-.24.2.2 0 0 1 .25 0c.11.12.21.24.31.37a38.56 38.56 0 0 1 3.32 5.42 1.47 1.47 0 0 0 .43.74z"/><path d="m266.08 36.63c.17.27 0 .46-.11.65a12.71 12.71 0 0 1 -1.65 2.62c-.7.89-1.47 1.72-2.22 2.56a19.53 19.53 0 0 0 -3 4c0 .08-.09.16-.22.16s-.08-.27 0-.41a11 11 0 0 1 1.14-1.88 31.1 31.1 0 0 1 2.24-2.63c.69-.75 1.37-1.49 2-2.29a12.56 12.56 0 0 0 1.46-2.34c.12-.17.17-.35.36-.44z"/><path d="m270.8 46.7a6.09 6.09 0 0 1 .28-.71 15.36 15.36 0 0 1 1.62-2.38l.09-.1c.14-.13.28-.4.49-.2s0 .33-.16.45a21.15 21.15 0 0 0 -1.7 2.5 4.34 4.34 0 0 0 -.28.62c-.05.1-.09.23-.24.18s-.1-.18-.1-.36z"/><path d="m266.91 45.66a8.18 8.18 0 0 0 .82-2.35c.24.38.22.64-.11 1.29a2.52 2.52 0 0 1 -.71 1.06z"/><path d="m246.93 48a1.4 1.4 0 0 1 1-1.56c0 .38-.38.52-.53.77s-.29.48-.47.79z"/><path d="m273.17 47.18c-.15 0-.25-.22-.17-.38s.35-.29.41-.54 0-.38.28-.27.09.25 0 .38-.17.42-.27.63a.41.41 0 0 1 -.25.18z"/></g></svg>